<svg xmlns="http://www.w3.org/2000/svg" width="56" height="56" viewBox="0 0 56 56">
  <path id="Контур_275" data-name="Контур 275" d="M9.643-.02h36.8A4.368,4.368,0,0,1,50.8,4.336V24.191a27.239,27.239,0,0,1,2.627,1.2,4.8,4.8,0,0,1,2.587,4.262v5.754a2.967,2.967,0,0,1-2.964,2.964H50.8V51.624A4.368,4.368,0,0,1,46.44,55.98H9.643a4.368,4.368,0,0,1-4.355-4.355V37.477L.932,36.6A1.151,1.151,0,0,1,.01,35.47V30.451A1.151,1.151,0,0,1,1.16,29.3h.774v-.609s0-.006,0-.01,0-.006,0-.01v-4.96a2.116,2.116,0,0,1,1.79-2.088A11.186,11.186,0,0,1,5.288,21.6V4.335A4.368,4.368,0,0,1,9.643-.02Zm6.107,24.988a.82.82,0,1,0,0,1.641h.569a.82.82,0,1,0,0-1.641Zm12.26,0a.82.82,0,0,0,0,1.641h.569a.82.82,0,1,0,0-1.641ZM45.6,33.315A2.682,2.682,0,1,0,48.284,36,2.685,2.685,0,0,0,45.6,33.315Zm0,3.724A1.041,1.041,0,1,1,46.644,36,1.043,1.043,0,0,1,45.6,37.038ZM13.009,33.315A2.682,2.682,0,1,0,15.691,36,2.685,2.685,0,0,0,13.009,33.315Zm0,3.724A1.041,1.041,0,1,1,14.05,36,1.043,1.043,0,0,1,13.009,37.038ZM49.3,23.652V4.336A2.864,2.864,0,0,0,46.44,1.48H9.643A2.864,2.864,0,0,0,6.787,4.336V21.6h.2a17.354,17.354,0,0,1,14.863-7.142l3.818.2a17.074,17.074,0,0,1,10.519,4.386c1.207,1.094,2.473,2.259,3.767,3.467a21.859,21.859,0,0,1,4.721.091.82.82,0,1,1-.206,1.628,20.139,20.139,0,0,0-4.714-.05h0c-.022,0-.044,0-.067,0h-.024l-26.4-.892a1.708,1.708,0,0,1-1.234-2.822A18.094,18.094,0,0,1,15.96,17.1c.241-.156.487-.305.737-.449a14.9,14.9,0,0,0-4.023,1.825,14.892,14.892,0,0,0-4.558,4.377.821.821,0,0,1-.692.38H5.44l1.67,2.383a2.008,2.008,0,0,1,.366,1.158v.706A2.02,2.02,0,0,1,5.458,29.5H3.575v.619a.82.82,0,0,1-.82.82H1.65V32.9H8.487a5.478,5.478,0,0,1,9.043,0H41.081a5.478,5.478,0,0,1,9.043,0h4.245v-.769c-.229.015-.46.025-.694.025-2.588,0-4.858-1.479-4.858-3.165,0-.6.32-1.376,1.847-1.671a14.629,14.629,0,0,1,2.459-.179,3.211,3.211,0,0,0-.459-.294,25.419,25.419,0,0,0-4.6-1.858.82.82,0,1,1,.461-1.574q.388.114.773.24ZM6.787,37.78l1.119.226a5.483,5.483,0,0,0,10.046.365h3.026a.82.82,0,0,0,0-1.641H18.443a5.425,5.425,0,0,0-.148-2.193H40.316a5.423,5.423,0,0,0-.148,2.193H24.806a.82.82,0,0,0,0,1.641H40.658A5.481,5.481,0,0,0,49.3,40.048V51.625A2.864,2.864,0,0,1,46.44,54.48H9.643a2.864,2.864,0,0,1-2.855-2.855V37.78Zm6.475-16.162a.068.068,0,0,1,.013-.08,15.827,15.827,0,0,1,10.043-5.362l1.711.092a11.963,11.963,0,0,1,0,5.782l-11.707-.4a.052.052,0,0,1-.055-.036h0Zm24.234.853L26.7,22.107a13.941,13.941,0,0,0,.044-5.7,15.437,15.437,0,0,1,8.337,3.855c.782.709,1.59,1.449,2.414,2.21h0ZM5.835,26.779v.706a.378.378,0,0,1-.377.377H3.575V23.713a.47.47,0,0,1,.049-.207l2.142,3.056a.375.375,0,0,1,.068.216h0ZM1.65,35.068v-.531H7.723a5.444,5.444,0,0,0-.192,1.719L1.65,35.068Zm11.358,4.772A3.844,3.844,0,1,1,16.853,36a3.848,3.848,0,0,1-3.844,3.844Zm40.666-9.329c-1.854,0-3.07-.95-3.205-1.439a9.388,9.388,0,0,1,3.205-.3c.194,0,.387.007.577.019a3.171,3.171,0,0,1,.117.857v.832c-.227.018-.459.028-.694.028ZM45.6,39.841A3.844,3.844,0,1,1,49.446,36,3.848,3.848,0,0,1,45.6,39.841Zm7.443-3.111H51.036a5.428,5.428,0,0,0-.148-2.193h3.48v.869a1.325,1.325,0,0,1-1.323,1.323Z" transform="translate(-0.01 0.02)" fill-rule="evenodd"/>
</svg>
