<svg xmlns="http://www.w3.org/2000/svg" width="55.892" height="55.845" viewBox="0 0 55.892 55.845">
  <path id="Контур_276" data-name="Контур 276" d="M24.14,14.417s0-.009,0-.014V8.738A2.49,2.49,0,0,1,26.511,6.26L56.848,4.666h.033l15.326-.8.292-1.3V2.524a2.556,2.556,0,1,1,2.556,2.534A2.563,2.563,0,0,1,73.9,4.785l-.351-.176L68.129,28.833l0,.014-.892,3.986a2.233,2.233,0,0,1-2.187,1.745c-.057,0-.113,0-.17-.007l-.634-.048.841,1.218a4.752,4.752,0,0,1,.287,4.928,4.813,4.813,0,0,1-4.264,2.551H59.631v1.1l.253.043a5.784,5.784,0,1,1-6.82,5.694A5.74,5.74,0,0,1,54.548,46.2a.742.742,0,0,1,1.041-.058.728.728,0,0,1,.058,1.032,4.288,4.288,0,0,0-1.108,2.878,4.355,4.355,0,1,0,5.476-4.171l-.384-.1v1.765l.2.074a2.629,2.629,0,1,1-1.867,0l.2-.074V43.221H30.166v1.1l.253.043a5.784,5.784,0,1,1-6.82,5.694A5.74,5.74,0,0,1,25.083,46.2a.742.742,0,0,1,1.041-.057.727.727,0,0,1,.058,1.032,4.289,4.289,0,0,0-1.109,2.877,4.355,4.355,0,1,0,5.476-4.171l-.384-.1v1.765l.2.074a2.629,2.629,0,1,1-1.867,0l.2-.074V43.221H24.108a2.367,2.367,0,1,1,0-4.735H46.756a.731.731,0,1,1,0,1.462H24.108a.906.906,0,1,0,0,1.811h37a3.342,3.342,0,0,0,2.96-1.771,3.3,3.3,0,0,0-.2-3.42l-1.59-2.3-2.412-.285,2.495,3.61a1.472,1.472,0,0,1,.09,1.553,1.5,1.5,0,0,1-1.344.8H50.926a.731.731,0,1,1,0-1.462H61.191L58.437,34.5a2.366,2.366,0,0,1-.282-.553l-.063-.178-23.8-2.818-4.487-.53A6.391,6.391,0,0,1,24.14,24.1V20.294a.737.737,0,0,1,1.475,0v.783l13.258.869.576-6.709-13.834-.082v.99a.737.737,0,0,1-1.475,0V14.426a.079.079,0,0,0,0-.008ZM75.055,1.307a1.218,1.218,0,1,0,1.228,1.218,1.223,1.223,0,0,0-1.228-1.218ZM52.005,31.579l1.148-7.232L40.22,23.5l-.568,6.617,12.353,1.462Zm-26.39-9.036V24.1a4.925,4.925,0,0,0,4.362,4.872l8.211.972.561-6.54-13.134-.86Zm14.73-.5,13.037.854,1.2-7.57-13.656-.081-.583,6.8Zm29.276-6.627-13.546-.081L54.86,22.994l12.877.843,1.884-8.421ZM41.642,6.928l-.589,6.856,13.762.081,1.221-7.693-14.395.756ZM25.615,8.737v4.956l13.959.083.581-6.769-13.566.712A1.024,1.024,0,0,0,25.615,8.737ZM57.542,6.094l-1.235,7.781,13.641.081,1.928-8.615-14.334.753Zm1.292,26.293.024,0,3.914.464h0l2.175.257a.771.771,0,0,0,.846-.594l1.619-7.235L54.63,24.443l-1.16,7.308,5.363.635Zm1.216,17.668A1.155,1.155,0,1,0,58.894,51.2,1.151,1.151,0,0,0,60.049,50.055ZM29.43,51.2a1.145,1.145,0,1,0-1.155-1.145A1.152,1.152,0,0,0,29.43,51.2Z" transform="translate(-21.72 0.01)" fill-rule="evenodd"/>
</svg>
