<svg xmlns="http://www.w3.org/2000/svg" width="78.359" height="65.38" viewBox="0 0 78.359 65.38">
  <path id="Контур_289" data-name="Контур 289" d="M44.768,42.885l.029,1.087c-.039.386.018,1.467-.293,1.695a3.257,3.257,0,0,0-.218-.974c-.2-.53-.731-.411-1.308-.877a2.637,2.637,0,0,1-.433-1.29c-.179-1.06.143-.807.88-1.251.474-.286.878-1.976,2.074-2.5a5.05,5.05,0,0,1,1.258-.464,3.819,3.819,0,0,1-.728,2.517c-.521,1.054-1.259,1.257-1.259,2.053ZM10.92,33.943c0-.251.336-.9.928-.467l1.126.731a1.173,1.173,0,0,1-1.7.507.78.78,0,0,1-.354-.772Zm4.305.464c-.152,0-.077-.022-.265-.066-.035-.423-.4-.8.994-.8a.531.531,0,0,0,.94.147c.069-.093.488-.876.782-.876,1.188,0,1.813,1.59.4,1.59-.934,0-1-.331-1.258-.331-.518,0-.538.331-1.59.331Zm-7.087-1.06c.421-.629.588-.331.861-.331a6.1,6.1,0,0,0,.795-.2c.11.163.386.4.422.63s-.273.517-.485.533c-.1.008-.8-.125-.951-.148a.928.928,0,0,1-.422-.108c-.205-.131-.142-.2-.22-.376Zm2.915-2.119c.685,0,1.183.79.292,1.021-.736.19-3.239.612-3.742-.089a.553.553,0,0,1,.337-.933c1.05-.106,1.2.167,2.271.019a6.259,6.259,0,0,1,.843-.018ZM8.469,29.373c0-.218.042-.233.223-.373.111-.086.211-.158.307-.223a2.317,2.317,0,0,0,1.126.133,7.469,7.469,0,0,0,.927-.133c.415.278.437.714.883.9s1.1.052,1.531.324l1.046.742c1.352,1.358.221,2.049-.631,1.162a4.5,4.5,0,0,1-.4-.531c-.183-.251-.171-.356-.506-.421s-.577,0-.8-.194c-.69-.594-.173-1.123-1.805-.678a1.321,1.321,0,0,1-1.521.031,1.23,1.23,0,0,1-.383-.743Zm20.918-.783a.92.92,0,0,0,.145-.343c.483.04.383.626,1.391.862a1.768,1.768,0,0,1-.066.6,1.664,1.664,0,0,1-1.457-.133,6.026,6.026,0,0,0,.332-.6l-.344-.385ZM11.846,27.054c0-.453.947-.68,1.369-.045.261.392-.159.812.336.988.643.229.8-.329,1.889.761a3.7,3.7,0,0,1,.621.7c.284.461.081.781.307,1.018.255.266.7-.019.773.552.116.914.05.989-.393.989-.424,0-.744-.513-.916-.806-.325-.551-.474-1.5-1.532-1.912-.668-.259-.815.058-1.393-.329a2.5,2.5,0,0,1,.139-.664c.1-.385.161-.42-.26-.473-.289-.036-.487-.01-.661-.2a1.874,1.874,0,0,1-.278-.583Zm8.346-.464L20.33,25.4c.242-1,1.6.088,1.825,1.345.069.385-.046.849.119,1.139.224.392.9.019.9,3.074,0,.709-.012,1.126-.6,1.126-.468,0-.8-.607-.937-.984a5.428,5.428,0,0,1-.391-1.6c-.079-1.274-.106-1.472-.777-2.2a.932.932,0,0,1-.281-.713Zm-.927-1.259c0,2.139.994,3.023,1.217,3.75.307,1,.44,2.485-.308,3.32-.515.577-1.085.212-1.173-.515a14.154,14.154,0,0,1-.069-2.91,7.182,7.182,0,0,0-.781-2.268c-.3-.5-.354-.781-.94-.781-.356,0-.3.764-.284.946a2.85,2.85,0,0,0,.062.6c.233.8.777.366.989,1a3.344,3.344,0,0,1,.028,1.893.955.955,0,0,1-1.259-.727c-.086-.889.106-.732-.446-1.276a11.339,11.339,0,0,0-.887-.835,2.985,2.985,0,0,1-.852-.87c.659-1.246,1.391-.63,2.385-.861.2-.866.076-.741.92-1,.534-.165.937-.3,1.109-.879.137-.464.233-1.115.648-1.275,1.282-.495.937,1.823.585,2.111-.234.191-.942.218-.942.581Zm-3.511-2.848c-2.12,0-.92-2.119.729-2.119C17.554,20.364,16.572,22.483,15.755,22.483ZM48.278,41.693c0,.553.985.732.721,1.512-.211.624-.592.359-.721.741a13.122,13.122,0,0,1-.927,2.385c-.036.07-.4.736-.427.765a1.605,1.605,0,0,1-.9.293c-.219,0-.545-.473-.728-.6.429-.893-.16-1.114,1.251-2.194.522-.4.341-.575.549-1.77a8.227,8.227,0,0,1,.153-1.04c.3-.955.367.223.367-2.017.335-.224.519-.243.728-.464-.029-.344-.222-.444-.235-.663-.036-.624,1.828-4.48,2.1-5.618.159-.659.236-.376.811-1.11s.275-.085.5-1.419c.051-.3.1-.516.161-.832a4.842,4.842,0,0,1,1.181-2.727l1.8-2.042c.169-.218.284-.3.464-.528a12.712,12.712,0,0,0,1.848-3.053,7.722,7.722,0,0,1,.652-1.269c.167-.263.188-.363.5-.49a1.127,1.127,0,0,1,.743-.118l-.606,1.447a7.622,7.622,0,0,0-.337,1.716,6.411,6.411,0,0,1-.855,2.722,5.573,5.573,0,0,1-1.249,1.335c-.206.157-.323.305-.53.464a2.874,2.874,0,0,0-.282.248c-.137.127-.161.123-.295.235-.1.086-.136.139-.238.225-.623.526-.4.205-.652.938-.349,1.008-1.672,3.174-1.884,4.276-.3,1.552-1.3,2.716-1.578,3.522-.106.306-.153.523-.236.824a6.3,6.3,0,0,1-.768,1.284c-.143.235-.253.385-.381.613a10.53,10.53,0,0,0-.707,2.406ZM22.114,24.14c0,.152-.022.077-.066.265-.378,0-.545.032-.749-.178-.593-.609-.112-1.139-.112-1.544a3.52,3.52,0,0,0-.375-1.877,1.348,1.348,0,0,0-1.281-.839c-.924,0,.77,1.871-1.035,2.741a4.3,4.3,0,0,0-.784.342c-.506.375-.032.415-1.744,1.568-1.736,1.168-1.851.484-2.2.251-.414.11-.295.565-.855.193a.713.713,0,0,1-.272-.325l.91-.216a2.507,2.507,0,0,0,.772-.42c1-.677.922-.15,1.886-.5.436-.157,1.251-.505,1.327-.991.086-.548-.112-.594.223-.97.653-.735.576-.565.38-1.409l.932-.856c.375-.464.327-2.385,1.624-.705,1.134,1.469,1.755.246,1.949.1-.293,1.258.082,1.987-.436,2.81-.878,1.4-.094,1.477-.094,2.555Zm.53-5.5.019.019S22.637,18.648,22.644,18.642Zm-6.557-1.06c0-.745.162-.619.265-.663l.076-.02c.113.005-.005-.03.12.019.417.16.134.351,1.143.518.218.036.1-.022.261.071l.19.208c-.116.219-.053.182-.26.336-.4.3-.486.187-1.214.012-.238-.057-.579-.239-.579-.481Zm17.222,14.7.438-1.814a1.7,1.7,0,0,0,.158-.968c-.026-4.172-.12-3.128,1.749-6A12.918,12.918,0,0,1,37.7,20.517c.119-.141.15-.167.272-.323a11.154,11.154,0,0,0,.954-1.232,7.589,7.589,0,0,1,1.27-2.108A16.549,16.549,0,0,0,41.76,14.51c.271-.707-.11-.146.584-1.072a19,19,0,0,0,1.365-2.014c.387-.759.083-.508,1.058-1.195l1.392-.86c.4.832-.144,1.642-.57,2.278a5.936,5.936,0,0,1-.968,1.284,4.037,4.037,0,0,0-.583.543A12.049,12.049,0,0,0,42.8,15.618c-.264.526-.461,1-.727,1.524-.382.753-1.468,2.182-1.708,2.8a2.782,2.782,0,0,1-.395.731c-.786,1.173-1.629,2.056-2.462,3.168a9.7,9.7,0,0,0-.881,1.37c-.155.4-.1.426-.388.738a6.248,6.248,0,0,0-.482.644,2.872,2.872,0,0,0-.731,1.521l0,3.381c0,.457.091.724-.182.944a1.018,1.018,0,0,1-1.541-.15Zm-.861-1.259a1.4,1.4,0,0,1-.4.066,7.829,7.829,0,0,0-.284-.908,7.2,7.2,0,0,1-.037-2.857c.059-.562.008-1.377.093-1.96.255-1.743.289-3.185,1.341-4.753.74-1.1,1.92-1.862,2.824-3.337.917-1.5,2.171-3.526,3.2-4.948.136-.187.261-.4.388-.606a36.415,36.415,0,0,1,2.876-4.278,1.8,1.8,0,0,1,.4,1.592,4.579,4.579,0,0,1-.7,1.484,19.493,19.493,0,0,1-1.532,1.647,15.082,15.082,0,0,0-1.232,3.073c-.346.721-1.971,2.325-2.385,3.046a5.084,5.084,0,0,1-1.038,1.081A15.294,15.294,0,0,0,34.346,21c-1.393,2.29-1.026,1.1-1.511,3.854-.073.418-.133,3-.293,4.079l-.094,2.091Zm-1.59-9.936.072,1.517a3.733,3.733,0,0,1-.045,2.087,5.2,5.2,0,0,0-.226.9c0,.9.3,1.125-.4,1.59a.59.59,0,0,1-.464-.663c0-.491.464-.472.464-.663,0-.589-.408-.063-.4-1.39l-.092-3.551c-.2-.908-.484-1.021.641-2.525,1.011-1.352.624-.705,1.327-1.389.277-.27.172-.281.32-.607.206-.453.74-.422,1.224-.63.52-.224.458-.619.705-1.083.285-.534.838-.393.974-.881.292-1.042-.107-1.19,1.04-2.6,1.749-2.155.954-2.668,1.678-3.82.865-1.377,2.052-.717,2.052.132,0,.225-.515.554-.681.71-.866.812.524.407-.815,2.431-1.177,1.779-.559,2.113-1.193,2.383-.3.129-.447.332-.614.777-.068.181-.123.348-.18.549s-.078.43-.14.589a9.7,9.7,0,0,1-1.958,2.281c-.14.133-.222.232-.362.366-.462.445-1.516,1.155-1.764,1.814-.1.262-.039.228-.265.4-.156.115-.3.187-.441.287a1.038,1.038,0,0,0-.462,1ZM32.646,7.911c0,.846.143,1.445-.1,1.817-.591.887.441.841-.238,1.814-.383.549-.452.515-.452,1.138,0,.35.441.258.784-.276a6.415,6.415,0,0,0,1.024-2.486c.754-1.556,1.771.024,1.187.524-.192.164-.545.268-.545.649a2.751,2.751,0,0,1-.292,2.291,2.85,2.85,0,0,1-1.054,1c-.667.33-1.124.39-1.484.57a2.668,2.668,0,0,0-.926,1.128A17.945,17.945,0,0,0,29.2,18.771c-.16.616.084,1.42-.734,1.077-.717-.3-.721-.123-.721-1.338.609-.163.441-.646.545-1.309.123-.788,1.212-2.28,1.536-4.094a3.721,3.721,0,0,1,.16-.768,5.764,5.764,0,0,0,.758-2.091,10.025,10.025,0,0,1,.437-1.418c.289-.806.356-.577,1-.919a1.752,1.752,0,0,1,.729-1.723c.409.216.4.339.4.862,0,.9-.663.465-.663.861ZM15.357,6.918A2.057,2.057,0,0,1,17.477,5a7.366,7.366,0,0,1,2.054.33,2.12,2.12,0,0,1,.661.332c.969.656.751.133,1.258.133.386,0,1.132.967,1.446,1.2.588.444,1.093.177,1.815.9,1.2,1.2,1.788.58,2.454-.231a1.263,1.263,0,0,1,.909-.483c.181.269.565,1.23.19,1.581-.315.294-.322.084-.322.606,0,.657.025,1.393.795,1.457A1.37,1.37,0,0,0,28.6,8.839a1.694,1.694,0,0,1,.352-.973c.1-.17.467-.749.642-.749,1.082,0,.2,1.327.2,1.855,0,.594.2,1.1.2,1.656,0,1.251-1.057,1.239-1.425,2.086-.379.87.281,1.9-.893,2.683-.336-.247-.143-.518-.663-.53-.073.312-.2.31-.2.53,0,.509.53.632.53,1.192,0,.649-.235,1.591-.729,1.723-.667-.447.373-1.542-.3-2.022-1.068-.764-.92,1.547-.685,2.409.356,1.307,1.269.29,1.687,1.426a1.446,1.446,0,0,1-.012,1.263c-.816,1.277-1.155,1.276-1.155,2.489,0,1.021.636.954.666,1.652a2.05,2.05,0,0,0,.129,1c.267.47,1.259.778,1.259-.066,0-.51-.861-.667-.861-1.06,0-.488.2-.659.2-1.06a17.55,17.55,0,0,1-.155-2.273c.093-.337.406-.413.681-.579.427-.258.363-.3.865-.261.317,1.362-.133,1.884-.133,3.445,0,1.337.693,2.135-.38,2.734-.356.2-.349.462-.349.976,0,.4.14.673-.072.988-.2.291-.43.231-.724.074a3.053,3.053,0,0,1-.95-.841c-.581-.707.064-1.565-.762-2.219a1.545,1.545,0,0,1-.8-1.58c0-1.714.316-1.382.718-2.064a7.174,7.174,0,0,0,.474-2.705c0-.51-1.391-1.073-1.391.2,0,.913.207,1.608-.251,2.332a2.881,2.881,0,0,0-.544,1.642c0,.216.316.366.464.464a6.285,6.285,0,0,0,.154,1.7c.407,1.189,1.965,3.2,1.965,3.8v.265c0,.563-.747.977-1.26.964a.755.755,0,0,1-.643-.451c-.419-.893-.056-2.172-.432-2.946-.249-.511-.762-.348-1.069-1.249a8,8,0,0,1,.023-3.873,5.042,5.042,0,0,1,.491-1.761,5.45,5.45,0,0,0,.572-1.746.932.932,0,0,0-.994-.994c-.16,0-.194.107-.331.2.122-1.467.049-.639-.265-1.987-.619.014,0,.4-1.656.4a1.148,1.148,0,0,1-1.1-.552,2.882,2.882,0,0,1-.287-1.568c0-.355.734-.546,1.035-.309A1.431,1.431,0,0,0,21.712,15a3.011,3.011,0,0,1,2.056.461c.336.258.789.552,1.078.085a1.519,1.519,0,0,0,.107-.224c.424-.919.96-1.228.018-1.925a1.666,1.666,0,0,0-.872-.386,1.08,1.08,0,0,0-.712.48c-.193.395-.065.845-.546.845-.5,0-.53-.517-.53-.927.25-.059.27-.129.535-.194a1.726,1.726,0,0,0,.55-.179c1-.554.67-3.226-2.252-2.252-.309.1-.263.123-.343.387-.141.47-.15.249-.411.249-.452,0-.4,1.055-1.232-.027a6.237,6.237,0,0,0-1.144-1.24c-.142-.113-.187-.151-.325-.271s-.191-.137-.33-.266c-.586-.542-2-1.787-2-2.7Zm20,1.258a1.374,1.374,0,0,1,.53-2.186c1.005.673-.245,2.11-.53,2.186ZM22.312,3.208c-.817,1.22-.046,2.469-2.4,1.543a13.954,13.954,0,0,0-2.338-.576,6.447,6.447,0,0,0-2.213-.238c-1.139,0-.927.447-.927,2.186A4.739,4.739,0,0,0,16.417,9.7c.633.484,1.8,1.621,2.225,1.948a3.116,3.116,0,0,1,.623.768,3.018,3.018,0,0,0-.49.636,4.677,4.677,0,0,1-1.1,1.153,7.843,7.843,0,0,0-2.232,2.4c-.143.311-.231.517-.375.817-.269.559-.366,1.168-.582,1.737-.2.519-.539,1.032-.786,1.532-.127.258-.261.465-.41.716a5.011,5.011,0,0,1-.508.684,4.152,4.152,0,0,1-.59.535l-.628.565c-.107.095-.16.167-.265.265-.143.133-.19.14-.331.265-.6.537-1.152,1.158-1.783,1.662a14.719,14.719,0,0,0-1.132,1.186L6.965,27.8c-.173.212-.337.434-.484.643a3.343,3.343,0,0,0-.72,1.6c-.287.954-.857.855-1.517,1.4-.565.464-.268,2.687-.083,3.431a3.468,3.468,0,0,0,.881,1.371l1.876,1.635a4.085,4.085,0,0,0,1.622.7c1.068.236,3.816.916,4.788.095.36-.3.626-1.842,1.221-2.289s1.961-.271,2.728-.717c.918-.535.513-.542,1.639-.679l2.063-.255c.915-.13,1.342-.961,2.022-1.489.725-.563,2.294-.1,2.945-.5a3.662,3.662,0,0,0,.623-.569c1.25-1.25.991-.943,3.3-.943a3.421,3.421,0,0,1,1.636.748,2.817,2.817,0,0,1,.6.589c.369.464.341.937.887,1.5.42.43.434.087.964.228a3.446,3.446,0,0,1,1.592,1.986c.569,2.8.36,1.774,1.753,4.208.432.755-.069.312.963,1.422l.562.63c.406.4.717.867,1.093,1.291l2.88,3.082c1.327,1.435,2.789,2.786,4.174,4.172.205.205.366.518.712.546a31.879,31.879,0,0,0,.914-3.391,17.2,17.2,0,0,1,1.839-4.718l1.591-2.781c.7-1.168,3.05-5.95,3.693-7.236l2.892-5.851A2.011,2.011,0,0,0,57.6,28.1c-.88.532-.643.253-1.116,1.07a12.41,12.41,0,0,0-1.119,1.862,2.52,2.52,0,0,0-.089.64c-.049.346-.193.79-.287,1.17a16.292,16.292,0,0,1-.774,2.206c-.663,1.649-1.98,3.025-2.2,3.691-.075.221-.082.378-.16.568a8.04,8.04,0,0,1-.835,1.351l-.911,1.274a3.092,3.092,0,0,1-.705.089c-.515,0,.177-1,.292-1.165.913-1.308.366-.845.988-2.191.508-1.1,1.3-2.1,1.9-3.138l.446-.812a15.042,15.042,0,0,0,.4-1.457l.569-1.352c.646-1.628.154-1.464,1.617-3.417a8.25,8.25,0,0,1,1.823-1.953c1.487-1.3,1.605-1.052,1.936-3.1.062-.39.062-.74.127-1.131.112-.666.933-1.145.957-1.547a6.778,6.778,0,0,0-.8-2.306c-.327-.392-.468-.773-1.031-.889-.291-.059-.266,0-.346-.25l-.4-1.59h-.464a4.628,4.628,0,0,1-.385.741l-.808,1.444c-.142.274-.262.48-.419.773l-1.591,2.98c-.245.528-.052.313-.575.552-.583.266-.465.562-.668,1.585-.241,1.218-.169.67-1.16,1.158a7.47,7.47,0,0,0-1.086,1.233,1.528,1.528,0,0,0-.359.833c-.3,1.416-.961,1.382-1.95,2.62a1.946,1.946,0,0,0-.229.3L47.5,30.982a22.8,22.8,0,0,0-1.332,2.113,4.789,4.789,0,0,0-1.13,2.314c-.264.889-.132.967-.892,1.426-.511.309-.508.587-.626,1.1a1.624,1.624,0,0,0-.079.517l-.626.235c-.309.117-.26.165-.343.518-.12.516-.312.891-.423,1.365-.806.1-.815.205-1.084-.7-.522-1.76.05-1.878.967-3.453.053-.091.42-1.383.647-1.87.075-.16.128-.212.221-.376l.584-1.271a4.929,4.929,0,0,1,.775-1.742c.189-.239.359-.46.561-.7.679-.8.932-1.464,1.873-1.836.572-.225.372-.316,1-1.451l.78-1.075c.586-.626,1.368-1.07,1.973-1.67.781-.774.652-.505,1.152-2.027a9.224,9.224,0,0,1,.6-1.851c1.831-3.269,1.477-1.419,2.649-3.577a1.682,1.682,0,0,0,.287-.972,2.852,2.852,0,0,0,1.126-1.259,8.51,8.51,0,0,0-2.252-1.325,5.142,5.142,0,0,1-.508,1.015c-.11.222-.18.331-.284.511a13.985,13.985,0,0,0-1.036,2.078,2.911,2.911,0,0,1-.836,1.482c-.255.29-.461.587-.705.885a11.75,11.75,0,0,0-1.04,1.278c-.176.293-.043.222-.308.487a19.476,19.476,0,0,0-1.937,1.905,11.757,11.757,0,0,1-1.045,1.339c-.278.278-.444.515-.728.8a1.715,1.715,0,0,1-1.016.574c-.473.089-.793.171-1.283.241a13.656,13.656,0,0,1-1.461.129c-.046.549-.626,1.662-.8,2.383-.308,1.305-.393.9-1.08,2.1l-.724,2.456c-.082.411-.141.9-.259,1.33-.294,1.064-.469,1.215-.015,2.293a9.658,9.658,0,0,1,.474,2.176c.274,1.556.385,1.373-.777,1.373-.433,0-.653-1.34-.7-1.683-.16-1.136-.084-3.15-.22-4.549-.169-1.746-.424-2.1.249-3.779l.8-2.311a2.764,2.764,0,0,1,.345-.715l.863-1.257a4.407,4.407,0,0,0,.64-1.413c.258-.777.643-1.48.948-2.232.4-.994.156-.812.966-1.683.127-.137.123-.161.235-.295a5.582,5.582,0,0,0,1.41-2.763c.268-.8,1.292-.739,1.762-1.351.8-1.048.748-2.275,1.213-2.96.156-.229.829-.472,1.282-.838,1.268-1.024-.11-.879,1.467-1.713A9.383,9.383,0,0,0,46.84,8.826c-.258-.1-.518-.16-.755-.238-1.072-.352-.8-1.081-2.018-1.89s-2.782-.4-3.195-.78a4.79,4.79,0,0,0-.522-.472,3.009,3.009,0,0,0-.616-.378c-.563,0-1.03.173-1.446-.078-.853-.514-1.021-.8-2.018-.406-.343.134-.53.251-.8-.023A4.479,4.479,0,0,1,35,3.9a3.479,3.479,0,0,0-.453-.673c-.668-.585-2.993-.708-3.83-.648-.332.024-.312.365-.662.428l-3.241.137c-1.549,0-2.921.066-4.5.066ZM-.01,60.9H2.175V-.038H-.01Zm64.317-4.106h2.186V-.038H64.307Zm4.372,8.545H70.6c0-1.293.066-2.354.066-3.643v-3.71a.09.09,0,0,1,.022.045.126.126,0,0,0,.021.046l.091.306c.039.157.083.342.117.478l1.669,6.478h1.855l1.921-7.22.066,7.22h1.921v-9.8H75.368c-.247,0-.2.234-.317.677-.079.309-.147.514-.226.834-.132.532-.285,1.068-.424,1.629l-.954,3.286a4.779,4.779,0,0,0-.191-.8l-1.531-5.622H68.678v9.8Zm-59.946,0h11.79v-9.8H18.536v8.147H15.555V55.536H13.5v8.147H10.72V55.536H8.733v9.8ZM26.617,33.677V53.814H29.6V32.286c-2.215,0-1.217-.173-2.168.747C26.959,33.488,26.617,33.395,26.617,33.677ZM4.295,30.1c.382-.1.393-.579.522-.937A6.281,6.281,0,0,1,5.869,27.3c.126-.152.612-.681.612-.845V-.038H4.295V30.1ZM60,29.968V56.795h2.186V27.65c-.2.146-.56.949-.91,1.342A3.734,3.734,0,0,1,60,29.968ZM21.716,35.4V53.682H24.7V33.943c-.321.154-.656-.007-.977.083-.227.063-1.338,1.219-2,1.374ZM40.063,65.339h2.054c.187,0,.329-.336.527-.666l3.381-5.362v6.027h2.054v-9.8H45.827c-.069.294-2.849,4.727-3.218,5.327l-.491.767V55.534H40.064v9.8ZM4.295,60.9H6.481V38.976c0-.189-.761-.654-1.118-.936L4.582,37.3c-.178-.214,0-.167-.287-.242V60.9ZM55.431,36.459V53.814h2.385V32.22a6.016,6.016,0,0,0-.619,1.038c-.194.383-.391.678-.612,1.045l-.9,1.548a1.269,1.269,0,0,0-.252.609ZM8.733,24.272l1.746-1.5c.151-.127.241-.1.241-.289V-.039H8.733V24.271ZM52.318,60.239l-3.378,5.1h2.45a36.455,36.455,0,0,1,2.186-3.312l2.12,3.312h2.451c-.227-.429-.552-.861-.835-1.285l-1.271-1.908c-.2-.3-1.257-1.768-1.272-1.907s1.352-2.059,1.524-2.318a25.7,25.7,0,0,0,1.524-2.385H55.365a27.878,27.878,0,0,1-1.855,2.915c-.37-.7-1.439-2.128-1.855-2.915H49.271c.129.193.216.359.357.57l2.689,4.133ZM60,17.052c0,.19.507.661.767,1.087a4.838,4.838,0,0,1,.6,1.325,7.838,7.838,0,0,1,.289,1.565,2.064,2.064,0,0,0,.532,1.389V-.038H60V17.052ZM33.308,59.974h-.464V57.258c.954,0,2.424-.162,2.967.345a1.267,1.267,0,0,1-.475,2.214,9.9,9.9,0,0,1-2.029.157ZM30.79,65.339h2.054V61.7c1.335,0,2.928.147,4.108-.463,2.143-1.107,2.163-5.7-1.591-5.7H30.79v9.8Zm.066-11.526H32.91V35.134c-.973-.227-1.652-1.974-2.054-2.12ZM18.537,36.062V53.814h1.987V35.8c-.271.006-.726.091-1,.128A6.048,6.048,0,0,1,18.537,36.062ZM45.363,18.84c0,1.386-.449.484-.741,1.313-.475,1.35.012.984-.756,1.364-.235.116-.1.049-.278.251A3.435,3.435,0,0,0,42.382,24.4c0,1.6,1.354-.119,1.494-.228l1.1-1.015c.39-.392,1.343-.758,1.531-1.251.218-.574-.026-.688.657-1.4l.621-.77.56-1.559c.089-.374.3-.3.672-.719l1.42-2.024a4.014,4.014,0,0,1,.831-1.289c.372-.307.626-.057.9-.488.108-.167.127-.238.255-.408a1.224,1.224,0,0,0,.285-.444c-.653-.174-2.105-1.81-2.649-1.855-.441.919-.184,1.387-.945,2.168a3.78,3.78,0,0,0-.871,1.514l-.414,1.109c-.114.231-.191.2-.332.462a4.221,4.221,0,0,0-.5,1.095c-.123.468-.255.3-.768.822-.331.335-.579.688-.877.713Zm10.068-5.829a5.657,5.657,0,0,1,1.258.729l1.126.861V-.038H55.431V13.011Zm-20.2,40.67h2.649V43.215L36.5,41.282c-.552-.814-.65-1.046-1.074-1.774l-.2-.267ZM13.5,39.7V53.813h2.053V37.254c-.246.066-.424.349-.553.572-.2.337-.559,1.359-.711,1.541-.083.1.069,0-.146.12L13.5,39.7Zm8.214,17.487H24.63v8.147h2.053V57.191H29.6V55.535H21.716v1.656ZM8.733,53.813H10.72V39.837c-.7,0-1.334-.265-1.987-.265V53.813ZM49.271,8.638c0,.2.776.716,1.111,1.008l.86.73a2.788,2.788,0,0,0,.347.249V-.039H49.271V8.638Zm0,40.8v4.372h2.318V43.877a.758.758,0,0,0-.091.108,18.7,18.7,0,0,0-2.227,5.456ZM45.892,6.718A1.719,1.719,0,0,0,46.6,7.732a4.884,4.884,0,0,0,1.479.31V-.039H45.892V6.718Zm-5.829,47.1h2.054V47.718c0-.224-.823-.923-1.011-1.109a8.769,8.769,0,0,0-1.043-1.076ZM13.5,18.309a14.339,14.339,0,0,0,.913-2c.19-.323.331-.611.53-.927.238-.378.61-.693.61-.848V10.36c0-.2-.41-.51-.546-.646A15.081,15.081,0,0,1,13.5,7.644V18.309ZM59.869,60.834H66.36V58.582H59.869ZM40.063,4.134C40.97,4.346,41.305,5,41.72,5h.4V-.039H40.063V4.134ZM59.073,26.92c0,.971.729.937.729,1.126a2.565,2.565,0,0,1-.421,1.037,7.587,7.587,0,0,0-.441,1.083,6.27,6.27,0,0,0,.967-1.021,6.28,6.28,0,0,0,1.129-1.917c.292-.632,1.216-1.6,1.216-1.964,0-.669-1.224-1.963-1.412-2.3-.123-.221-.056-.214-.245-.352a23.139,23.139,0,0,0-.4,2.516c.006.68.087.813-.337,1.12-.2.147-.788.416-.788.669ZM35.228,2.412c0,.228.2.218.483.511.106.109.379.549.444.549a2.848,2.848,0,0,1,1.722,0V-.04H35.228V2.411Zm-16.692.861a7.874,7.874,0,0,1,1.987.6V-.039H18.536V3.273Zm3.18-.994a6.749,6.749,0,0,1,1.458-.066c.545,0,.92-.067,1.523-.067V-.04H21.716V2.278ZM13.5,3.6c.38-.278-.13-.433.764-.561a8.1,8.1,0,0,1,1.289-.1V-.04H13.5V3.6ZM26.617,2.146a4.787,4.787,0,0,0,.747-.049c.261-.035.509,0,.767-.028.21-.023.453-.038.729-.066.241-.024.459-.117.738-.123V-.04H26.616V2.146Zm4.239-.663h.795c.52,0,.754.066,1.259.066V-.04H30.856ZM45.892,53.811h2.186v-.994c-.184.134-.22.32-.331.53-.6-.4-1.568-1.713-1.855-1.788v2.252Z" transform="translate(0.01 0.04)" fill-rule="evenodd"/>
</svg>
