<svg xmlns="http://www.w3.org/2000/svg" width="100.576" height="48.002" viewBox="0 0 100.576 48.002">
  <g id="Слой_x0020_1" transform="translate(0.01 0)">
    <path id="aQsi-Copy-10" d="M25.729,17.756V39.395a2.912,2.912,0,0,1-2.866,2.918,2.957,2.957,0,0,1-2.811-2.368,12.13,12.13,0,0,1-7.192,2.368,12.455,12.455,0,0,1-9.192-4.02A14.232,14.232,0,0,1-.01,28.6,14.032,14.032,0,0,1,3.667,18.91a12.357,12.357,0,0,1,9.192-4.129A12.187,12.187,0,0,1,20.052,17.2a2.857,2.857,0,0,1,5.678.551Zm-7.84,16.52A8.379,8.379,0,0,0,20,28.6a8.186,8.186,0,0,0-2.108-5.672,6.631,6.631,0,0,0-5.029-2.258A6.467,6.467,0,0,0,7.83,22.932,8.145,8.145,0,0,0,5.776,28.6,8.346,8.346,0,0,0,7.83,34.275a6.754,6.754,0,0,0,5.029,2.148A6.927,6.927,0,0,0,17.889,34.275Zm53.579,4.239a2.975,2.975,0,0,1-.379-4.075A2.779,2.779,0,0,1,75.144,34a9.829,9.829,0,0,0,5.948,2.422,7.124,7.124,0,0,0,3.677-1.046,2.265,2.265,0,0,0,.973-1.652.831.831,0,0,0-.161-.551c-.055-.165-.271-.386-.7-.661a12.37,12.37,0,0,0-4.326-1.541H80.5a20.466,20.466,0,0,1-4.7-1.432,9.077,9.077,0,0,1-3.731-3.193,6.767,6.767,0,0,1-.919-3.469,7.771,7.771,0,0,1,3.19-6.056,11.485,11.485,0,0,1,6.652-2.038,13.754,13.754,0,0,1,8.11,3.028,3.078,3.078,0,0,1,.866,4.075,2.83,2.83,0,0,1-4,.77c-1.731-1.156-3.245-2.037-4.974-2.037a5.441,5.441,0,0,0-3.245.992,1.68,1.68,0,0,0-.865,1.266.6.6,0,0,0,.108.441,1.469,1.469,0,0,0,.6.551,10.881,10.881,0,0,0,3.947,1.321l.053.055h.053a19.144,19.144,0,0,1,5.029,1.6A8.436,8.436,0,0,1,90.5,30.091a7.232,7.232,0,0,1,1.027,3.634,7.981,7.981,0,0,1-3.407,6.387,12.155,12.155,0,0,1-7.029,2.2,15.551,15.551,0,0,1-9.624-3.8ZM97.647,14.837a2.882,2.882,0,0,1,2.919,3.028V39.34a2.9,2.9,0,0,1-2.919,2.973,2.934,2.934,0,0,1-2.919-2.973V17.865A2.915,2.915,0,0,1,97.647,14.837Zm2.919-8.094V7.9a2.947,2.947,0,0,1-2.919,3.028A2.982,2.982,0,0,1,94.727,7.9V6.743A2.935,2.935,0,0,1,97.647,3.77,2.9,2.9,0,0,1,100.566,6.743Z" transform="translate(0 -3.195)" fill="#0b2944" fill-rule="evenodd"/>
    <path id="Q" d="M205.522,39.263a27.825,27.825,0,0,1-6.565-4.49,21.853,21.853,0,0,1-5.407-14.407,21.428,21.428,0,0,1,5.407-14.24A18.159,18.159,0,0,1,212.475,0a17.674,17.674,0,0,1,13.41,6.126,20.733,20.733,0,0,1,5.515,14.24,21.153,21.153,0,0,1-5.515,14.407,20.852,20.852,0,0,1-6,4.36l-1.244.5C216.629,39.513,212.631,39.586,205.522,39.263Zm-5.592-18.895A14.6,14.6,0,0,0,203.66,30.3a11.661,11.661,0,0,0,8.813,3.974A12.248,12.248,0,0,0,221.4,30.3a14.587,14.587,0,0,0,3.731-9.935,14.113,14.113,0,0,0-3.731-9.826,12.1,12.1,0,0,0-8.923-4.029,11.522,11.522,0,0,0-8.813,4.029,14.106,14.106,0,0,0-3.731,9.826Z" transform="translate(-164.098 0)" fill="#0b2944" fill-rule="evenodd"/>
    <path id="Контур_287" data-name="Контур 287" d="M275.871,248.479a3.147,3.147,0,0,1,3.143,3.15c0,1.759-2.024,3.474-3.443,4.3a13.027,13.027,0,0,1-3.44,1.3,14.784,14.784,0,0,1-4.028.368,13.236,13.236,0,0,1-3.93-.784,17.238,17.238,0,0,1-1.971-.894c-.68-.3-1.349-.619-2.012-.92A17.828,17.828,0,0,0,257,253.8a4.973,4.973,0,0,0-3.064.2,45.265,45.265,0,0,0-4.064,2.151,3.142,3.142,0,0,1-4.483-2.85c0-1.759,2.024-3.474,3.443-4.3a13.025,13.025,0,0,1,3.44-1.3,14.784,14.784,0,0,1,4.028-.368,13.235,13.235,0,0,1,3.93.784,17.242,17.242,0,0,1,1.971.894c.68.3,1.349.619,2.012.92a17.828,17.828,0,0,0,3.189,1.185,4.974,4.974,0,0,0,3.064-.2,45.236,45.236,0,0,0,4.064-2.151A3.125,3.125,0,0,1,275.871,248.479Z" transform="translate(-208.047 -209.602)" fill="#1892ff" fill-rule="evenodd"/>
  </g>
</svg>
