<svg width="56" height="56" viewBox="0 0 56 56" fill="none" xmlns="http://www.w3.org/2000/svg">
<path d="M1.35416 34.8957C1.66127 35.1089 1.98558 35.2962 2.32373 35.4557C2.72664 35.6625 3.40102 36.0072 3.45166 36.2495C3.51114 36.5684 3.47361 36.8978 3.34393 37.1951C3.20496 37.4935 3.05952 37.7509 2.93348 37.9716C2.59197 38.5759 2.01993 39.5872 2.88177 40.2916C3.08322 40.4779 3.43119 40.7482 3.74899 40.9916C3.51508 41.4002 3.40925 41.8696 3.44519 42.339C3.46965 42.5219 3.53142 42.6978 3.62667 42.8558C3.72192 43.0138 3.84862 43.1506 3.99892 43.2577C4.20576 43.4031 4.42984 43.5302 4.6453 43.654C5.19795 43.9675 5.41341 44.1139 5.48559 44.408C5.53734 44.7837 5.50533 45.1662 5.39187 45.5281C5.33692 45.7769 5.28414 46.0278 5.25182 46.2744C5.15832 47.125 5.26265 47.9857 5.55669 48.7893C5.76107 49.5117 6.19261 50.1491 6.78747 50.6073C7.38232 51.0654 8.10889 51.32 8.85968 51.3332C9.1171 51.3326 9.37377 51.3056 9.62564 51.2525C12.2929 50.6202 14.9213 49.8338 17.4974 48.897C19.6014 50.1313 20.9297 53.8836 21.2755 55.2913C21.3258 55.4938 21.4425 55.6735 21.6069 55.802C21.7713 55.9304 21.974 56.0001 22.1826 56L45.617 55.9343C45.7635 55.9339 45.9078 55.8992 46.0383 55.8328C46.1688 55.7664 46.2819 55.6702 46.3684 55.5521C46.4549 55.4339 46.5124 55.2971 46.5363 55.1527C46.5602 55.0082 46.5497 54.8602 46.5058 54.7205C46.275 54.0879 45.9566 53.4908 45.5599 52.9466C45.3359 52.6239 45.134 52.2864 44.9556 51.9364C44.5329 51.0811 44.1805 50.1928 43.902 49.2804C43.3689 47.4774 42.9993 45.63 42.7977 43.7607C42.554 41.5989 42.7605 39.41 43.4043 37.3319H45.7291C46.4719 37.3319 47.1844 37.0369 47.7096 36.5117C48.2349 35.9866 48.53 35.2743 48.53 34.5316V22.4022C48.53 22.1545 48.4316 21.917 48.2565 21.7419C48.0813 21.5668 47.8437 21.4684 47.596 21.4684H43.8266C43.8484 21.3139 43.8596 21.1581 43.86 21.002C43.86 20.1355 43.5156 19.3045 42.9028 18.6918C42.2899 18.0791 41.4587 17.7349 40.592 17.7349C39.7253 17.7349 38.894 18.0791 38.2812 18.6918C37.6683 19.3045 37.324 20.1355 37.324 21.002C37.3244 21.1581 37.3356 21.3139 37.3574 21.4684H34.5252V18.6326C35.0411 18.7062 35.5672 18.6567 36.0603 18.4882C36.8233 18.2183 37.4591 17.675 37.8444 16.9634C38.2297 16.2518 38.3373 15.4226 38.1462 14.6363C37.9552 13.85 37.4791 13.1625 36.8102 12.707C36.1412 12.2515 35.327 12.0603 34.5252 12.1704V8.40081C34.5252 8.15315 34.4268 7.91564 34.2516 7.74052C34.0765 7.56541 33.8389 7.46703 33.5912 7.46703H21.4544C20.7115 7.46703 19.9991 7.76205 19.4738 8.28721C18.9485 8.81236 18.6534 9.52462 18.6534 10.2673V34.5359C18.6534 35.2786 18.9485 35.9909 19.4738 36.516C19.9991 37.0412 20.7115 37.3362 21.4544 37.3362H41.4425C40.8549 39.5027 40.6859 41.7614 40.9448 43.9912C41.1601 45.9732 41.5531 47.932 42.119 49.8437C42.4264 50.8472 42.8141 51.8244 43.2782 52.7657C43.4913 53.1885 43.7332 53.5962 44.0022 53.986L44.0646 54.0797L22.8882 54.1389C22.2683 51.9248 21.1432 49.8846 19.6014 48.1786L20.4417 47.8846C21.0676 47.6692 21.5384 47.5023 21.7808 47.4247C25.7808 46.1571 27.7748 44.3369 27.7264 42.004C27.7265 41.8795 27.7016 41.7562 27.6533 41.6414C27.605 41.5266 27.5343 41.4226 27.4452 41.3356C27.3561 41.2485 27.2505 41.1802 27.1346 41.1345C27.0187 41.0889 26.8948 41.0669 26.7703 41.0698C26.6457 41.0728 26.523 41.1006 26.4094 41.1517C26.2958 41.2027 26.1935 41.276 26.1087 41.3672C26.0238 41.4583 25.958 41.5655 25.9152 41.6825C25.8724 41.7995 25.8534 41.9238 25.8594 42.0482C25.882 43.0089 25.0945 44.4101 21.2141 45.6368C20.9609 45.7176 20.474 45.8878 19.8266 46.114C19.1328 46.3563 18.2505 46.6643 17.2777 46.995H17.2712C14.645 47.9591 11.9652 48.7707 9.24536 49.4258C8.82727 49.5051 8.39471 49.42 8.03785 49.1883C7.68099 48.9565 7.42739 48.596 7.32992 48.1819C7.13182 47.6506 7.05812 47.081 7.11446 46.5168C7.13924 46.3208 7.18341 46.1269 7.22219 45.932C7.41138 45.2853 7.43765 44.6019 7.29868 43.9427C7.16444 43.519 6.94053 43.1291 6.64218 42.7996C6.34383 42.4701 5.97802 42.2087 5.56962 42.0331L5.37678 41.9254C5.47769 41.7218 5.5982 41.5284 5.7366 41.3481C5.81403 41.2499 5.87092 41.1371 5.9039 41.0164C5.93689 40.8958 5.94529 40.7697 5.92861 40.6458C5.91193 40.5218 5.87051 40.4024 5.8068 40.2948C5.7431 40.1871 5.65841 40.0934 5.55777 40.0191C5.33369 39.8543 4.80366 39.459 4.41907 39.1478C4.46431 39.067 4.51279 38.9765 4.55912 38.8957C4.70563 38.6394 4.87261 38.34 5.03636 37.9953C5.33176 37.3409 5.41864 36.6114 5.28521 35.9059C5.06114 34.7675 3.96984 34.2085 3.17479 33.8025C2.90618 33.6749 2.64855 33.5254 2.40452 33.3555C2.20584 33.2215 2.01945 33.0701 1.84756 32.9032C1.84756 32.761 1.99946 32.4174 2.7094 31.5526C4.3808 29.4 5.81372 27.0726 6.98303 24.6111C7.20199 24.2255 7.32537 23.793 7.34285 23.3499C7.29528 22.8861 7.14896 22.4379 6.91371 22.0353C6.67847 21.6328 6.35975 21.2852 5.97899 21.016C5.60517 20.6692 5.24643 20.3429 5.20442 20.0392C5.21052 19.8188 5.25993 19.6018 5.34985 19.4005C5.50175 18.9998 5.67304 18.6078 5.85403 18.2158C6.23706 17.4263 6.54299 16.6018 6.76757 15.7537L6.8613 15.3562C7.06075 14.4231 7.31727 13.503 7.62941 12.6012C8.36562 10.5705 9.50529 8.70974 10.9798 7.13099C12.766 5.24189 15.5766 3.89991 19.3493 3.15569C22.2309 2.52251 25.1549 2.10062 28.098 1.89341C32.3528 1.6806 36.565 2.82571 40.126 5.16327V6.06689C40.1262 6.24021 40.1746 6.41007 40.2658 6.55746C40.3571 6.70484 40.4875 6.82394 40.6426 6.9014C40.7977 6.97887 40.9713 7.01166 41.1439 6.99609C41.3166 6.98053 41.4815 6.91722 41.6203 6.81327C41.9145 6.60574 42.276 6.51605 42.6332 6.56191C42.9904 6.60777 43.3174 6.78585 43.5497 7.06099C43.6836 7.22844 43.7774 7.42426 43.8241 7.6335C43.8708 7.84274 43.869 8.05987 43.819 8.26833C43.7651 8.49455 43.6549 8.70352 43.4988 8.87595C43.3428 9.04838 43.1457 9.17871 42.9259 9.25489C42.7074 9.33193 42.4733 9.35395 42.2443 9.31901C42.0152 9.28407 41.7983 9.19324 41.6127 9.05456C41.474 8.95245 41.3097 8.89069 41.138 8.87611C40.9664 8.86153 40.794 8.89469 40.6401 8.97194C40.4861 9.04919 40.3565 9.16751 40.2656 9.31382C40.1747 9.46012 40.126 9.62871 40.125 9.80094V14.0013C40.125 14.2467 40.1734 14.4897 40.2674 14.7164C40.3614 14.943 40.4992 15.1489 40.6729 15.3223C40.8466 15.4957 41.0528 15.6331 41.2797 15.7267C41.5066 15.8203 41.7497 15.8683 41.9952 15.8678H46.1966C46.37 15.8677 46.5399 15.8193 46.6873 15.7281C46.8347 15.6369 46.9538 15.5065 47.0313 15.3514C47.1088 15.1964 47.1416 15.0228 47.126 14.8502C47.1105 14.6776 47.0471 14.5127 46.9432 14.374C46.7871 14.166 46.6921 13.9186 46.6687 13.6597C46.6454 13.4007 46.6946 13.1403 46.8109 12.9078C46.9272 12.6752 47.106 12.4796 47.3273 12.3429C47.5485 12.2062 47.8035 12.1338 48.0636 12.1338C48.3236 12.1338 48.5786 12.2062 48.7998 12.3429C49.0211 12.4796 49.1999 12.6752 49.3162 12.9078C49.4325 13.1403 49.4817 13.4007 49.4584 13.6597C49.435 13.9186 49.34 14.166 49.1839 14.374C49.08 14.5127 49.0167 14.6776 49.0011 14.8502C48.9855 15.0228 49.0183 15.1964 49.0958 15.3514C49.1733 15.5065 49.2924 15.6369 49.4398 15.7281C49.5872 15.8193 49.7571 15.8677 49.9305 15.8678H55.066C55.1886 15.8678 55.3101 15.8437 55.4234 15.7968C55.5367 15.7498 55.6397 15.681 55.7264 15.5943C55.8132 15.5076 55.882 15.4047 55.9289 15.2914C55.9758 15.1781 56 15.0567 56 14.9341V2.80027C56 2.05759 55.7049 1.34533 55.1796 0.82018C54.6543 0.295027 53.9419 0 53.199 0L41.0601 0C40.8123 0 40.5748 0.0983803 40.3996 0.273498C40.2244 0.448617 40.126 0.686128 40.126 0.933782V2.92844C36.4477 0.820542 32.2408 -0.185869 28.0065 0.0290797C24.9686 0.238713 21.9502 0.670681 18.9755 1.32151C14.7654 2.16159 11.7059 3.63712 9.6181 5.84502C7.96985 7.60807 6.69567 9.68647 5.87234 11.955C5.53574 12.9302 5.25908 13.9251 5.0439 14.9341L4.95017 15.3282C4.7509 16.0602 4.48364 16.772 4.1519 17.4543C3.96553 17.8851 3.77054 18.3051 3.60355 18.7467C3.38862 19.2371 3.30365 19.7746 3.35685 20.3073C3.54555 21.1445 4.02977 21.8855 4.72071 22.3946C5.17748 22.8125 5.47482 23.1076 5.4802 23.3639C5.44689 23.5058 5.39357 23.6421 5.32184 23.7689C4.20366 26.1223 2.83398 28.3479 1.23674 30.4066C0.857899 30.7587 0.553323 31.1829 0.34093 31.6544C0.128538 32.1258 0.0126207 32.635 0 33.152C0.0984883 33.518 0.268971 33.8607 0.501482 34.1601C0.733992 34.4595 1.02387 34.7096 1.35416 34.8957ZM20.5203 10.2673C20.5203 10.0196 20.6187 9.78213 20.7939 9.60701C20.9691 9.43189 21.2066 9.33351 21.4544 9.33351H32.6582V13.5339C32.6584 13.7072 32.7068 13.8771 32.798 14.0245C32.8892 14.1719 33.0197 14.291 33.1748 14.3684C33.3299 14.4459 33.5035 14.4787 33.6761 14.4631C33.8488 14.4476 34.0137 14.3842 34.1524 14.2803C34.4467 14.0728 34.8082 13.9831 35.1654 14.0289C35.5226 14.0748 35.8496 14.2529 36.0819 14.528C36.2158 14.6955 36.3096 14.8913 36.3563 15.1005C36.403 15.3098 36.4012 15.5269 36.3512 15.7354C36.2972 15.9616 36.1871 16.1705 36.031 16.343C35.8749 16.5154 35.6779 16.6457 35.4581 16.7219C35.239 16.7987 35.0042 16.8202 34.7748 16.7845C34.5453 16.7488 34.3282 16.657 34.1427 16.5173C34.0035 16.4154 33.8387 16.3541 33.6667 16.3401C33.4948 16.3262 33.3223 16.3601 33.1684 16.4382C33.0145 16.5163 32.8853 16.6355 32.7951 16.7825C32.7048 16.9295 32.6571 17.0987 32.6572 17.2712V21.4716H29.8217C29.8941 20.9564 29.8443 20.4314 29.6763 19.939C29.4241 19.2086 28.9211 18.5912 28.2566 18.1965C27.5921 17.8018 26.8092 17.6554 26.047 17.7833C25.2847 17.9112 24.5925 18.305 24.0933 18.8949C23.594 19.4848 23.3201 20.2325 23.3202 21.0053C23.3206 21.1613 23.3318 21.3171 23.3536 21.4716H20.5203V10.2673ZM20.5203 34.5359V23.3349H24.7218C24.8952 23.3347 25.0651 23.2863 25.2125 23.1951C25.3599 23.1039 25.479 22.9735 25.5565 22.8184C25.634 22.6634 25.6668 22.4898 25.6512 22.3172C25.6357 22.1446 25.5723 21.9797 25.4684 21.841C25.2951 21.61 25.1976 21.331 25.1891 21.0424C25.1806 20.7537 25.2616 20.4695 25.421 20.2287C25.5804 19.9879 25.8103 19.8022 26.0793 19.6971C26.3484 19.5921 26.6433 19.5727 26.9238 19.6417C27.1501 19.6954 27.3591 19.8054 27.5314 19.9615C27.7038 20.1176 27.8338 20.3147 27.9095 20.5346C27.9869 20.7535 28.0086 20.9882 27.9726 21.2176C27.9367 21.4469 27.8443 21.6638 27.7037 21.8486C27.6015 21.9878 27.5399 22.1526 27.5258 22.3247C27.5117 22.4968 27.5456 22.6695 27.6237 22.8235C27.7019 22.9775 27.8212 23.1068 27.9685 23.1971C28.1157 23.2874 28.2851 23.3351 28.4579 23.3349H32.6593V26.1717C32.1947 26.1027 31.7207 26.1345 31.2695 26.2652C30.8183 26.3959 30.4006 26.6222 30.0449 26.9289C29.6892 27.2356 29.4038 27.6153 29.2081 28.0422C29.0125 28.4691 28.9112 28.9332 28.9112 29.4028C28.9112 29.8724 29.0125 30.3365 29.2081 30.7634C29.4038 31.1904 29.6892 31.5701 30.0449 31.8768C30.4006 32.1834 30.8183 32.4098 31.2695 32.5405C31.7207 32.6711 32.1947 32.703 32.6593 32.6339V35.4676H21.4554C21.2079 35.4678 20.9704 35.3699 20.795 35.1952C20.6197 35.0205 20.5209 34.7834 20.5203 34.5359ZM34.007 30.4292C33.8511 30.3528 33.677 30.3211 33.5041 30.3377C33.3313 30.3542 33.1664 30.4184 33.0277 30.5229C32.8197 30.6789 32.5723 30.774 32.3132 30.7973C32.0542 30.8207 31.7938 30.7714 31.5611 30.6551C31.3285 30.5389 31.1329 30.3601 30.9961 30.1389C30.8594 29.9177 30.787 29.6628 30.787 29.4028C30.787 29.1428 30.8594 28.8879 30.9961 28.6667C31.1329 28.4455 31.3285 28.2668 31.5611 28.1505C31.7938 28.0342 32.0542 27.985 32.3132 28.0083C32.5723 28.0317 32.8197 28.1267 33.0277 28.2827C33.1665 28.3867 33.3314 28.45 33.5041 28.4655C33.6767 28.4811 33.8503 28.4483 34.0054 28.3709C34.1605 28.2934 34.2909 28.1743 34.3822 28.0269C34.4734 27.8795 34.5218 27.7097 34.5219 27.5363V23.3359H38.7234C38.8968 23.3358 39.0667 23.2874 39.2141 23.1962C39.3615 23.105 39.4806 22.9746 39.5581 22.8195C39.6356 22.6645 39.6684 22.4909 39.6528 22.3183C39.6373 22.1457 39.5739 21.9808 39.47 21.8421C39.3139 21.6341 39.2189 21.3867 39.1955 21.1278C39.1722 20.8688 39.2214 20.6084 39.3377 20.3759C39.454 20.1433 39.6328 19.9477 39.8541 19.811C40.0753 19.6743 40.3303 19.6019 40.5904 19.6019C40.8504 19.6019 41.1054 19.6743 41.3266 19.811C41.5479 19.9477 41.7267 20.1433 41.843 20.3759C41.9593 20.6084 42.0085 20.8688 41.9852 21.1278C41.9618 21.3867 41.8668 21.6341 41.7107 21.8421C41.6068 21.9808 41.5434 22.1457 41.5279 22.3183C41.5123 22.4909 41.5451 22.6645 41.6226 22.8195C41.7001 22.9746 41.8192 23.105 41.9666 23.1962C42.114 23.2874 42.2839 23.3358 42.4573 23.3359H46.6588V34.537C46.6588 34.7847 46.5604 35.0222 46.3852 35.1973C46.21 35.3724 45.9725 35.4708 45.7248 35.4708H34.5209V31.2704C34.5222 31.0962 34.4748 30.9252 34.384 30.7765C34.2932 30.6279 34.1626 30.5076 34.007 30.4292ZM41.9952 1.86649H53.199C53.4467 1.86649 53.6843 1.96487 53.8595 2.13999C54.0346 2.3151 54.133 2.55261 54.133 2.80027V14.0013H51.2965C51.3184 13.8468 51.3295 13.691 51.3299 13.535C51.3299 12.6685 50.9856 11.8375 50.3728 11.2248C49.7599 10.6121 48.9287 10.2678 48.0619 10.2678C47.1952 10.2678 46.364 10.6121 45.7511 11.2248C45.1383 11.8375 44.794 12.6685 44.794 13.535C44.7947 13.6911 44.8062 13.8469 44.8284 14.0013H41.9952V11.1688C42.5111 11.2424 43.0371 11.1929 43.5303 11.0244C44.3013 10.7605 44.9459 10.2181 45.3376 9.50362C45.7294 8.78914 45.84 7.95412 45.6478 7.16233C45.4556 6.37054 44.9744 5.67909 44.2987 5.2236C43.623 4.7681 42.8014 4.58141 41.9952 4.70014V1.86649Z" fill="#0DB14B"/>
<path d="M10.4024 16.6034L10.4961 16.1985C10.6618 15.4185 10.8718 14.6486 11.1252 13.8926C11.6868 12.3325 12.5607 10.9032 13.6935 9.69217C14.4211 8.9633 15.2844 8.38407 16.2348 7.98723C16.3514 7.94029 16.4574 7.8703 16.5463 7.78145C16.6352 7.69261 16.7052 7.58674 16.7522 7.47018C16.7992 7.35362 16.8222 7.22878 16.8198 7.10313C16.8174 6.97748 16.7896 6.85361 16.7382 6.73895C16.6868 6.62428 16.6127 6.52117 16.5205 6.43579C16.4282 6.35042 16.3197 6.28454 16.2014 6.24211C16.083 6.19967 15.9574 6.18155 15.8319 6.18882C15.7064 6.1961 15.5837 6.22863 15.471 6.28445C14.2977 6.78302 13.2342 7.50806 12.3415 8.41804C11.0341 9.81289 10.0252 11.4599 9.37678 13.2582C9.09494 14.0861 8.86184 14.9298 8.67869 15.7849L8.58497 16.1953C8.54738 16.3182 8.5356 16.4476 8.55036 16.5753C8.56512 16.703 8.6061 16.8263 8.67074 16.9375C8.73537 17.0486 8.82227 17.1452 8.92598 17.2212C9.0297 17.2973 9.148 17.351 9.27347 17.3792C9.39895 17.4074 9.52889 17.4094 9.65516 17.385C9.78143 17.3607 9.90131 17.3105 10.0073 17.2377C10.1133 17.1648 10.2031 17.0709 10.271 16.9618C10.339 16.8527 10.3837 16.7307 10.4024 16.6034Z" fill="#0DB14B"/>
<path d="M8.38238 20.5357C8.89822 20.5357 9.3164 20.1176 9.3164 19.6019C9.3164 19.0862 8.89822 18.6681 8.38238 18.6681C7.86654 18.6681 7.44836 19.0862 7.44836 19.6019C7.44836 20.1176 7.86654 20.5357 8.38238 20.5357Z" fill="#0DB14B"/>
</svg>
