<svg xmlns="http://www.w3.org/2000/svg" width="19" height="19" viewBox="0 0 19 19">
  <path id="ic_add_shopping_cart_24px" d="M6.655,17.2A1.9,1.9,0,1,0,8.54,19.1,1.89,1.89,0,0,0,6.655,17.2Zm9.425,0a1.9,1.9,0,1,0,1.885,1.9A1.89,1.89,0,0,0,16.079,17.2ZM6.815,14.113,6.843,14l.848-1.549h7.021a1.874,1.874,0,0,0,1.649-.978L20,4.812,19.087,3.9H7.748V5.8h9.566l-2.6,4.75H8.1l-.123-.257L5.863,5.8l-.9-1.9L4.082,2H1V3.9H2.885l3.393,7.211L5.005,13.438a1.848,1.848,0,0,0-.236.912,1.9,1.9,0,0,0,1.885,1.9h11.31v-1.9H7.051A.24.24,0,0,1,6.815,14.113Z" transform="translate(-1 -2)"/>
</svg>
