<svg id="books-stack-of-three" xmlns="http://www.w3.org/2000/svg" width="103" height="80" viewBox="0 0 103 80">
  <g id="Сгруппировать_79" data-name="Сгруппировать 79" transform="translate(0 0)">
    <path id="Контур_69" data-name="Контур 69" d="M95.651,60.926c-.417-3.115-.475-8.481,2.433-10.283a1.089,1.089,0,0,0,.136-.122c2.378-.757,4.023-1.819,2.731-3.248L65.878,36.758,9.086,44.614s-6.5.925-5.922,10.978c.315,5.472,2.04,8.159,3.549,9.481l-4.66,1.4C.758,67.9,2.4,68.963,4.781,69.718a.938.938,0,0,0,.136.123c2.906,1.8,2.85,7.169,2.432,10.285C-3.091,83.076.657,84.037.657,84.037l2.29.551c-1.611,1.449-3.211,4.2-2.911,9.4.581,10.052,5.923,10.745,5.923,10.745l37.165,12.019,56.1-13.519s3.749-.963-6.695-3.913c-.42-3.111-.478-8.476,2.435-10.284a.857.857,0,0,0,.136-.121c2.378-.757,4.022-1.818,2.73-3.247l-2.438-.733c1.626-.976,4.069-3.526,4.451-10.149.264-4.556-.93-7.224-2.313-8.8l4.819-1.16S106.094,63.876,95.651,60.926ZM48.731,60.8l9.433-1.929L90.043,52.35l4.749-.972c-1.518,2.764-1.454,6.546-1.2,8.977.055.55.118,1.052.18,1.434l-5.2,1.286-40.236,9.96ZM8.21,70.579l4.749.972,30.615,6.262,2.675.545h0L54.269,80l.4,12.237L13.31,82,9.234,80.99c.06-.382.123-.884.181-1.435C9.664,77.126,9.729,73.343,8.21,70.579ZM6.365,55.109c-.057-2.674.421-4.608,1.389-5.591A2.53,2.53,0,0,1,9.6,48.76a3.14,3.14,0,0,1,.466.036l24.47,7.938,12.209,3.96-.4,12.323L12.09,63.463l-1.807-.5a1.1,1.1,0,0,0-.226-.035C9.916,62.914,6.53,62.6,6.365,55.109Zm36.847,56.31L7.156,101.361a1.077,1.077,0,0,0-.225-.035c-.144-.009-3.531-.319-3.7-7.813-.058-2.677.423-4.61,1.389-5.593a2.535,2.535,0,0,1,1.842-.758,3.272,3.272,0,0,1,.467.035h0L43.61,99.1ZM90.459,98.755c.057.552.12,1.053.182,1.435L45.205,111.437,45.6,99.2l9.714-1.987,1.435.345,5.377-1.739,24.785-5.068,4.751-.973C90.145,92.542,90.208,96.326,90.459,98.755Zm2.5-16.631a.877.877,0,0,0-.243.037l-3.427.955-32.629,9.1-.4-12.323L66.97,76.423l25.921-8.411a2.71,2.71,0,0,1,2.362.708c.966.983,1.446,2.917,1.389,5.591C96.473,81.8,93.085,82.115,92.962,82.124Z" transform="translate(0.001 -36.758)"/>
  </g>
</svg>
