<svg xmlns="http://www.w3.org/2000/svg" width="54" height="54" viewBox="0 0 54 54">
  <g id="Слой_x0020_1" transform="translate(0.01 0.01)">
    <g id="_1023456992" transform="translate(-0.01 -0.01)">
      <g id="Сгруппировать_225" data-name="Сгруппировать 225" transform="translate(0 0)">
        <path id="Контур_147" data-name="Контур 147" d="M53.09,44.99h-1.8v-.9a2.7,2.7,0,0,0-1.8-2.534V23.224a2.7,2.7,0,0,0,1.8-2.534v-.9a2.7,2.7,0,0,0,0-5.4h-.645L27.462.123a.9.9,0,0,0-.944,0L3.335,14.39H2.69a2.7,2.7,0,1,0,0,5.4v.9a2.7,2.7,0,0,0,1.8,2.534V41.556a2.7,2.7,0,0,0-1.8,2.534v.9H.89a.9.9,0,0,0-.9.9v7.2a.9.9,0,0,0,.9.9h52.2a.9.9,0,0,0,.9-.9v-7.2a.9.9,0,0,0-.9-.9Zm-3.6-24.3a.9.9,0,0,1-.9.9h-3.6a.9.9,0,0,1-.9-.9v-.9h5.4v.9Zm-.9,22.5a.9.9,0,0,1,.9.9v.9h-5.4v-.9a.9.9,0,0,1,.9-.9h3.6Zm-2.7-1.8v-18h1.8v18Zm-43.2-23.4a.9.9,0,1,1,0-1.8h6.3v-1.8H6.77L26.989,1.949l20.22,12.443H14.39v1.8h36.9a.9.9,0,1,1,0,1.8Zm18,23.565V23.225a2.7,2.7,0,0,0,1.8-2.534v-.9h9v.9a2.7,2.7,0,0,0,1.8,2.534V41.557a2.7,2.7,0,0,0-1.8,2.534v.9h-9v-.9a2.7,2.7,0,0,0-1.8-2.534Zm-.9,1.635a.9.9,0,0,1,.9.9v.9h-5.4v-.9a.9.9,0,0,1,.9-.9h3.6Zm-2.7-1.8v-18h1.8v18Zm2.7-19.8h-3.6a.9.9,0,0,1-.9-.9v-.9h5.4v.9a.9.9,0,0,1-.9.9Zm13.5,22.5a.9.9,0,0,1,.9-.9h3.6a.9.9,0,0,1,.9.9v.9h-5.4v-.9Zm1.8-2.7v-18h1.8v18Zm2.7-19.8h-3.6a.9.9,0,0,1-.9-.9v-.9h5.4v.9a.9.9,0,0,1-.9.9Zm-32.4,0a.9.9,0,0,1-.9-.9v-.9h5.4v.9a.9.9,0,0,1-.9.9h-3.6Zm2.7,1.8v18h-1.8v-18Zm-3.6,20.7a.9.9,0,0,1,.9-.9h3.6a.9.9,0,0,1,.9.9v.9H4.49v-.9Zm7.2,8.1h-9.9v-5.4h9.9Zm-1.8-10.634V23.225a2.7,2.7,0,0,0,1.8-2.534v-.9h1.8v.9a2.7,2.7,0,0,0,1.8,2.534V41.557a2.7,2.7,0,0,0-1.8,2.534v.9h-1.8v-.9A2.7,2.7,0,0,0,9.888,41.557Zm30.6,10.634h-27v-1.8h21.6v-1.8h-21.6v-1.8h27v5.4Zm-1.8-10.634V23.225a2.7,2.7,0,0,0,1.8-2.534v-.9h1.8v.9a2.7,2.7,0,0,0,1.8,2.534V41.557a2.7,2.7,0,0,0-1.8,2.534v.9h-1.8v-.9A2.7,2.7,0,0,0,38.687,41.557Zm13.5,10.634h-9.9v-5.4h9.9Z" transform="translate(0.01 0.01)"/>
      </g>
    </g>
    <g id="_1023490304" transform="translate(23.39 5.391)">
      <g id="Сгруппировать_226" data-name="Сгруппировать 226">
        <path id="Контур_148" data-name="Контур 148" d="M203.71,46.18a3.6,3.6,0,1,0,3.6,3.6A3.6,3.6,0,0,0,203.71,46.18Zm0,5.4a1.8,1.8,0,1,1,1.8-1.8A1.8,1.8,0,0,1,203.71,51.58Z" transform="translate(-200.11 -46.18)"/>
      </g>
    </g>
    <circle id="Эллипс_1" data-name="Эллипс 1" cx="0.9" cy="0.9" r="0.9" transform="translate(13.491 14.391)"/>
  </g>
</svg>
