<svg xmlns="http://www.w3.org/2000/svg" width="56" height="56" viewBox="0 0 56 56">
  <path id="burger_x0020__x0028_2_x0029_.svg" d="M2.816,39.607V37.395c0-.133.009-.265.022-.4a4.03,4.03,0,0,1-.565-.435,3.569,3.569,0,0,1-1.162-2.689,3.88,3.88,0,0,1,.847-2.427,3.04,3.04,0,0,1-.648-1.926A2.956,2.956,0,0,1,3.169,26.79a3.959,3.959,0,0,1-.343-1.621v-.644A3.163,3.163,0,0,1,.01,21.291,21.04,21.04,0,0,1,4.294,9.586a21.988,21.988,0,0,1,8.47-6.676A36.519,36.519,0,0,1,28.01,0c7.459,0,13.619,1.547,18.308,4.589A.916.916,0,0,1,46.6,5.8a.791.791,0,0,1-1.128.3C41.038,3.221,35.164,1.763,28.01,1.76a34.995,34.995,0,0,0-14.6,2.766A20.348,20.348,0,0,0,5.569,10.7a19.034,19.034,0,0,0-3.916,10.6,1.438,1.438,0,0,0,1.385,1.483H52.981a1.438,1.438,0,0,0,1.385-1.483,16.819,16.819,0,0,0-.966-5.013,19.3,19.3,0,0,0-4.968-7.845.923.923,0,0,1-.065-1.242.785.785,0,0,1,1.16-.07,21.1,21.1,0,0,1,6.483,14.17,3.163,3.163,0,0,1-2.816,3.233v.644a3.962,3.962,0,0,1-.349,1.634,2.84,2.84,0,0,1,1.076.734,3.01,3.01,0,0,1,.788,2.1,3.06,3.06,0,0,1-.625,1.816,3.881,3.881,0,0,1,.846,2.426,3.569,3.569,0,0,1-1.162,2.689,4.07,4.07,0,0,1-.6.458c.012.123.019.248.019.372v2.21a3.162,3.162,0,0,1,2.826,3.234C56.01,50.1,50.494,56,43.716,56H12.3C5.526,56,.01,50.1.01,42.839a3.164,3.164,0,0,1,2.807-3.232Zm.532-4.373a4.453,4.453,0,0,0,3.614.759,5.646,5.646,0,0,0,2.175-.8c.134-.076.269-.152.41-.227L7.681,32.929a1.215,1.215,0,0,0-.89-.4H4.118a2.6,2.6,0,0,1-.751-.111,2.021,2.021,0,0,0-.612,1.459,1.783,1.783,0,0,0,.593,1.357h0Zm48.2-10.7H4.469v.635a2.047,2.047,0,0,0,.809,1.649l.042.03c.035.025.071.048.107.07l.038.023q.07.04.143.074l.008,0a1.747,1.747,0,0,0,.167.065l.019.006q.071.023.145.04l.046.01c.042.008.085.016.128.021l.048.006a1.71,1.71,0,0,0,.175.01H49.677A1.946,1.946,0,0,0,51.55,25.17v-.636Zm1.2,4.235a1.158,1.158,0,0,0-.846-.383h-.4a3.329,3.329,0,0,1-1.826.548H6.344c-.073,0-.145,0-.217-.008l-.068-.005c-.05,0-.1-.01-.151-.017l-.074-.01c-.064-.01-.128-.022-.19-.035l-.079-.019c-.043-.011-.086-.022-.129-.034l-.1-.029-.1-.035-.1-.035c-.056-.022-.111-.046-.166-.07l-.1-.048-.091-.047-.1-.053c-.036-.021-.071-.043-.107-.064l-.065-.039H4.067a1.158,1.158,0,0,0-1.113,1.169,1.213,1.213,0,0,0,.652,1.086h0a1.1,1.1,0,0,0,.511.129H6.791a2.815,2.815,0,0,1,2.062.926l3.33,3.629a2.226,2.226,0,0,0,2.971.317l.059-.044c.051-.039.1-.081.151-.125h0l4.313-3.957a2.783,2.783,0,0,1,1.88-.744H51.952a1.041,1.041,0,0,0,.488-.123h0a1.211,1.211,0,0,0,.306-1.878Zm.538,5.108a2.02,2.02,0,0,0-.606-1.452,2.559,2.559,0,0,1-.727.1H21.56a1.2,1.2,0,0,0-.812.321L17.337,35.98c.068,0,.14,0,.214,0a3.471,3.471,0,0,0,2.2-.714,5.274,5.274,0,0,1,6.079,0,3.731,3.731,0,0,0,4.39,0,5.274,5.274,0,0,1,6.079,0,3.731,3.731,0,0,0,4.39,0,4.987,4.987,0,0,1,3.04-.964,5.588,5.588,0,0,1,3.18.883,5.64,5.64,0,0,0,2.174.8,4.454,4.454,0,0,0,3.614-.759,1.782,1.782,0,0,0,.593-1.358ZM12.3,54.242H43.716c5.873,0,10.651-5.115,10.651-11.4a1.438,1.438,0,0,0-1.385-1.483H16.152a.882.882,0,0,1,0-1.759H51.541V37.671a6.8,6.8,0,0,1-1.481.159,7.926,7.926,0,0,1-1.219-.1,7.147,7.147,0,0,1-2.7-.99,4.112,4.112,0,0,0-2.411-.679,3.471,3.471,0,0,0-2.2.714,5.274,5.274,0,0,1-6.079,0,3.731,3.731,0,0,0-4.39,0,5.274,5.274,0,0,1-6.079,0,3.731,3.731,0,0,0-4.39,0,4.986,4.986,0,0,1-3.039.964,4.893,4.893,0,0,1-1.935-.358,3.767,3.767,0,0,1-1.767.442,3.844,3.844,0,0,1-2.839-1.269l-.23-.25a6.215,6.215,0,0,0-.876.436,7.149,7.149,0,0,1-2.7.99,7.876,7.876,0,0,1-1.219.1,6.789,6.789,0,0,1-1.521-.168V39.6h7.869a.882.882,0,0,1,0,1.759H3.039a1.438,1.438,0,0,0-1.386,1.483c0,6.287,4.778,11.4,10.651,11.4h0ZM12.3,54.242Z" transform="translate(-0.01 -0.001)" fill="#c8c8c8"/>
</svg>
