<svg xmlns="http://www.w3.org/2000/svg" width="54" height="54" viewBox="0 0 54 54">
  <g id="cloud" transform="translate(0 -0.059)">
    <path id="Контур_141" data-name="Контур 141" d="M9,32.845h7.421a.965.965,0,0,0,0-1.929H9a7.239,7.239,0,0,1-.75-14.423.946.946,0,0,0,.716-.465.98.98,0,0,0,.062-.861,6.806,6.806,0,0,1-.5-2.571,6.7,6.7,0,0,1,6.631-6.75,6.591,6.591,0,0,1,4.893,2.207.915.915,0,0,0,.8.308.943.943,0,0,0,.718-.466A11.709,11.709,0,0,1,31.737,1.988,11.963,11.963,0,0,1,43.579,14.041a12.308,12.308,0,0,1-.082,1.366,1,1,0,0,0,.294.774,1.026,1.026,0,0,0,.788.292c.139-.01.278-.021.42-.021a7.233,7.233,0,0,1,0,14.464H34.106a.965.965,0,0,0,0,1.929H45a9.166,9.166,0,0,0,.464-18.309c.007-.168.01-.332.01-.494A13.877,13.877,0,0,0,31.737.059,13.733,13.733,0,0,0,20.58,5.908a8.442,8.442,0,0,0-5.422-1.992,8.613,8.613,0,0,0-8.526,8.679A8.765,8.765,0,0,0,6.9,14.773,9.18,9.18,0,0,0,9,32.845Zm0,0" transform="translate(0 0)"/>
    <path id="Контур_142" data-name="Контур 142" d="M24.631,140.142a.956.956,0,0,0,.948-.964V114.107h7.713a3.858,3.858,0,1,0,0-1.929H24.631a.956.956,0,0,0-.947.964v25.071H4.737v-3.03a3.857,3.857,0,0,0-.947-7.577,3.857,3.857,0,0,0-.948,7.577v3.994a.956.956,0,0,0,.948.964Zm12.316-28.928a1.929,1.929,0,1,1-1.895,1.928A1.914,1.914,0,0,1,36.947,111.214ZM1.894,131.464a1.9,1.9,0,1,1,3.79,0,1.914,1.914,0,0,1-1.895,1.928,1.914,1.914,0,0,1-1.9-1.928Zm0,0" transform="translate(0 -93.798)"/>
    <path id="Контур_143" data-name="Контур 143" d="M78.882,131.464a.964.964,0,0,0,0,1.928h6.632a.956.956,0,0,0,.947-.964V120.857a.974.974,0,0,0-.22-.617l-4.15-5.069a3.867,3.867,0,0,0,.581-2.028A3.79,3.79,0,1,0,78.882,117a3.692,3.692,0,0,0,1.831-.5l3.854,4.707v10.258Zm-1.895-18.321a1.9,1.9,0,1,1,3.79,0,1.938,1.938,0,0,1-.29,1.014.88.88,0,0,0-.592.61,1.854,1.854,0,0,1-1.013.3,1.914,1.914,0,0,1-1.895-1.928Zm0,0" transform="translate(-64.672 -93.798)"/>
    <path id="Контур_144" data-name="Контур 144" d="M215.78,172.5H195.886v-7.851a3.79,3.79,0,1,0-1.9,0v8.815a.956.956,0,0,0,.948.964h20.842a.964.964,0,0,0,0-1.928Zm-22.737-11.572a1.895,1.895,0,1,1,1.895,1.929A1.914,1.914,0,0,1,193.044,160.931Zm0,0" transform="translate(-164.623 -134.837)"/>
    <path id="Контур_145" data-name="Контур 145" d="M232.468,307.184h-7.029l-3.517-6.264a.944.944,0,0,0-.822-.486h-8.526a.964.964,0,0,0,0,1.928h7.977l3.517,6.264a.944.944,0,0,0,.822.486h7.579a.965.965,0,0,0,0-1.929Zm0,0" transform="translate(-182.257 -257.946)"/>
    <path id="Контур_146" data-name="Контур 146" d="M61.413,330.631H58.436a3.755,3.755,0,0,0-7.31,0H28.255a.965.965,0,0,0,0,1.929H51.126a3.756,3.756,0,0,0,7.31,0h2.977a.965.965,0,0,0,0-1.929Zm-6.631,2.893a1.929,1.929,0,1,1,1.895-1.928A1.914,1.914,0,0,1,54.781,333.524Zm0,0" transform="translate(-23.518 -281.394)"/>
  </g>
</svg>
