<svg xmlns="http://www.w3.org/2000/svg" width="48" height="48" viewBox="0 0 48 48">
  <g id="_001---Insurance-Document" data-name="001---Insurance-Document" transform="translate(0 0)">
    <path id="Shape" d="M5.8,10.6h4.8a.8.8,0,1,0,0-1.6H5.8a.8.8,0,0,0,0,1.6Z" transform="translate(-1 -1.8)"/>
    <path id="Shape-2" data-name="Shape" d="M16.8,10.6H24A.8.8,0,0,0,24,9H16.8a.8.8,0,1,0,0,1.6Z" transform="translate(-3.2 -1.8)"/>
    <path id="Shape-3" data-name="Shape" d="M5.8,21.6H31.4a.8.8,0,1,0,0-1.6H5.8a.8.8,0,1,0,0,1.6Z" transform="translate(-1 -4)"/>
    <path id="Shape-4" data-name="Shape" d="M5.8,25.6H17A.8.8,0,0,0,17,24H5.8a.8.8,0,0,0,0,1.6Z" transform="translate(-1 -4.8)"/>
    <path id="Shape-5" data-name="Shape" d="M5.8,33.6H17A.8.8,0,0,0,17,32H5.8a.8.8,0,0,0,0,1.6Z" transform="translate(-1 -6.4)"/>
    <path id="Shape-6" data-name="Shape" d="M5.8,41.6H17A.8.8,0,1,0,17,40H5.8a.8.8,0,1,0,0,1.6Z" transform="translate(-1 -8)"/>
    <path id="Shape-7" data-name="Shape" d="M5.8,49.6H17A.8.8,0,1,0,17,48H5.8a.8.8,0,1,0,0,1.6Z" transform="translate(-1 -9.6)"/>
    <path id="Shape-8" data-name="Shape" d="M47.52,23.3,38.4,19.366V2.4A2.4,2.4,0,0,0,36,0H5.6A2.4,2.4,0,0,0,3.2,2.4v.8H2.4A2.4,2.4,0,0,0,0,5.6v40A2.4,2.4,0,0,0,2.4,48H32.8a2.394,2.394,0,0,0,1.716-.73l.656.466a1.43,1.43,0,0,0,1.656,0l7.74-5.51A8.148,8.148,0,0,0,48,35.607V24.038A.8.8,0,0,0,47.52,23.3ZM4.8,2.4a.8.8,0,0,1,.8-.8H36a.8.8,0,0,1,.8.8V18.674l-.48-.209a.8.8,0,0,0-.634,0l-.48.209V13.6c0-.018-.009-.034-.01-.052a.754.754,0,0,0-.038-.2c-.006-.018,0-.038-.012-.055s-.013-.018-.017-.027a.8.8,0,0,0-.16-.234l-9.6-9.6a.8.8,0,0,0-.234-.16c-.01,0-.018-.013-.027-.017s-.037-.006-.054-.012a.8.8,0,0,0-.2-.039A.364.364,0,0,1,24.8,3.2H4.8ZM25.6,5.931,32.469,12.8H26.4a.8.8,0,0,1-.8-.8ZM32.8,46.4H2.4a.8.8,0,0,1-.8-.8V5.6a.8.8,0,0,1,.8-.8H24V12a2.4,2.4,0,0,0,2.4,2.4h7.2v4.966L31.025,20.48A.781.781,0,0,0,31.2,20a.8.8,0,0,0-.8-.8H19.2a.8.8,0,0,0,0,1.6H30.279l-3.7,1.6H4.8a.8.8,0,0,0,0,1.6H24.006c0,.013-.006.025-.006.038V25.6H19.2a.8.8,0,0,0,0,1.6H24v1.6H4.8a.8.8,0,0,0,0,1.6H24V32H19.2a.8.8,0,1,0,0,1.6H24v1.6H4.8a.8.8,0,1,0,0,1.6H24.1a8.017,8.017,0,0,0,.4,1.6H19.2a.8.8,0,0,0,0,1.6h6.113a8.185,8.185,0,0,0,1.345,1.6H4.8a.8.8,0,1,0,0,1.6h24l4.358,3.1A.78.78,0,0,1,32.8,46.4ZM46.4,35.607a6.546,6.546,0,0,1-2.759,5.315L36,46.362l-7.641-5.44A6.546,6.546,0,0,1,25.6,35.607V24.567l1.448-.626.015-.006L36,20.071l10.4,4.493Z" transform="translate(0 0)"/>
    <path id="Shape-9" data-name="Shape" d="M42.48,27.422l-8,3.456a.8.8,0,0,0-.48.734v9.466a4.942,4.942,0,0,0,2.086,4.011l6.25,4.449a.8.8,0,0,0,.928,0l6.25-4.449A4.944,4.944,0,0,0,51.6,41.078V31.613a.8.8,0,0,0-.48-.734l-8-3.456A.8.8,0,0,0,42.48,27.422ZM50,32.142v8.936a3.342,3.342,0,0,1-1.415,2.713L42.8,47.9l-5.785-4.118A3.34,3.34,0,0,1,35.6,41.078v-8.94l7.2-3.11Z" transform="translate(-6.8 -5.471)"/>
    <path id="Shape-10" data-name="Shape" d="M39.28,40.76a.8.8,0,0,0-.96,1.28l3.2,2.4a.8.8,0,0,0,1.1-.14l6.4-8a.8.8,0,0,0-1.25-1L41.86,42.7Z" transform="translate(-7.6 -7)"/>
  </g>
</svg>
