<svg width="55" height="55" viewBox="0 0 55 55" fill="none" xmlns="http://www.w3.org/2000/svg">
<g clip-path="url(#clip0)">
<path d="M52.938 21.2992C52.938 17.7974 51.5745 14.5054 49.0986 12.0295L40.9086 3.83947C38.4326 1.36351 35.1407 0 31.639 0H31.6389H16.8648C16.4197 0 16.0591 0.360723 16.0591 0.805664C16.0591 1.25061 16.4197 1.61133 16.8648 1.61133H29.8269C33.192 1.61133 35.9298 4.34908 35.9298 7.71418V11.919C35.9298 14.7253 38.2128 17.0083 41.0191 17.0083H45.2239C48.5821 17.0083 51.3151 19.7349 51.3263 23.0905V49.9104C51.3263 51.8283 49.7665 53.3887 47.8491 53.3887H12.6577C11.0706 53.3887 9.7009 52.3315 9.29678 50.8069L9.2623 45.8372H35.3923C38.9392 45.8372 41.8248 42.9517 41.8248 39.4048V37.6631C41.8248 37.2181 41.4642 36.8574 41.0191 36.8574C40.5741 36.8574 40.2134 37.2181 40.2134 37.6631V39.4048C40.2134 42.0632 38.0507 44.2259 35.3923 44.2259H6.51144C4.94663 44.2259 3.67346 42.9527 3.67346 41.3879V23.95C4.44421 24.59 5.43357 24.9755 6.51144 24.9755H35.3922C38.0506 24.9755 40.2133 27.1382 40.2133 29.7966V34.4403C40.2133 34.8853 40.5739 35.246 41.019 35.246C41.464 35.246 41.8247 34.8853 41.8247 34.4403V29.7966C41.8247 26.2497 38.9391 23.3641 35.3922 23.3641H9.18023V5.08965C9.18023 3.17174 10.7401 1.61133 12.6575 1.61133H13.6426C14.0877 1.61133 14.4483 1.25061 14.4483 0.805664C14.4483 0.360723 14.0876 0 13.6426 0H12.6576C9.85172 0 7.56901 2.28325 7.56901 5.08965V16.0769H6.51144C4.05803 16.0769 2.06213 18.0729 2.06213 20.5262V41.3879C2.06213 43.8413 4.05803 45.8372 6.51144 45.8372H7.65076L7.68599 50.915C7.68642 50.9762 7.69383 51.0371 7.70801 51.0966C8.25715 53.3949 10.2925 55 12.6576 55H47.849C50.6548 55 52.9376 52.7167 52.9376 49.9104L52.938 21.2992ZM6.51144 17.6882H7.56901V23.3641H6.51144C4.94663 23.3641 3.67346 22.091 3.67346 20.5262C3.67346 18.9614 4.94652 17.6882 6.51144 17.6882ZM45.2238 15.397H41.019C39.1012 15.397 37.541 13.8368 37.541 11.919V7.71418C37.541 5.53695 36.6346 3.5678 35.1791 2.1638C36.8915 2.71552 38.4603 3.66996 39.7691 4.97879L47.9592 13.1688C49.2681 14.4777 50.2225 16.0465 50.7742 17.7589C49.3702 16.3034 47.4009 15.397 45.2238 15.397Z" fill="#979797"/>
<path d="M34.5097 30.2687C34.9547 30.2687 35.3154 29.908 35.3154 29.463C35.3154 29.0181 34.9547 28.6573 34.5097 28.6573H30.356C29.911 28.6573 29.5504 29.0181 29.5504 29.463V39.7116C29.5504 40.1565 29.911 40.5173 30.356 40.5173C30.8011 40.5173 31.1617 40.1565 31.1617 39.7116V35.2959H34.1798C34.6249 35.2959 34.9855 34.9352 34.9855 34.4902C34.9855 34.0453 34.6249 33.6846 34.1798 33.6846H31.1617V30.2687H34.5097Z" fill="#979797"/>
<path d="M19.7921 28.6573C19.5782 28.6573 19.373 28.7424 19.2218 28.8939C19.0707 29.0454 18.986 29.2506 18.9864 29.4646V29.4734V29.4738V39.5452C18.9864 39.6079 18.9942 39.6687 19.0079 39.7273C19.012 39.9363 19.0967 40.1359 19.2452 40.2834C19.3961 40.4333 19.6002 40.5173 19.8128 40.5173H19.8158C19.9033 40.5169 21.9699 40.509 22.7936 40.4946C24.2234 40.4697 25.4964 39.8219 26.3784 38.6709C27.1912 37.61 27.6389 36.1598 27.6389 34.5874C27.6389 31.0405 25.6519 28.6575 22.6946 28.6575H19.7921V28.6573ZM26.0276 34.5874C26.0276 37.0833 24.6862 38.85 22.7655 38.8835C22.2755 38.8921 21.31 38.8984 20.6157 38.9022C20.6117 37.7267 20.605 35.5748 20.605 34.5761C20.605 33.7402 20.6013 31.4866 20.599 30.2688H22.6945C24.3059 30.2687 26.0276 31.4033 26.0276 34.5874Z" fill="#979797"/>
<path d="M11.0197 28.5818C10.8056 28.5818 10.6003 28.667 10.4491 28.8186C10.2989 28.9692 10.2147 29.1731 10.2141 29.3857C10.2141 29.3864 10.2139 29.3869 10.2139 29.3874V39.7115C10.2139 40.1565 10.5745 40.5172 11.0196 40.5172C11.4646 40.5172 11.8253 40.1565 11.8253 39.7115V36.0283C12.4939 36.0246 13.4212 36.02 13.8943 36.02C15.9765 36.02 17.6704 34.3516 17.6704 32.3008C17.6704 30.25 15.9764 28.5817 13.8943 28.5817H11.0197V28.5818ZM16.0592 32.3009C16.0592 33.4435 15.0678 34.4088 13.8944 34.4088C13.4239 34.4088 12.5094 34.4133 11.8408 34.4169C11.8372 33.7304 11.8326 32.781 11.8326 32.3009C11.8326 31.896 11.83 30.9071 11.8278 30.1931H13.8944C15.0678 30.1931 16.0592 31.1583 16.0592 32.3009Z" fill="#979797"/>
</g>
<defs>
<clipPath id="clip0">
<rect width="55" height="55" fill="white"/>
</clipPath>
</defs>
</svg>
