<svg width="56" height="56" viewBox="0 0 56 56" fill="none" xmlns="http://www.w3.org/2000/svg">
<path d="M7.32316 42.9755H3.50976C2.57357 42.9823 1.6783 43.3609 1.02035 44.0282C0.362393 44.6955 -0.00453397 45.5971 5.3707e-05 46.5351V52.4361C-0.00510534 53.3743 0.361602 54.2763 1.01965 54.9439C1.6777 55.6115 2.57329 55.9902 3.50976 55.9967H7.32316C8.25963 55.9902 9.15522 55.6115 9.81326 54.9439C10.4713 54.2763 10.838 53.3743 10.8329 52.4361V46.5351C10.8374 45.5971 10.4705 44.6955 9.81257 44.0282C9.15461 43.3609 8.25935 42.9823 7.32316 42.9755ZM9.16578 52.4361C9.16807 52.9285 8.9754 53.4017 8.62999 53.752C8.28458 54.1023 7.81463 54.3011 7.32316 54.3049H3.50976C3.0182 54.3014 2.54808 54.1027 2.20261 53.7524C1.85714 53.402 1.66456 52.9286 1.66714 52.4361V46.5351C1.66456 46.0426 1.85714 45.5691 2.20261 45.2188C2.54808 44.8684 3.0182 44.6697 3.50976 44.6663H7.32316C7.81463 44.67 8.28458 44.8688 8.62999 45.2191C8.9754 45.5694 9.16807 46.0426 9.16578 46.5351V52.4361Z" fill="#0DB14B"/>
<path d="M21.2662 36.399H17.4506C16.5141 36.4056 15.6186 36.7843 14.9605 37.4519C14.3025 38.1195 13.9358 39.0215 13.9409 39.9597V47.1814C13.9409 47.4029 14.0287 47.6153 14.185 47.7719C14.3414 47.9286 14.5534 48.0165 14.7745 48.0165C14.9955 48.0165 15.2075 47.9286 15.3639 47.7719C15.5202 47.6153 15.608 47.4029 15.608 47.1814V39.9597C15.6057 39.4674 15.7984 38.9943 16.1438 38.6441C16.4893 38.294 16.9592 38.0954 17.4506 38.092H21.2662C21.7575 38.0954 22.2275 38.294 22.5729 38.6441C22.9184 38.9943 23.1111 39.4674 23.1088 39.9597V52.4383C23.1111 52.9307 22.9184 53.4039 22.573 53.7542C22.2276 54.1045 21.7576 54.3034 21.2662 54.3071H17.4506C16.9591 54.3034 16.4892 54.1045 16.1438 53.7542C15.7984 53.4039 15.6057 52.9307 15.608 52.4383V50.5554C15.608 50.3339 15.5202 50.1215 15.3639 49.9649C15.2075 49.8082 14.9955 49.7203 14.7745 49.7203C14.5534 49.7203 14.3414 49.8082 14.185 49.9649C14.0287 50.1215 13.9409 50.3339 13.9409 50.5554V52.4318C13.9358 53.37 14.3025 54.272 14.9605 54.9396C15.6186 55.6072 16.5141 55.9859 17.4506 55.9924H21.2662C22.2026 55.9859 23.0982 55.6072 23.7563 54.9396C24.4143 54.272 24.781 53.37 24.7759 52.4318V39.9576C24.7805 39.0197 24.4135 38.1182 23.7555 37.4511C23.0975 36.784 22.2023 36.4056 21.2662 36.399Z" fill="#0DB14B"/>
<path d="M35.2059 28.3455H31.3904C30.454 28.3523 29.5586 28.7311 28.9006 29.3986C28.2426 30.0661 27.8758 30.968 27.8807 31.9061V52.4382C27.8755 53.3765 28.2422 54.2785 28.9003 54.9461C29.5583 55.6137 30.4539 55.9923 31.3904 55.9989H35.2059C36.1424 55.9923 37.038 55.6137 37.696 54.9461C38.3541 54.2785 38.7208 53.3765 38.7156 52.4382V31.9051C38.7202 30.9671 38.3533 30.0655 37.6953 29.3982C37.0374 28.7309 36.1421 28.3523 35.2059 28.3455ZM37.0485 52.4371C37.0508 52.9296 36.8582 53.4028 36.5127 53.7532C36.1673 54.1035 35.6974 54.3022 35.2059 54.306H31.3904C30.8988 54.3025 30.4287 54.1038 30.0832 53.7534C29.7378 53.4031 29.5452 52.9297 29.5478 52.4371V31.9051C29.5452 31.4125 29.7378 30.9391 30.0832 30.5888C30.4287 30.2384 30.8988 30.0397 31.3904 30.0363H35.2059C35.6974 30.04 36.1673 30.2388 36.5127 30.5891C36.8582 30.9394 37.0508 31.4126 37.0485 31.9051V52.4371Z" fill="#0DB14B"/>
<path d="M55.6115 11.7981L49.7218 1.45383C49.4737 1.01268 49.1129 0.645563 48.6765 0.390097C48.2402 0.134631 47.7438 0 47.2384 0C46.733 0 46.2367 0.134631 45.8003 0.390097C45.3639 0.645563 45.0032 1.01268 44.755 1.45383L38.8653 11.7981C38.6101 12.241 38.4758 12.7434 38.4758 13.2547C38.4758 13.7661 38.6101 14.2685 38.8653 14.7114C39.1119 15.1539 39.4723 15.5222 39.909 15.778C40.3457 16.0338 40.8429 16.1677 41.3487 16.1659H41.8204V19.801C41.8204 20.0225 41.9082 20.2349 42.0646 20.3915C42.2209 20.5481 42.4329 20.6361 42.654 20.6361C42.875 20.6361 43.087 20.5481 43.2434 20.3915C43.3997 20.2349 43.4875 20.0225 43.4875 19.801V15.3156C43.4882 15.2053 43.4672 15.0959 43.4257 14.9937C43.3841 14.8915 43.3229 14.7985 43.2455 14.7201C43.1681 14.6416 43.076 14.5792 42.9745 14.5364C42.873 14.4936 42.7641 14.4713 42.654 14.4708H41.3487C41.1367 14.4717 40.9284 14.4156 40.7454 14.3084C40.5624 14.2012 40.4115 14.0467 40.3084 13.8611C40.2018 13.6761 40.1456 13.4662 40.1456 13.2526C40.1456 13.0389 40.2018 12.8291 40.3084 12.644L46.1981 2.29975C46.3019 2.11497 46.453 1.96119 46.6357 1.85417C46.8184 1.74715 47.0262 1.69074 47.2379 1.69074C47.4495 1.69074 47.6574 1.74715 47.8401 1.85417C48.0228 1.96119 48.1738 2.11497 48.2776 2.29975L54.1674 12.644C54.274 12.8291 54.3301 13.0389 54.3301 13.2526C54.3301 13.4662 54.274 13.6761 54.1674 13.8611C54.0643 14.0467 53.9134 14.2012 53.7304 14.3084C53.5474 14.4156 53.339 14.4717 53.127 14.4708H51.8218C51.7117 14.4713 51.6028 14.4936 51.5013 14.5364C51.3998 14.5792 51.3077 14.6416 51.2303 14.7201C51.1528 14.7985 51.0916 14.8915 51.0501 14.9937C51.0086 15.0959 50.9876 15.2053 50.9883 15.3156V52.4393C50.9909 52.9318 50.7983 53.4052 50.4528 53.7556C50.1073 54.106 49.6372 54.3047 49.1457 54.3081H45.3301C44.8386 54.3044 44.3687 54.1056 44.0233 53.7553C43.6779 53.405 43.4852 52.9318 43.4875 52.4393V23.176C43.4875 22.9546 43.3997 22.7421 43.2434 22.5855C43.087 22.4289 42.875 22.3409 42.654 22.3409C42.4329 22.3409 42.2209 22.4289 42.0646 22.5855C41.9082 22.7421 41.8204 22.9546 41.8204 23.176V52.4393C41.8152 53.3776 42.182 54.2796 42.84 54.9472C43.4981 55.6148 44.3936 55.9934 45.3301 56H49.1457C50.0821 55.9934 50.9777 55.6148 51.6358 54.9472C52.2938 54.2796 52.6605 53.3776 52.6554 52.4393V16.1605H53.127C53.6329 16.1623 54.13 16.0284 54.5668 15.7726C55.0035 15.5168 55.3639 15.1485 55.6104 14.706C55.8656 14.2631 56 13.7607 56 13.2493C56 12.738 55.8656 12.2356 55.6104 11.7927L55.6115 11.7981Z" fill="#0DB14B"/>
</svg>
