<svg xmlns="http://www.w3.org/2000/svg" width="187.123" height="52.882" viewBox="0 0 187.123 52.882">
  <path id="Контур_288" data-name="Контур 288" d="M36.3,23.583h3.842V37.06L48.4,23.583h4.1V43.827H48.654V30.567L40.4,43.827H36.3ZM56.7,43.827V23.583H60.83v7.973h8.026V23.583h4.126V43.827H68.855v-8.85H60.83v8.85ZM77.312,23.583h4.127v8.624A2.765,2.765,0,0,0,83.3,31.5a14.215,14.215,0,0,0,1.5-3.152q1.274-3.287,2.566-4.09a8.064,8.064,0,0,1,4.122-.8q.142,0,.6-.014v3.025l-.583-.014a4.132,4.132,0,0,0-1.85.311,2.367,2.367,0,0,0-.944.947,19.593,19.593,0,0,0-1.067,2.615,9.189,9.189,0,0,1-.816,1.757,4.129,4.129,0,0,1-1.546,1.329,4.22,4.22,0,0,1,2.267,1.56,21.137,21.137,0,0,1,1.964,3.313l2.775,5.542H87.444L85,38.616c-.038-.076-.119-.217-.237-.429-.047-.071-.218-.391-.512-.952a6.116,6.116,0,0,0-1.281-1.871,2.624,2.624,0,0,0-1.532-.386v8.85H77.312V23.584ZM93.772,33.828a12.852,12.852,0,0,1,.935-5.2,9.468,9.468,0,0,1,1.9-2.78,8.013,8.013,0,0,1,2.633-1.828,11.3,11.3,0,0,1,4.4-.8A9.617,9.617,0,0,1,110.847,26q2.7,2.785,2.7,7.738a10.591,10.591,0,0,1-2.685,7.686,9.518,9.518,0,0,1-7.177,2.776,9.619,9.619,0,0,1-7.233-2.761,10.445,10.445,0,0,1-2.685-7.606Zm4.24-.137a7.572,7.572,0,0,0,1.6,5.221,5.537,5.537,0,0,0,8.116.014,7.722,7.722,0,0,0,1.579-5.292,7.56,7.56,0,0,0-1.541-5.2,5.731,5.731,0,0,0-8.2.019,7.635,7.635,0,0,0-1.561,5.235Zm23.332,10.136V27h-6.033V23.583h16.165V27h-6V43.827Zm12.8,0V23.583H149.23V27H138.273v4.5h10.189v3.421H138.273v5.485h11.356v3.421H134.146Zm19.039-20.244h4.127v8.624a2.765,2.765,0,0,0,1.859-.707,14.215,14.215,0,0,0,1.5-3.152q1.274-3.287,2.566-4.09a8.064,8.064,0,0,1,4.122-.8q.142,0,.6-.014v3.025l-.583-.014a4.132,4.132,0,0,0-1.85.311,2.367,2.367,0,0,0-.944.947,19.6,19.6,0,0,0-1.067,2.615,9.189,9.189,0,0,1-.816,1.757,4.129,4.129,0,0,1-1.546,1.329,4.22,4.22,0,0,1,2.267,1.56,21.136,21.136,0,0,1,1.964,3.313l2.775,5.542h-4.838l-2.443-5.212c-.038-.076-.119-.217-.237-.429-.047-.071-.218-.391-.512-.952a6.117,6.117,0,0,0-1.281-1.871,2.624,2.624,0,0,0-1.532-.386v8.85h-4.127V23.584Zm29.972,12.78,3.985,1.216a8.983,8.983,0,0,1-3.055,4.967,8.7,8.7,0,0,1-5.412,1.621A8.806,8.806,0,0,1,172,41.41a10.516,10.516,0,0,1-2.614-7.54q0-5.054,2.628-7.855a9.035,9.035,0,0,1,6.911-2.8,8.5,8.5,0,0,1,6.076,2.2,7.971,7.971,0,0,1,2.087,3.737l-4.07.961a4.3,4.3,0,0,0-1.509-2.483,4.356,4.356,0,0,0-2.789-.91,4.647,4.647,0,0,0-3.681,1.617q-1.416,1.611-1.413,5.23,0,3.831,1.39,5.462a4.532,4.532,0,0,0,3.619,1.63,4.136,4.136,0,0,0,2.827-1.037,6.005,6.005,0,0,0,1.7-3.261ZM23.033,13.311h12.6L12.615,52.882h-1.58V13.53h1.58V31.224L23.033,13.31ZM10.448,52.882H8.281V13.53h1.58v22.43l.587-1.009Zm-2.753,0H5.528V13.53H7.108V40.695l.587-1.009v13.2Zm-2.754,0H2.774V13.53h1.58v31.9l.587-1.009Zm-2.753,0H.02V13.53H1.6V50.165l.587-1.009ZM6.318,0A6.257,6.257,0,1,1,.02,6.256,6.277,6.277,0,0,1,6.318,0Z" transform="translate(-0.02)"/>
</svg>
