<svg xmlns="http://www.w3.org/2000/svg" width="55.793" height="55.845" viewBox="0 0 55.793 55.845">
  <path id="Контур_273" data-name="Контур 273" d="M37.264,28.346H36.116A1.716,1.716,0,0,0,34.4,30.06V50.067a1.716,1.716,0,0,0,1.714,1.714h1.149a1.716,1.716,0,0,0,1.714-1.714V30.06A1.716,1.716,0,0,0,37.264,28.346Zm.251,21.721a.252.252,0,0,1-.251.251H36.116a.252.252,0,0,1-.251-.251V30.06a.252.252,0,0,1,.251-.251h1.149a.252.252,0,0,1,.251.251ZM31.09,33.284a.731.731,0,0,0-.731.731V50.067a.252.252,0,0,1-.251.251H28.958a.252.252,0,0,1-.251-.251V33.834a.732.732,0,0,0-1.463,0V50.067a1.716,1.716,0,0,0,1.715,1.714h1.149a1.716,1.716,0,0,0,1.715-1.714V34.016a.731.731,0,0,0-.732-.731h0Zm13.429-4.939H43.371a1.716,1.716,0,0,0-1.714,1.714v6.257a.731.731,0,0,0,1.463,0V30.06a.252.252,0,0,1,.251-.251h1.149a.252.252,0,0,1,.251.251V50.067a.252.252,0,0,1-.251.251H43.371a.252.252,0,0,1-.251-.251V39.434a.731.731,0,1,0-1.463,0V50.067a1.716,1.716,0,0,0,1.714,1.714h1.149a1.716,1.716,0,0,0,1.714-1.714V30.06A1.716,1.716,0,0,0,44.519,28.346Zm9.706-5.813H49.953V20.922a3.681,3.681,0,0,0-1.776-6.905H47.095V13.6a3.686,3.686,0,0,0-3.682-3.682H41.2a4.484,4.484,0,0,0-8.914,0H30.064A3.686,3.686,0,0,0,26.383,13.6v.418H25.3a3.68,3.68,0,0,0-1.873,6.849V51.017a4.823,4.823,0,0,0,4.817,4.817H45.136a4.823,4.823,0,0,0,4.817-4.817V46.356h4.271A4.162,4.162,0,0,0,58.382,42.2V26.69a4.162,4.162,0,0,0-4.157-4.157ZM25.3,15.479h1.814a.731.731,0,0,0,.731-.731V13.6a2.221,2.221,0,0,1,2.219-2.219h2.678a.977.977,0,0,0,.975-.975,3.02,3.02,0,1,1,6.041,0,.977.977,0,0,0,.976.975h2.678A2.221,2.221,0,0,1,45.632,13.6v1.15a.731.731,0,0,0,.731.731h1.814a2.219,2.219,0,0,1,0,4.437H36.309a5.217,5.217,0,0,0-5.217,5.217v4.108a1.288,1.288,0,0,1-2.576,0V21.524a1.609,1.609,0,0,0-1.607-1.607H25.3a2.219,2.219,0,1,1,0-4.437Zm0,5.9h1.609a.145.145,0,0,1,.144.145v2.238H24.889V21.356a3.688,3.688,0,0,0,.41.023ZM45.136,54.371H28.244a3.358,3.358,0,0,1-3.354-3.354V25.225h2.164v4.016a2.751,2.751,0,1,0,5.5,0V25.225h9.831a.732.732,0,1,0,0-1.463H32.814a3.758,3.758,0,0,1,3.5-2.382H48.178c.105,0,.209-.005.313-.014v2.4H45.5a.732.732,0,1,0,0,1.463H48.49V51.017a3.358,3.358,0,0,1-3.354,3.354h0ZM56.919,42.2a2.7,2.7,0,0,1-2.694,2.694H49.953V43.235h4.271A1.037,1.037,0,0,0,55.261,42.2V33.253a.732.732,0,1,0-1.463,0v8.519H49.953V27.117H53.8v3.019a.732.732,0,0,0,1.463,0V26.69a1.038,1.038,0,0,0-1.036-1.036H49.953V24h4.271a2.7,2.7,0,0,1,2.694,2.694ZM21.8,24.67a4.146,4.146,0,0,1-2.1-3.385L18.77,4.722a1.254,1.254,0,0,0,.617-1.079V2.335A2.348,2.348,0,0,0,17.042-.01H10.279A2.348,2.348,0,0,0,7.934,2.335V3.643a1.254,1.254,0,0,0,.617,1.079L7.957,15.306a.818.818,0,1,0,1.633.092l.13-2.31H17.6l.465,8.289a5.776,5.776,0,0,0,2.924,4.716A4.17,4.17,0,0,1,23.1,29.711v5.34H21.247a7.753,7.753,0,0,0-1.016-2.4.818.818,0,1,0-1.378.883,6.142,6.142,0,0,1,.969,3.32V43.4A6.163,6.163,0,0,1,7.5,43.4V36.856a6.165,6.165,0,0,1,9.149-5.392.818.818,0,0,0,.794-1.431A7.8,7.8,0,0,0,6.075,35.051H4.226v-5.34a4.17,4.17,0,0,1,2.105-3.619,5.775,5.775,0,0,0,2.924-4.716l.139-2.484A.818.818,0,1,0,7.761,18.8l-.139,2.484a4.146,4.146,0,0,1-2.1,3.385A5.809,5.809,0,0,0,2.59,29.711V53.925A1.911,1.911,0,0,0,4.5,55.834H6.68a.818.818,0,0,0,0-1.636H4.5a.273.273,0,0,1-.273-.273V45.412h1.9a7.8,7.8,0,0,0,15.068,0h1.9v8.513a.273.273,0,0,1-.273.273H10.245a.818.818,0,0,0,0,1.636H22.822a1.911,1.911,0,0,0,1.909-1.909V29.711A5.809,5.809,0,0,0,21.8,24.67ZM9.57,2.335a.71.71,0,0,1,.709-.709h6.763a.71.71,0,0,1,.709.709v.927H9.57V2.335Zm.242,9.117L10.18,4.9h6.961l.368,6.553h-7.7ZM4.226,43.776v-7.09h1.64c0,.056,0,.112,0,.169V43.4c0,.126,0,.251.01.376H4.226Zm17.224,0c.006-.125.01-.25.01-.376V36.856c0-.057,0-.113,0-.169H23.1v7.09H21.45Z" transform="translate(-2.59 0.01)"/>
</svg>
