<svg xmlns="http://www.w3.org/2000/svg" width="157.711" height="40" viewBox="0 0 157.711 40">
  <g id="Сгруппировать_72" data-name="Сгруппировать 72" transform="translate(-344 -78)">
    <g id="Слой_x0020_1" transform="translate(343.99 77.997)">
      <g id="_326630528" transform="translate(0.01 0.003)">
        <path id="Контур_20" data-name="Контур 20" d="M5.5,38.259H23.652L4.447,33.108A6.646,6.646,0,0,1,.01,29.177v3.588a5.525,5.525,0,0,0,5.509,5.509ZM5.474,3.54A5.512,5.512,0,0,0,.01,9.034v14.9L5.474,3.54Z" transform="translate(-0.01 1.726)" fill="#333" fill-rule="evenodd"/>
        <path id="Контур_21" data-name="Контур 21" d="M33.6,30.4l4.645-17.33a5.526,5.526,0,0,0-3.886-6.744l-3.5-.938a6.654,6.654,0,0,1,2.754,5.375V30.385ZM26.079,4.123,11.429.192A5.526,5.526,0,0,0,4.685,4.078l-.015.03H26.064Z" transform="translate(2.268 -0.003)" fill="#0db14b" fill-rule="evenodd"/>
        <path id="Контур_22" data-name="Контур 22" d="M74.837,31.179c4.481,0,7.146-1.4,9.528-3.945l-1.891-2.025a3.8,3.8,0,0,0-.968-.67,1.638,1.638,0,0,0-1.667.283c-.134.1-.268.194-.4.283h0A7.384,7.384,0,0,1,75,26.475c-3.99,0-6.744-3.32-6.744-7.31,0-4.05,2.829-7.31,6.744-7.31A7.349,7.349,0,0,1,79.155,13h0c.253.164.491.328.744.521a1.405,1.405,0,0,0,1.3.089,9.782,9.782,0,0,0,2.62-2.412l.045-.06.045-.06.045-.06.045-.06.045-.06A11.689,11.689,0,0,0,75.031,7.12c-16.124,0-15.945,24.044-.194,24.044Zm22.124,0A12.034,12.034,0,1,0,84.634,19.15,12.025,12.025,0,0,0,96.961,31.179Zm.06-4.72a7.061,7.061,0,0,1-7.042-7.31,6.978,6.978,0,0,1,6.983-7.31A7.061,7.061,0,0,1,104,19.15,6.978,6.978,0,0,1,97.021,26.46Zm28.6-4.511c.208.462.417.938.61,1.429.194-.506.4-.983.61-1.459s.432-.923.67-1.37L133.9,7.984a2.119,2.119,0,0,1,.342-.506,1.19,1.19,0,0,1,.4-.268,1.336,1.336,0,0,1,.506-.089h5.062V31.164h-5.077v-13.5c0-.7.03-1.444.1-2.248l-6.581,12.774a2.15,2.15,0,0,1-.834.908,2.257,2.257,0,0,1-1.191.313h-.789a2.3,2.3,0,0,1-1.191-.313,2.248,2.248,0,0,1-.834-.908L117.194,15.4c.045.4.074.789.1,1.191s.03.759.03,1.087v13.5h-5.077V7.135h5.062a1.336,1.336,0,0,1,.506.089,1.19,1.19,0,0,1,.4.268,1.758,1.758,0,0,1,.342.506l6.4,12.625c.223.432.447.878.655,1.355ZM41.443,31.179H35.83V7.135h5.613ZM62.912,7.135v4.422H56.152V31.179H50.569V11.557H43.81V7.135H62.927Z" transform="translate(17.5 3.476)" fill="#333"/>
        <path id="Контур_23" data-name="Контур 23" d="M29.014,38.259a5.265,5.265,0,0,0,1.891-.342,5.73,5.73,0,0,0,3.439-3.662,5.14,5.14,0,0,0,.164-1.489V9.049A5.525,5.525,0,0,0,29,3.54H6.443L.622,25.262a5.526,5.526,0,0,0,3.886,6.744L27.421,38.14A5.61,5.61,0,0,0,29,38.259Z" transform="translate(0.197 1.726)" fill="#0db14b" fill-rule="evenodd"/>
      </g>
    </g>
  </g>
</svg>
