<svg xmlns="http://www.w3.org/2000/svg" width="138.24" height="40" viewBox="0 0 138.24 40">
  <g id="Слой_x0020_1" transform="translate(0 0.007)">
    <g id="_1079940112" transform="translate(0 -0.007)">
      <path id="Контур_253" data-name="Контур 253" d="M68.483,19.288a7.143,7.143,0,0,0,5.8-2.408l-1.148-1.238a2.2,2.2,0,0,0-.591-.413,1,1,0,0,0-1.015.167c-.078.056-.167.123-.245.178h0a4.486,4.486,0,0,1-2.7.825,4.2,4.2,0,0,1-4.1-4.437,4.2,4.2,0,0,1,4.1-4.437,4.338,4.338,0,0,1,2.52.7h0c.156.1.3.2.446.312a.853.853,0,0,0,.792.056,5.771,5.771,0,0,0,1.583-1.472l.033-.033.033-.033.033-.033.033-.033.033-.033a7.118,7.118,0,0,0-5.474-2.3c-9.8,0-9.689,14.617-.123,14.617Zm13.446,0a7.317,7.317,0,1,0-7.492-7.314A7.314,7.314,0,0,0,81.929,19.288Zm.045-2.865a4.29,4.29,0,0,1-4.281-4.437,4.234,4.234,0,0,1,4.237-4.437,4.29,4.29,0,0,1,4.281,4.437A4.234,4.234,0,0,1,81.974,16.423ZM99.356,13.68q.184.418.368.87c.123-.3.245-.6.379-.892s.268-.569.4-.836l3.88-7.637a1.166,1.166,0,0,1,.212-.3.653.653,0,0,1,.245-.156.851.851,0,0,1,.3-.056h3.077V19.288h-3.088V11.082q0-.636.067-1.371l-4,7.771a1.261,1.261,0,0,1-.5.546,1.4,1.4,0,0,1-.725.19H99.49a1.433,1.433,0,0,1-.725-.19,1.325,1.325,0,0,1-.5-.546L94.238,9.7c.022.245.045.479.067.725s.022.457.022.658v8.206H91.239V4.671h3.077a.851.851,0,0,1,.3.056.83.83,0,0,1,.245.156,1.1,1.1,0,0,1,.212.3l3.891,7.671c.134.268.268.535.4.825ZM48.192,19.288H44.78V4.671h3.412ZM61.236,4.671V7.358H57.122v11.93H53.733V7.358H49.619V4.671H61.236Z" transform="translate(5.147 0.543)" fill="#333"/>
      <path id="Контур_254" data-name="Контур 254" d="M53.1,31.739c.123.279.245.58.368.87.123-.3.245-.6.368-.892s.268-.569.4-.836l3.88-7.637a1.166,1.166,0,0,1,.212-.3.577.577,0,0,1,.245-.156.851.851,0,0,1,.3-.056H61.95V37.347H58.862V29.141q0-.636.067-1.371l-4,7.771a1.261,1.261,0,0,1-.5.546,1.4,1.4,0,0,1-.725.19H53.22a1.433,1.433,0,0,1-.725-.19,1.326,1.326,0,0,1-.5-.546l-4.025-7.782c.022.245.045.479.067.725s.022.457.022.658v8.206H44.97V22.73h3.077a.851.851,0,0,1,.3.056.83.83,0,0,1,.245.156,1.4,1.4,0,0,1,.212.3L52.7,30.914c.134.268.268.535.4.825Zm10.291,5.608L69.61,22.73h2.943l6.221,14.617H75.441l-1.126-2.765v-.089a.718.718,0,0,0-.223-.346.652.652,0,0,0-.4-.078H68.406a.786.786,0,0,0-.4.078.838.838,0,0,0-.223.334v.111l-1.126,2.765H63.4Zm5.72-6.076h3.858l-1.929-4.705L69.108,31.27ZM80.2,37.347V22.73H86.88a5.755,5.755,0,0,1,4.259,1.483,4.562,4.562,0,0,1,1.249,3.378,4.437,4.437,0,0,1-3.133,4.527l3.568,5.218H89.065l-2.821-4.159-.011-.011-.011-.011v-.011l-.011-.011-.011-.011-.011-.011-.011-.011-.011-.011-.011-.011v-.011l-.011-.011a1.591,1.591,0,0,0-.3-.346.646.646,0,0,0-.4-.089H83.368V37.3H80.157Zm3.211-7.515h3.256a2.617,2.617,0,0,0,1.817-.58,1.933,1.933,0,0,0,.647-1.539,1.885,1.885,0,0,0-.669-1.561,2.914,2.914,0,0,0-1.862-.535H83.4v4.2Zm49.659-7.1v2.687h-4.114v11.93h-3.389V25.417h-4.114V22.73ZM109,37.347V22.73h11.027V25.6H112.2v2.966h6.89v2.865H112.2v3.066h7.938v2.865H109.012Zm-14.739,0V22.73h3.211v6.389L103.4,22.73h3.88L101.8,28.438l-.011.011-.011.011-.011.011-.011.011-.011.011-.011.011-.011.011-.011.011-.011.011-.011.011a.872.872,0,0,0-.268.413.63.63,0,0,0,.19.435l5.909,7.983h-3.869l-4.527-6.221-1.695,1.75V37.38H94.216Z" transform="translate(5.168 2.62)" fill="#e65100"/>
      <path id="Контур_255" data-name="Контур 255" d="M5.5,39.427H23.625l-19.2-5.14A6.643,6.643,0,0,1,0,30.351V33.93a5.515,5.515,0,0,0,5.5,5.5ZM5.463,4.73A5.515,5.515,0,0,0,0,10.227v14.9L5.463,4.73Z" transform="translate(0 0.551)" fill="#333" fill-rule="evenodd"/>
      <path id="Контур_256" data-name="Контур 256" d="M35.138,30.371l4.638-17.315a5.517,5.517,0,0,0-3.891-6.734l-3.5-.937a6.661,6.661,0,0,1,2.743,5.374V30.371ZM27.634,4.1,13,.179A5.517,5.517,0,0,0,6.261,4.07L6.25,4.1Z" transform="translate(0.718 0.007)" fill="#e65100" fill-rule="evenodd"/>
      <path id="Контур_257" data-name="Контур 257" d="M29.133,39.427a5.6,5.6,0,0,0,1.9-.334,5.713,5.713,0,0,0,3.434-3.668,5.409,5.409,0,0,0,.167-1.494v-23.7a5.515,5.515,0,0,0-5.5-5.5H6.589L.769,26.438A5.517,5.517,0,0,0,4.66,33.172l22.9,6.132a5.326,5.326,0,0,0,1.572.123Z" transform="translate(0.067 0.551)" fill="#e65100" fill-rule="evenodd"/>
    </g>
  </g>
</svg>
