<svg width="56" height="56" viewBox="0 0 56 56" fill="none" xmlns="http://www.w3.org/2000/svg">
<path d="M10.9188 16.0074C10.9381 15.4 10.9948 13.5511 12.3338 13.0708C13.6729 12.5905 15.055 13.9204 15.3249 14.1918C15.4038 14.2654 15.4661 14.3534 15.5083 14.4505C15.5504 14.5475 15.5715 14.6517 15.5701 14.7567C15.5688 14.8617 15.5451 14.9654 15.5004 15.0614C15.4558 15.1575 15.3912 15.244 15.3105 15.3158C15.2297 15.3875 15.1345 15.443 15.0306 15.4789C14.9267 15.5148 14.8163 15.5303 14.7059 15.5246C14.5955 15.5189 14.4874 15.4921 14.3882 15.4457C14.289 15.3993 14.2008 15.3343 14.1287 15.2547C13.8168 14.8934 13.3899 14.638 12.9121 14.5267C12.9121 14.5267 12.5969 14.7475 12.5561 16.0537C12.4733 17.0378 12.713 18.0221 13.2421 18.8719C13.7713 19.7216 14.5641 20.3952 15.512 20.8004C15.6559 20.8532 15.7814 20.9432 15.8742 21.0603C15.9669 21.1773 16.0233 21.3168 16.0369 21.4627C16.8488 30.6353 24.501 33.5977 28.0805 33.5977C31.66 33.5977 39.3134 30.631 40.1229 21.4573C40.1359 21.3105 40.1926 21.1701 40.2863 21.0527C40.3801 20.9352 40.5071 20.8455 40.6524 20.794C41.5989 20.3879 42.39 19.714 42.9177 18.8645C43.4454 18.015 43.6839 17.0314 43.6004 16.0483C43.5607 14.7421 43.2455 14.5235 43.2421 14.5213C42.7655 14.6351 42.3396 14.8905 42.0266 15.2504C41.8758 15.3911 41.6736 15.471 41.4622 15.4735C41.2508 15.4759 41.0465 15.4007 40.8921 15.2635C40.7377 15.1263 40.6451 14.9378 40.6336 14.7373C40.6221 14.5368 40.6927 14.3398 40.8305 14.1875C41.0969 13.9172 42.4938 12.5895 43.8215 13.0665C45.1492 13.5436 45.2173 15.3947 45.2354 16.0031C45.3113 17.2248 45.0195 18.4417 44.3941 19.5117C43.7686 20.5817 42.8354 21.4605 41.7035 22.0453C40.6729 31.0833 33.1714 35.1538 28.0748 35.1538C22.9783 35.1538 15.478 31.0833 14.4462 22.0453C13.316 21.46 12.3843 20.5816 11.7598 19.5125C11.1353 18.4435 10.8436 17.2279 10.9188 16.0074ZM31.889 36.8886C31.8916 37.4771 31.7463 38.0577 31.465 38.5821C31.1838 39.1065 30.7749 39.5596 30.2722 39.9038C30.3799 40.2742 30.6475 41.6106 30.9808 43.3637L25.6779 40.8374C25.772 40.3851 25.8446 40.0588 25.8899 39.9038C25.3873 39.5596 24.9783 39.1065 24.6971 38.5821C24.4159 38.0577 24.2705 37.4771 24.2731 36.8886C24.2734 36.6825 24.3597 36.4849 24.5132 36.3391C24.6667 36.1934 24.8747 36.1114 25.0917 36.1111H31.0704C31.2873 36.1117 31.4952 36.1938 31.6486 36.3395C31.802 36.4851 31.8884 36.6826 31.889 36.8886ZM26.0589 37.6661C26.2582 38.0503 26.5417 38.3896 26.8904 38.6613C27.2391 38.933 27.6448 39.1308 28.0805 39.2415C28.5167 39.1319 28.923 38.9345 29.2718 38.6627C29.6206 38.3909 29.9038 38.051 30.1021 37.6661H26.0589ZM23.069 36.558C22.9765 36.3713 22.8099 36.2271 22.6056 36.1571C22.4013 36.087 22.176 36.0968 21.9793 36.1843L18.1334 37.8987L17.8091 32.2624C17.8032 32.1605 17.7763 32.0606 17.7297 31.9686C17.6832 31.8765 17.6181 31.794 17.538 31.7259C17.4579 31.6578 17.3645 31.6052 17.2631 31.5714C17.1616 31.5375 17.0542 31.523 16.9468 31.5286C16.8395 31.5342 16.7343 31.5598 16.6374 31.6039C16.5405 31.6481 16.4536 31.71 16.3819 31.7861C16.3101 31.8621 16.2549 31.9508 16.2192 32.0472C16.1836 32.1435 16.1682 32.2456 16.1741 32.3475L16.258 33.7926C13.4575 34.7295 0 40.0244 0 55.222C-2.26704e-09 55.3241 0.021189 55.4253 0.0623574 55.5197C0.103526 55.6141 0.163867 55.6999 0.239936 55.7721C0.316005 55.8444 0.406313 55.9017 0.505702 55.9408C0.605091 55.9799 0.711616 56 0.819194 56C0.926772 56 1.0333 55.9799 1.13269 55.9408C1.23208 55.9017 1.32238 55.8444 1.39845 55.7721C1.47452 55.6999 1.53486 55.6141 1.57603 55.5197C1.6172 55.4253 1.63839 55.3241 1.63839 55.222C1.63839 41.5201 13.0481 36.5569 16.351 35.4079L16.5664 39.1392C16.5777 39.3379 16.6688 39.5248 16.8209 39.6617C16.9729 39.7985 17.1745 39.8747 17.3839 39.8747C17.5043 39.8748 17.6232 39.8494 17.732 39.8004L22.6755 37.5972C22.7734 37.5537 22.8613 37.4923 22.9341 37.4165C23.0069 37.3406 23.0632 37.2519 23.0998 37.1553C23.1364 37.0587 23.1525 36.9562 23.1472 36.8537C23.1419 36.7512 23.1153 36.6507 23.069 36.558ZM11.7306 51.7416C11.5136 51.7419 11.3056 51.8239 11.1521 51.9696C10.9987 52.1154 10.9123 52.313 10.912 52.5191V55.2112C10.912 55.4175 10.9983 55.6154 11.1519 55.7613C11.3056 55.9073 11.5139 55.9892 11.7312 55.9892C11.9485 55.9892 12.1568 55.9073 12.3105 55.7613C12.4641 55.6154 12.5504 55.4175 12.5504 55.2112V52.5191C12.5492 52.3141 12.4629 52.1178 12.3103 51.9728C12.1577 51.8279 11.951 51.746 11.7352 51.7448L11.7306 51.7416ZM39.7363 33.7894L39.8202 32.3443C39.8261 32.2423 39.8108 32.1403 39.7751 32.0439C39.7395 31.9476 39.6842 31.8589 39.6124 31.7828C39.5407 31.7068 39.4539 31.6449 39.3569 31.6007C39.26 31.5565 39.1549 31.5309 39.0475 31.5253C38.9401 31.5198 38.8327 31.5343 38.7313 31.5682C38.6298 31.602 38.5364 31.6545 38.4563 31.7227C38.3763 31.7908 38.3111 31.8733 38.2646 31.9653C38.2181 32.0574 38.1911 32.1573 38.1852 32.2592L37.8621 37.8976L34.0207 36.1822C33.8241 36.0945 33.599 36.0846 33.3948 36.1545C33.1905 36.2245 33.0239 36.3687 32.9316 36.5553C32.8393 36.7419 32.8288 36.9558 32.9025 37.1497C32.9762 37.3437 33.128 37.5019 33.3245 37.5896L38.268 39.7929C38.3769 39.8415 38.4957 39.8669 38.6161 39.8672C38.8256 39.8672 39.0271 39.7909 39.1791 39.6541C39.3312 39.5173 39.4223 39.3303 39.4336 39.1317L39.6479 35.4112C42.911 36.586 54.3616 41.6741 54.3616 55.2155C54.3616 55.4219 54.4479 55.6198 54.6016 55.7657C54.7552 55.9116 54.9635 55.9935 55.1808 55.9935C55.3981 55.9935 55.6064 55.9116 55.7601 55.7657C55.9137 55.6198 56 55.4219 56 55.2155C56.0034 40.0244 42.5414 34.7295 39.7408 33.7916L39.7363 33.7894ZM44.2614 51.7416C44.0444 51.7419 43.8364 51.8239 43.6829 51.9696C43.5294 52.1154 43.4431 52.313 43.4428 52.5191V55.2112C43.4428 55.4175 43.5291 55.6154 43.6827 55.7613C43.8364 55.9073 44.0447 55.9892 44.262 55.9892C44.4793 55.9892 44.6876 55.9073 44.8413 55.7613C44.9949 55.6154 45.0812 55.4175 45.0812 55.2112V52.5191C45.08 52.3139 44.9936 52.1175 44.8407 51.9725C44.6878 51.8275 44.4809 51.7457 44.2648 51.7448L44.2614 51.7416ZM37.8904 16.0225C37.9991 16.0226 38.1067 16.0433 38.207 16.0832C38.3072 16.1232 38.398 16.1818 38.4742 16.2554C38.5504 16.3291 38.6104 16.4164 38.6507 16.5123C38.691 16.6082 38.7109 16.7107 38.7091 16.8139C38.6966 17.4601 38.5662 20.7154 37.1738 21.7901C36.1359 22.5165 34.8767 22.9014 33.5875 22.8863C33.0435 22.9158 32.499 22.8375 31.9886 22.6564C31.4781 22.4753 31.0129 22.1953 30.6226 21.8342C29.8357 20.7177 29.3156 19.4511 29.0987 18.1234H27.0578C26.8409 19.4511 26.3208 20.7177 25.5339 21.8342C25.1434 22.1951 24.6782 22.475 24.1678 22.6561C23.6574 22.8372 23.1129 22.9156 22.5689 22.8863C21.2793 22.9017 20.0197 22.5167 18.9815 21.7901C17.588 20.7132 17.4588 17.4568 17.4463 16.8139C17.4445 16.7107 17.4643 16.6082 17.5046 16.5123C17.5449 16.4164 17.6049 16.3291 17.6811 16.2554C17.7573 16.1818 17.8482 16.1232 17.9484 16.0832C18.0486 16.0433 18.1562 16.0226 18.2649 16.0225H26.4829C26.6573 16.021 26.8273 16.0735 26.9674 16.172C27.1076 16.2705 27.2101 16.4097 27.2596 16.5684H28.8923C28.9418 16.4097 29.0444 16.2705 29.1845 16.172C29.3246 16.0735 29.4947 16.021 29.669 16.0225H37.8904ZM25.5033 17.5785H19.1312C19.1238 18.6392 19.4311 19.6804 20.0178 20.5829C20.7656 21.0807 21.6593 21.3425 22.5723 21.3313C22.8882 21.3556 23.2059 21.3199 23.507 21.2263C23.8082 21.1328 24.0867 20.9833 24.3264 20.7864C24.9293 19.7977 25.3287 18.709 25.5033 17.5785ZM37.0253 17.5785H30.6543C30.8302 18.7079 31.2299 19.7953 31.8324 20.7832C32.0724 20.9798 32.3511 21.1293 32.6524 21.2228C32.9537 21.3163 33.2716 21.3521 33.5875 21.3281C34.5006 21.339 35.3941 21.0772 36.1421 20.5797C36.7284 19.6782 37.0357 18.6381 37.0287 17.5785H37.0253ZM15.4825 12.6767C15.699 12.6767 15.9067 12.5952 16.0601 12.4501C16.2136 12.305 16.3002 12.1081 16.3011 11.9024C16.2672 10.0025 16.9315 8.1507 18.1799 6.66571C18.3197 6.50777 18.3878 6.30355 18.369 6.09796C18.3503 5.89238 18.2464 5.70228 18.0801 5.56947C17.9138 5.43667 17.6988 5.37205 17.4823 5.38982C17.2659 5.40759 17.0657 5.5063 16.9259 5.66424C15.4349 7.42951 14.6386 9.63321 14.6741 11.896C14.6735 12.1023 14.7591 12.3004 14.9122 12.4467C15.0652 12.5931 15.2732 12.6758 15.4904 12.6767H15.4825ZM20.4419 4.59062H32.4605C32.727 4.59062 38.9891 4.7543 38.9891 11.77C38.9891 11.9763 39.0754 12.1742 39.229 12.3201C39.3827 12.466 39.591 12.548 39.8083 12.548C40.0256 12.548 40.2339 12.466 40.3876 12.3201C40.5412 12.1742 40.6275 11.9763 40.6275 11.77C40.6275 3.23594 32.5648 3.03564 32.4718 3.03457H20.4498C20.2325 3.03457 20.0242 3.11654 19.8706 3.26244C19.7169 3.40835 19.6306 3.60625 19.6306 3.81259C19.6306 4.01894 19.7169 4.21683 19.8706 4.36274C20.0242 4.50865 20.2325 4.59062 20.4498 4.59062H20.4419ZM21.8115 1.55497H33.1805C33.4878 1.54313 40.8633 1.52375 41.7455 8.69019C41.769 8.87914 41.8646 9.05335 42.0142 9.17993C42.1637 9.30651 42.3569 9.37669 42.5573 9.37722C42.5895 9.37733 42.6217 9.37553 42.6537 9.37183C42.869 9.34781 43.0656 9.2436 43.2001 9.08209C43.3347 8.92057 43.3963 8.71495 43.3714 8.51035C42.3192 -0.0323037 33.2417 1.82041e-06 33.1669 1.82041e-06H21.8195C21.6022 1.82476e-06 21.3939 0.081972 21.2402 0.22788C21.0866 0.373788 21.0003 0.571681 21.0003 0.778026C21.0003 0.984371 21.0866 1.18226 21.2402 1.32817C21.3939 1.47408 21.6022 1.55605 21.8195 1.55605L21.8115 1.55497ZM32.1033 49.4554L24.6915 45.9104C24.5781 46.5436 24.4545 47.1919 24.3343 47.8412L32.5331 51.7761C32.4038 51.0492 32.2609 50.2642 32.1124 49.4554H32.1033ZM24.9999 44.3124L31.7621 47.543C31.6192 46.7719 31.4775 46.002 31.3403 45.2654L25.3604 42.4171C25.2493 42.9911 25.128 43.6329 24.9999 44.3124ZM22.993 55.2187H28.2937L23.4182 52.8831C23.2356 53.8781 23.0905 54.704 22.993 55.2187ZM24.0497 49.4457C23.9363 50.0779 23.823 50.6938 23.7096 51.2764L31.9231 55.2144H33.1612C33.092 54.8429 32.9945 54.3174 32.88 53.6842L24.0497 49.4457Z" fill="#0DB14B"/>
</svg>
