<svg width="56" height="56" viewBox="0 0 56 56" fill="none" xmlns="http://www.w3.org/2000/svg">
<path d="M25.542 12.7791C25.4252 12.6957 25.2931 12.636 25.1533 12.6036C25.0134 12.5712 24.8685 12.5666 24.7268 12.5901C24.4408 12.6376 24.1853 12.7968 24.0167 13.0326C23.848 13.2683 23.78 13.5614 23.8276 13.8473C23.8751 14.1332 24.0344 14.3885 24.2703 14.5571C25.4751 15.4155 26.3758 16.6344 26.8425 18.0377C27.3091 19.441 27.3176 20.9562 26.8667 22.3647C26.4158 23.7731 25.5287 25.002 24.3336 25.8739C23.1385 26.7457 21.6972 27.2156 20.2175 27.2156C18.7379 27.2156 17.2965 26.7457 16.1014 25.8739C14.9063 25.002 14.0193 23.7731 13.5683 22.3647C13.1174 20.9562 13.1259 19.441 13.5926 18.0377C14.0592 16.6344 14.96 15.4155 16.1648 14.5571C16.394 14.3859 16.5471 14.1318 16.5911 13.8492C16.6351 13.5666 16.5666 13.2781 16.4002 13.0454C16.2339 12.8127 15.9829 12.6544 15.7012 12.6044C15.4194 12.5544 15.1293 12.6168 14.893 12.778C13.3113 13.9058 12.1289 15.5066 11.5165 17.3494C10.9041 19.1923 10.8933 21.182 11.4857 23.0314C12.0781 24.8807 13.243 26.4942 14.8124 27.639C16.3818 28.7838 18.2745 29.4007 20.2175 29.4007C22.1605 29.4007 24.0532 28.7838 25.6226 27.639C27.192 26.4942 28.357 24.8807 28.9494 23.0314C29.5418 21.182 29.531 19.1923 28.9186 17.3494C28.3061 15.5066 27.1238 13.9058 25.542 12.778V12.7791Z" fill="#0DB14B"/>
<path d="M43.3878 37.8125C42.3118 37.8125 41.26 38.1314 40.3654 38.7288C39.4707 39.3263 38.7734 40.1754 38.3616 41.169C37.9499 42.1625 37.8421 43.2557 38.052 44.3104C38.262 45.3651 38.7801 46.3339 39.5409 47.0943C40.3018 47.8547 41.2711 48.3726 42.3265 48.5824C43.3818 48.7922 44.4756 48.6845 45.4697 48.273C46.4638 47.8614 47.3135 47.1646 47.9113 46.2704C48.509 45.3763 48.8281 44.3251 48.8281 43.2497C48.8264 41.8082 48.2527 40.4262 47.2328 39.4069C46.2129 38.3876 44.8301 37.8142 43.3878 37.8125ZM43.3878 46.501C42.7444 46.501 42.1154 46.3103 41.5804 45.9531C41.0454 45.5958 40.6285 45.088 40.3822 44.4939C40.136 43.8998 40.0716 43.2461 40.1971 42.6154C40.3227 41.9847 40.6325 41.4054 41.0875 40.9506C41.5424 40.4959 42.1221 40.1863 42.7532 40.0608C43.3842 39.9354 44.0383 39.9998 44.6328 40.2458C45.2272 40.4919 45.7353 40.9087 46.0927 41.4433C46.4502 41.978 46.641 42.6066 46.641 43.2497C46.6401 44.1117 46.2971 44.9382 45.6872 45.5478C45.0773 46.1573 44.2503 46.5002 43.3878 46.501Z" fill="#0DB14B"/>
<path d="M55.8502 39.3269L53.0181 34.4257C52.873 34.1748 52.6343 33.9917 52.3542 33.9166C52.0741 33.8415 51.7757 33.8806 51.5245 34.0253L50.2172 34.7787C49.3399 34.0736 48.3592 33.5077 47.3097 33.1008V31.5941C47.3097 31.3041 47.1944 31.026 46.9892 30.8209C46.784 30.6158 46.5057 30.5006 46.2156 30.5006H40.5556C40.2654 30.5006 39.9871 30.6158 39.782 30.8209C39.5768 31.026 39.4615 31.3041 39.4615 31.5941V33.1008C38.4119 33.5076 37.4312 34.0735 36.554 34.7787L35.2467 34.0253C35.1933 33.995 35.1374 33.9691 35.0798 33.9478L36.9664 32.0601C37.1713 31.8551 37.2864 31.5771 37.2864 31.2874C37.2864 30.9976 37.1713 30.7196 36.9664 30.5146L35.4373 28.9864C36.197 27.6712 36.781 26.2623 37.1743 24.7955H39.3355C39.6257 24.7955 39.904 24.6803 40.1092 24.4752C40.3143 24.2701 40.4296 23.992 40.4296 23.702V16.7548C40.4296 16.4648 40.3143 16.1867 40.1092 15.9816C39.904 15.7766 39.6257 15.6614 39.3355 15.6614H37.1786C36.7851 14.1945 36.2008 12.7855 35.4405 11.4705L36.9621 9.94976C37.0637 9.84822 37.1444 9.72766 37.1994 9.59498C37.2544 9.4623 37.2827 9.32009 37.2827 9.17648C37.2827 9.03286 37.2544 8.89065 37.1994 8.75797C37.1444 8.62529 37.0637 8.50473 36.9621 8.40319L32.0452 3.49445C31.84 3.28966 31.5619 3.17463 31.272 3.17463C30.9821 3.17463 30.704 3.28966 30.4988 3.49445L28.9794 5.01303C27.6635 4.25376 26.2537 3.67013 24.7861 3.27705V1.12456C24.7849 0.835115 24.669 0.55793 24.4637 0.353765C24.2584 0.149601 23.9805 0.0351138 23.6909 0.0354009H16.7409C16.4507 0.0354009 16.1724 0.150605 15.9672 0.355669C15.762 0.560733 15.6468 0.83886 15.6468 1.12886V3.28135C14.1795 3.67457 12.7701 4.25819 11.4546 5.01733L9.93511 3.49445C9.72996 3.28966 9.45187 3.17463 9.16192 3.17463C8.87197 3.17463 8.59388 3.28966 8.38874 3.49445L3.47072 8.40427C3.3691 8.50581 3.28849 8.62636 3.23349 8.75905C3.17849 8.89173 3.15018 9.03394 3.15018 9.17755C3.15018 9.32117 3.17849 9.46338 3.23349 9.59606C3.28849 9.72874 3.3691 9.84929 3.47072 9.95083L4.99232 11.4716C4.23255 12.7867 3.64858 14.1956 3.25535 15.6625H1.10163C0.957407 15.6615 0.814414 15.689 0.680872 15.7434C0.54733 15.7979 0.425875 15.8781 0.323494 15.9797C0.221113 16.0812 0.139826 16.2019 0.0843085 16.335C0.0287911 16.468 0.00013906 16.6107 5.31045e-07 16.7548V23.702C-0.000141133 23.8456 0.0280616 23.9879 0.0829946 24.1206C0.137928 24.2533 0.218512 24.3739 0.320136 24.4755C0.42176 24.5771 0.542427 24.6576 0.675232 24.7125C0.808037 24.7674 0.950372 24.7956 1.09409 24.7955H3.25427C3.64778 26.2624 4.23212 27.6713 4.99232 28.9864L3.46318 30.5146C3.36159 30.6161 3.281 30.7365 3.22602 30.8691C3.17104 31.0017 3.14274 31.1438 3.14274 31.2874C3.14274 31.4309 3.17104 31.573 3.22602 31.7056C3.281 31.8382 3.36159 31.9587 3.46318 32.0601L8.37689 36.9742C8.47822 37.0762 8.59866 37.1572 8.73133 37.2126C8.864 37.268 9.00629 37.2967 9.15008 37.2971C9.29386 37.2967 9.43615 37.268 9.56882 37.2126C9.70149 37.1572 9.82193 37.0762 9.92326 36.9742L11.4546 35.4438C12.7704 36.2033 14.1802 36.7873 15.6478 37.1809V39.3484C15.6478 39.6384 15.7631 39.9166 15.9683 40.1216C16.1735 40.3267 16.4518 40.4419 16.7419 40.4419H23.6909C23.9811 40.4419 24.2594 40.3267 24.4645 40.1216C24.6697 39.9166 24.785 39.6384 24.785 39.3484V37.1819C26.2531 36.7881 27.6632 36.2038 28.9794 35.4438L30.5107 36.9742C30.6123 37.0758 30.7329 37.1564 30.8656 37.2113C30.9984 37.2663 31.1407 37.2946 31.2844 37.2946C31.4281 37.2946 31.5704 37.2663 31.7031 37.2113C31.8359 37.1564 31.9565 37.0758 32.0581 36.9742L32.5965 36.4361L30.9285 39.3237C30.8567 39.448 30.81 39.5852 30.7913 39.7275C30.7726 39.8698 30.7821 40.0144 30.8193 40.153C30.8565 40.2916 30.9206 40.4216 31.0081 40.5354C31.0956 40.6493 31.2047 40.7447 31.3291 40.8164L32.6342 41.5698C32.4622 42.681 32.4622 43.8121 32.6342 44.9234L31.3291 45.6767C31.2047 45.7484 31.0956 45.8439 31.0081 45.9577C30.9206 46.0716 30.8565 46.2015 30.8193 46.3401C30.7821 46.4788 30.7726 46.6234 30.7913 46.7657C30.81 46.908 30.8567 47.0452 30.9285 47.1695L33.7606 52.0707C33.9057 52.3216 34.1445 52.5047 34.4245 52.5798C34.7046 52.6549 35.003 52.6158 35.2542 52.4711L36.5615 51.7177C37.4388 52.4231 38.4194 52.9893 39.4691 53.3966V54.9034C39.4682 55.1926 39.5821 55.4705 39.7857 55.676C39.9893 55.8815 40.2662 55.9981 40.5556 56.0001H46.2188C46.509 56.0001 46.7873 55.8849 46.9924 55.6798C47.1976 55.4747 47.3129 55.1966 47.3129 54.9066V53.3999C48.3625 52.9926 49.3432 52.4263 50.2204 51.7209L51.5277 52.4743C51.6521 52.5461 51.7894 52.5927 51.9318 52.6114C52.0742 52.6301 52.2188 52.6206 52.3575 52.5834C52.4963 52.5463 52.6263 52.4821 52.7402 52.3947C52.8541 52.3073 52.9496 52.1983 53.0213 52.0739L55.8535 47.1727C55.9253 47.0484 55.9719 46.9112 55.9907 46.7689C56.0094 46.6266 55.9999 46.482 55.9627 46.3434C55.9255 46.2047 55.8613 46.0748 55.7738 45.961C55.6864 45.8471 55.5773 45.7516 55.4529 45.68L54.1477 44.9266C54.3197 43.8153 54.3197 42.6843 54.1477 41.573L55.4529 40.8196C55.7039 40.6747 55.8871 40.436 55.9623 40.1561C56.0374 39.8762 55.9982 39.578 55.8535 39.3269H55.8502ZM31.2838 34.656L29.9173 33.2913C29.7405 33.1145 29.5084 33.0036 29.2597 32.9772C29.0111 32.9507 28.7608 33.0103 28.5508 33.146C26.9967 34.1513 25.2726 34.8653 23.4626 35.2533C23.2185 35.3064 22.9999 35.4414 22.8432 35.6358C22.6865 35.8302 22.6011 36.0724 22.6011 36.322V38.2593H17.8349V36.322C17.835 36.0724 17.7496 35.8302 17.5928 35.6358C17.4361 35.4414 17.2176 35.3064 16.9735 35.2533C15.1635 34.8654 13.4393 34.1514 11.8853 33.146C11.6753 33.0103 11.425 32.9507 11.1763 32.9772C10.9276 33.0036 10.6955 33.1145 10.5188 33.2913L9.15331 34.656L5.78274 31.2884L7.14819 29.9238C7.3252 29.7469 7.43618 29.5148 7.46263 29.266C7.48909 29.0173 7.42942 28.767 7.29357 28.5569C6.28763 27.0039 5.57314 25.2806 5.18508 23.4717C5.13197 23.2277 4.99693 23.0093 4.8024 22.8526C4.60787 22.696 4.36556 22.6106 4.11576 22.6107H2.18818V17.8494H4.11576C4.36562 17.8496 4.60802 17.7643 4.80259 17.6077C4.99716 17.451 5.13215 17.2324 5.18508 16.9884C5.57315 15.1798 6.28764 13.4569 7.29357 11.9042C7.42942 11.6941 7.48909 11.4439 7.46263 11.1951C7.43618 10.9464 7.3252 10.7142 7.14819 10.5374L5.79135 9.18347L9.16084 5.81268L10.5166 7.16767C10.6935 7.34474 10.9258 7.45579 11.1747 7.48223C11.4236 7.50868 11.6741 7.44893 11.8842 7.31296C13.4374 6.30597 15.1613 5.59041 16.9713 5.20137C17.2154 5.14829 17.434 5.01333 17.5907 4.81891C17.7474 4.62449 17.8328 4.38232 17.8328 4.13266V2.22125H22.5968V4.13697C22.5968 4.38663 22.6822 4.62879 22.8389 4.82321C22.9956 5.01763 23.2142 5.1526 23.4583 5.20567C25.2683 5.59298 26.9925 6.30671 28.5465 7.31188C28.7567 7.44765 29.0071 7.50729 29.256 7.48085C29.5048 7.45441 29.7371 7.34349 29.9141 7.16659L31.2688 5.81268L34.6426 9.18347L33.2857 10.5395C33.1085 10.7163 32.9974 10.9485 32.971 11.1972C32.9445 11.446 33.0043 11.6963 33.1404 11.9064C34.1463 13.4591 34.8608 15.1819 35.2488 16.9905C35.3018 17.2346 35.4368 17.4531 35.6313 17.6098C35.8259 17.7665 36.0683 17.8518 36.3182 17.8515H38.2457V22.6128H36.3182C36.0684 22.6128 35.8261 22.6982 35.6315 22.8548C35.437 23.0114 35.302 23.2299 35.2488 23.4738C34.8606 25.2817 34.1461 27.0038 33.1404 28.5559C33.0045 28.7659 32.9448 29.0162 32.9713 29.265C32.9977 29.5137 33.1087 29.7458 33.2857 29.9227L34.6512 31.2874L31.2838 34.656ZM51.8583 41.2652C52.1625 42.5715 52.1625 43.9302 51.8583 45.2366C51.8049 45.465 51.8264 45.7046 51.9197 45.9199C52.0129 46.1352 52.173 46.3149 52.3763 46.4323L53.409 47.0274L51.671 50.0409L50.6361 49.4436C50.4331 49.3269 50.1979 49.2784 49.9653 49.3053C49.7326 49.3323 49.5148 49.4332 49.3439 49.5932C48.3658 50.51 47.1896 51.1895 45.9065 51.5789C45.6818 51.6468 45.4848 51.7851 45.3448 51.9735C45.2048 52.1619 45.1292 52.3903 45.129 52.625V53.8164H41.6486V52.6207C41.6487 52.386 41.5731 52.1575 41.433 51.969C41.293 51.7806 41.096 51.6423 40.8711 51.5746C39.588 51.1852 38.4118 50.5058 37.4338 49.5889C37.2628 49.429 37.0449 49.3282 36.8123 49.3013C36.5797 49.2744 36.3446 49.3227 36.1416 49.4393L35.1067 50.0366L33.3686 47.0231L34.4014 46.428C34.603 46.3104 34.7617 46.1314 34.8543 45.9173C34.9469 45.7031 34.9686 45.465 34.9161 45.2376C34.6119 43.9313 34.6119 42.5726 34.9161 41.2663C34.9693 41.038 34.9477 40.7986 34.8544 40.5835C34.7611 40.3684 34.6012 40.189 34.3981 40.0717L33.3654 39.4754L35.1035 36.4619L36.1383 37.0593C36.3414 37.1758 36.5765 37.2242 36.8091 37.1972C37.0417 37.1703 37.2595 37.0695 37.4306 36.9097C38.4086 35.9928 39.5848 35.3134 40.8679 34.924C41.0927 34.8561 41.2896 34.7177 41.4296 34.5293C41.5696 34.3409 41.6453 34.1125 41.6454 33.8779V32.6886H45.1204V33.88C45.1205 34.1147 45.1962 34.3431 45.3362 34.5315C45.4762 34.7199 45.6731 34.8582 45.8979 34.9261C47.181 35.3155 48.3572 35.995 49.3352 36.9118C49.5063 37.0715 49.7242 37.1722 49.9567 37.1991C50.1893 37.2261 50.4244 37.1778 50.6275 37.0614L51.6623 36.4641L53.4004 39.4776L52.3677 40.0738C52.1646 40.1911 52.0047 40.3706 51.9114 40.5857C51.8181 40.8008 51.7965 41.0401 51.8497 41.2684L51.8583 41.2652Z" fill="#0DB14B"/>
<path d="M45.7159 9.21681C46.0061 9.21681 46.2844 9.10161 46.4895 8.89654C46.6947 8.69148 46.81 8.41335 46.81 8.12335V1.12776C46.8146 0.981353 46.7897 0.835512 46.7368 0.698898C46.6839 0.562284 46.6041 0.437683 46.5021 0.332492C46.4001 0.227301 46.278 0.143664 46.1431 0.0865481C46.0081 0.0294318 45.863 0 45.7165 0C45.5699 0 45.4248 0.0294318 45.2898 0.0865481C45.1549 0.143664 45.0328 0.227301 44.9308 0.332492C44.8288 0.437683 44.749 0.562284 44.6961 0.698898C44.6432 0.835512 44.6183 0.981353 44.6229 1.12776V8.12335C44.6229 8.41316 44.738 8.69113 44.943 8.89616C45.1479 9.1012 45.4259 9.21653 45.7159 9.21681Z" fill="#0DB14B"/>
<path d="M41.3417 9.21681C41.4854 9.21681 41.6277 9.18853 41.7604 9.13358C41.8932 9.07862 42.0137 8.99808 42.1153 8.89654C42.2169 8.795 42.2975 8.67446 42.3525 8.5418C42.4075 8.40913 42.4358 8.26694 42.4358 8.12335V1.12776C42.4404 0.981353 42.4155 0.835512 42.3626 0.698898C42.3097 0.562284 42.2299 0.437683 42.1279 0.332492C42.0259 0.227301 41.9038 0.143664 41.7689 0.0865481C41.6339 0.0294318 41.4888 0 41.3423 0C41.1957 0 41.0506 0.0294318 40.9156 0.0865481C40.7807 0.143664 40.6586 0.227301 40.5566 0.332492C40.4546 0.437683 40.3747 0.562284 40.3219 0.698898C40.269 0.835512 40.2441 0.981353 40.2487 1.12776V8.12335C40.2487 8.41316 40.3638 8.69113 40.5688 8.89616C40.7737 9.1012 41.0517 9.21653 41.3417 9.21681Z" fill="#0DB14B"/>
<path d="M52.4969 0.0354004C51.569 0.0365396 50.6795 0.405422 50.0234 1.06114C49.3673 1.71685 48.9982 2.60587 48.9971 3.53319V5.71904C48.9971 6.64671 49.3658 7.53639 50.0221 8.19235C50.6785 8.84832 51.5687 9.21683 52.4969 9.21683C53.4251 9.21683 54.3153 8.84832 54.9716 8.19235C55.6279 7.53639 55.9967 6.64671 55.9967 5.71904V3.53319C55.9955 2.60587 55.6264 1.71685 54.9703 1.06114C54.3142 0.405422 53.4247 0.0365396 52.4969 0.0354004V0.0354004ZM53.8095 5.71904C53.7998 6.06034 53.6572 6.38439 53.4122 6.62234C53.1672 6.8603 52.839 6.99341 52.4974 6.99341C52.1558 6.99341 51.8276 6.8603 51.5826 6.62234C51.3376 6.38439 51.195 6.06034 51.1853 5.71904V3.53319C51.1853 3.18524 51.3236 2.85155 51.5697 2.60551C51.8159 2.35947 52.1498 2.22125 52.4979 2.22125C52.8461 2.22125 53.18 2.35947 53.4262 2.60551C53.6723 2.85155 53.8106 3.18524 53.8106 3.53319L53.8095 5.71904Z" fill="#0DB14B"/>
<path d="M54.9037 11.4026C54.6135 11.4026 54.3352 11.5178 54.13 11.7229C53.9248 11.9279 53.8096 12.206 53.8096 12.496V19.4916C53.8185 19.7756 53.9376 20.0449 54.1417 20.2426C54.3458 20.4402 54.6189 20.5508 54.9031 20.5508C55.1874 20.5508 55.4604 20.4402 55.6645 20.2426C55.8686 20.0449 55.9878 19.7756 55.9967 19.4916V12.496C55.9967 12.2062 55.8815 11.9283 55.6766 11.7232C55.4716 11.5182 55.1936 11.4029 54.9037 11.4026Z" fill="#0DB14B"/>
<path d="M48.1216 20.584C49.0495 20.5829 49.939 20.214 50.5951 19.5583C51.2512 18.9026 51.6203 18.0135 51.6214 17.0862V14.9004C51.6214 13.9727 51.2527 13.083 50.5963 12.4271C49.94 11.7711 49.0498 11.4026 48.1216 11.4026C47.1934 11.4026 46.3032 11.7711 45.6469 12.4271C44.9906 13.083 44.6218 13.9727 44.6218 14.9004V17.0862C44.623 18.0135 44.9921 18.9026 45.6481 19.5583C46.3042 20.214 47.1938 20.5829 48.1216 20.584ZM46.8089 14.9004C46.8089 14.5524 46.9472 14.2187 47.1934 13.9727C47.4396 13.7267 47.7735 13.5884 48.1216 13.5884C48.4698 13.5884 48.8037 13.7267 49.0498 13.9727C49.296 14.2187 49.4343 14.5524 49.4343 14.9004V17.0862C49.4245 17.4275 49.282 17.7516 49.037 17.9895C48.792 18.2275 48.4638 18.3606 48.1221 18.3606C47.7805 18.3606 47.4523 18.2275 47.2073 17.9895C46.9623 17.7516 46.8198 17.4275 46.81 17.0862L46.8089 14.9004Z" fill="#0DB14B"/>
<path d="M4.70371 46.8186C4.41354 46.8186 4.13525 46.9338 3.93007 47.1389C3.72489 47.3439 3.60962 47.6221 3.60962 47.9121V54.9076C3.61854 55.1916 3.73766 55.4609 3.94176 55.6586C4.14587 55.8563 4.41894 55.9668 4.70317 55.9668C4.9874 55.9668 5.26047 55.8563 5.46458 55.6586C5.66868 55.4609 5.7878 55.1916 5.79672 54.9076V47.9121C5.79672 47.6222 5.6816 47.3443 5.47665 47.1393C5.2717 46.9342 4.99369 46.8189 4.70371 46.8186Z" fill="#0DB14B"/>
<path d="M11.4836 46.8186C10.5558 46.8197 9.66624 47.1886 9.01015 47.8443C8.35406 48.5 7.98497 49.3891 7.98383 50.3164V52.5023C7.98383 53.4299 8.35255 54.3196 9.00889 54.9756C9.66523 55.6315 10.5554 56 11.4836 56C12.4118 56 13.302 55.6315 13.9583 54.9756C14.6147 54.3196 14.9834 53.4299 14.9834 52.5023V50.3164C14.9823 49.3891 14.6132 48.5 13.9571 47.8443C13.301 47.1886 12.4115 46.8197 11.4836 46.8186ZM12.7963 52.5023C12.7865 52.8436 12.644 53.1676 12.399 53.4055C12.154 53.6435 11.8258 53.7766 11.4842 53.7766C11.1425 53.7766 10.8143 53.6435 10.5693 53.4055C10.3243 53.1676 10.1818 52.8436 10.172 52.5023V50.3164C10.172 49.9684 10.3103 49.6347 10.5565 49.3887C10.8027 49.1427 11.1365 49.0045 11.4847 49.0045C11.8328 49.0045 12.1667 49.1427 12.4129 49.3887C12.6591 49.6347 12.7974 49.9684 12.7974 50.3164L12.7963 52.5023Z" fill="#0DB14B"/>
<path d="M18.2646 46.8186C17.9745 46.8186 17.6962 46.9338 17.491 47.1389C17.2858 47.3439 17.1705 47.6221 17.1705 47.9121V54.9076C17.1794 55.1916 17.2986 55.4609 17.5027 55.6586C17.7068 55.8563 17.9799 55.9668 18.2641 55.9668C18.5483 55.9668 18.8214 55.8563 19.0255 55.6586C19.2296 55.4609 19.3487 55.1916 19.3576 54.9076V47.9121C19.3576 47.6222 19.2425 47.3443 19.0376 47.1393C18.8326 46.9342 18.5546 46.8189 18.2646 46.8186Z" fill="#0DB14B"/>
<path d="M25.0456 46.8186C24.1177 46.8197 23.2282 47.1886 22.5721 47.8443C21.916 48.5 21.5469 49.3891 21.5458 50.3164V52.5023C21.5458 53.4299 21.9145 54.3196 22.5708 54.9756C23.2272 55.6315 24.1174 56 25.0456 56C25.9738 56 26.864 55.6315 27.5203 54.9756C28.1766 54.3196 28.5454 53.4299 28.5454 52.5023V50.3164C28.5442 49.3891 28.1751 48.5 27.519 47.8443C26.8629 47.1886 25.9734 46.8197 25.0456 46.8186ZM26.3583 52.5023C26.3485 52.8436 26.2059 53.1676 25.9609 53.4055C25.7159 53.6435 25.3877 53.7766 25.0461 53.7766C24.7045 53.7766 24.3763 53.6435 24.1313 53.4055C23.8863 53.1676 23.7437 52.8436 23.734 52.5023V50.3164C23.734 49.9684 23.8723 49.6347 24.1184 49.3887C24.3646 49.1427 24.6985 49.0045 25.0467 49.0045C25.3948 49.0045 25.7287 49.1427 25.9749 49.3887C26.221 49.6347 26.3593 49.9684 26.3593 50.3164L26.3583 52.5023Z" fill="#0DB14B"/>
<path d="M20.217 13.2623C19.9636 13.2631 19.7177 13.1761 19.5214 13.0161C19.325 12.856 19.1902 12.6329 19.14 12.3847C19.0898 12.1365 19.1272 11.8785 19.246 11.6548C19.3647 11.4311 19.5574 11.2555 19.7912 11.1579C20.025 11.0602 20.2855 11.0466 20.5282 11.1194C20.7709 11.1922 20.9808 11.3468 21.1222 11.5569C21.2636 11.7671 21.3277 12.0197 21.3037 12.2718C21.2796 12.5239 21.1688 12.7598 20.9901 12.9394C20.7851 13.1447 20.5072 13.2608 20.217 13.2623Z" fill="#0DB14B"/>
</svg>
