<svg id="monitor" xmlns="http://www.w3.org/2000/svg" width="48" height="48" viewBox="0 0 48 48">
  <path id="Контур_124" data-name="Контур 124" d="M87.53,52.13l1.76,1.121,1.76-1.12a16.185,16.185,0,0,0,7.53-13.717v-1.99l-9.29-5.913L80,36.424v1.99A16.183,16.183,0,0,0,87.53,52.13Zm2.69-1.306-.93.592-.929-.592a14.741,14.741,0,0,1-3.7-3.365,4.639,4.639,0,0,1,9.267,0,14.751,14.751,0,0,1-3.7,3.365ZM87.742,39.946V38.4a1.548,1.548,0,1,1,3.1,0v1.548a1.548,1.548,0,1,1-3.1,0Zm-6.194-2.672,7.742-4.926,7.742,4.926v1.14a14.68,14.68,0,0,1-1.9,7.24,6.217,6.217,0,0,0-3.506-3.7,3.069,3.069,0,0,0,.76-2.01V38.4a3.1,3.1,0,1,0-6.194,0v1.548a3.069,3.069,0,0,0,.76,2.01,6.219,6.219,0,0,0-3.506,3.7,14.68,14.68,0,0,1-1.9-7.24Zm0,0" transform="translate(-72.258 -27.559)"/>
  <path id="Контур_125" data-name="Контур 125" d="M32,400h1.548v1.548H32Zm0,0" transform="translate(-28.903 -361.29)"/>
  <path id="Контур_126" data-name="Контур 126" d="M64,400h1.548v1.548H64Zm0,0" transform="translate(-57.806 -361.29)"/>
  <path id="Контур_127" data-name="Контур 127" d="M96,400h1.548v1.548H96Zm0,0" transform="translate(-86.71 -361.29)"/>
  <path id="Контур_128" data-name="Контур 128" d="M44.129,9.29h-.774V0H4.645V9.29H3.871A3.876,3.876,0,0,0,0,13.161V39.484a3.876,3.876,0,0,0,3.871,3.871H13.935v3.1h-3.1V48H37.161V46.452h-3.1v-3.1H44.129A3.876,3.876,0,0,0,48,39.484V13.161A3.876,3.876,0,0,0,44.129,9.29ZM3.871,10.839H6.194V1.548H41.806V27.871H6.194V12.387H4.645V29.419h38.71V10.839h.774a2.326,2.326,0,0,1,2.323,2.323v24h-32.2l-1.548-1.548H1.548V13.161a2.326,2.326,0,0,1,2.323-2.323ZM44.129,41.806h-27.1v1.548H32.516v3.1H15.484V41.806H3.871a2.326,2.326,0,0,1-2.323-2.323V37.161H12.067l1.548,1.548H46.452v.774a2.326,2.326,0,0,1-2.323,2.323Zm0,0"/>
  <path id="Контур_129" data-name="Контур 129" d="M288,32h12.387v1.548H288Zm0,0" transform="translate(-260.129 -28.903)"/>
  <path id="Контур_130" data-name="Контур 130" d="M288,64h12.387v1.548H288Zm0,0" transform="translate(-260.129 -57.806)"/>
  <path id="Контур_131" data-name="Контур 131" d="M320,96h9.29v1.548H320Zm0,0" transform="translate(-289.032 -86.71)"/>
  <path id="Контур_132" data-name="Контур 132" d="M288,96h1.548v1.548H288Zm0,0" transform="translate(-260.129 -86.71)"/>
  <path id="Контур_133" data-name="Контур 133" d="M288,128h12.387v1.548H288Zm0,0" transform="translate(-260.129 -115.613)"/>
  <path id="Контур_134" data-name="Контур 134" d="M288,160h12.387v1.548H288Zm0,0" transform="translate(-260.129 -144.516)"/>
  <path id="Контур_135" data-name="Контур 135" d="M400,192h1.548v1.548H400Zm0,0" transform="translate(-361.29 -173.419)"/>
  <path id="Контур_136" data-name="Контур 136" d="M288,192h9.29v1.548H288Zm0,0" transform="translate(-260.129 -173.419)"/>
  <path id="Контур_137" data-name="Контур 137" d="M288,224h12.387v1.548H288Zm0,0" transform="translate(-260.129 -202.323)"/>
  <path id="Контур_138" data-name="Контур 138" d="M344,256h1.548v1.548H344Zm0,0" transform="translate(-310.71 -231.226)"/>
  <path id="Контур_139" data-name="Контур 139" d="M312,256h1.548v1.548H312Zm0,0" transform="translate(-281.806 -231.226)"/>
  <path id="Контур_140" data-name="Контур 140" d="M376,256h1.548v1.548H376Zm0,0" transform="translate(-339.613 -231.226)"/>
</svg>
