<svg xmlns="http://www.w3.org/2000/svg" width="32.014" height="32" viewBox="0 0 32.014 32">
  <g id="Page-1" transform="translate(0 -0.027)">
    <g id="_016---Cloud-Storage" data-name="016---Cloud-Storage" transform="translate(0 0.027)">
      <path id="Shape" d="M37.583,5.862A5.336,5.336,0,0,0,33.534,4a.534.534,0,1,0,0,1.067,4.269,4.269,0,0,1,3.239,1.494.535.535,0,0,0,.811-.7Z" transform="translate(-15.392 -1.88)" fill="#313fa0"/>
      <path id="Shape-2" data-name="Shape" d="M25.612,7.483a7.47,7.47,0,0,0-14.46-2.62A5.3,5.3,0,0,0,7.107,7.531a6.237,6.237,0,0,0-.7-.048,6.4,6.4,0,1,0,0,12.806h4.269v3.735a1.6,1.6,0,0,0,1.067,1.5V30.96a1.067,1.067,0,0,0,1.067,1.067h6.4a1.067,1.067,0,0,0,1.067-1.067V25.528a1.6,1.6,0,0,0,1.067-1.5V20.289h4.269a6.4,6.4,0,0,0,0-12.806ZM12.806,30.96V25.624h6.4V30.96Zm7.47-6.936a.534.534,0,0,1-.534.534h-7.47a.534.534,0,0,1-.534-.534V14.953a4.269,4.269,0,1,1,8.537,0Zm5.336-4.8H21.343V14.953a5.336,5.336,0,0,0-10.671,0v4.269H6.4A5.336,5.336,0,1,1,6.4,8.55a5.266,5.266,0,0,1,2.956.9.539.539,0,0,0,.6-.9,6.318,6.318,0,0,0-1.739-.816,4.269,4.269,0,0,1,3.367-1.852h.155a4.215,4.215,0,0,1,2.561.854.534.534,0,0,0,.64-.854A5.288,5.288,0,0,0,12.31,4.847,6.4,6.4,0,0,1,24.544,7.483v.091a6.3,6.3,0,0,0-2.486.976.534.534,0,0,0,.6.886,5.266,5.266,0,0,1,2.956-.886,5.336,5.336,0,0,1,0,10.671Z" transform="translate(0 -0.027)" fill="#313fa0"/>
      <path id="Shape-3" data-name="Shape" d="M27.534,52a.534.534,0,0,0-.534.534V53.6a.534.534,0,1,0,1.067,0V52.534A.534.534,0,0,0,27.534,52Z" transform="translate(-12.593 -24.269)" fill="#313fa0"/>
      <path id="Shape-4" data-name="Shape" d="M31.534,52a.534.534,0,0,0-.534.534V53.6a.534.534,0,1,0,1.067,0V52.534A.534.534,0,0,0,31.534,52Z" transform="translate(-14.459 -24.269)" fill="#313fa0"/>
      <path id="Shape-5" data-name="Shape" d="M27.2,22A3.2,3.2,0,0,0,24,25.2V30a.534.534,0,0,0,1.067,0V25.2a2.134,2.134,0,0,1,4.269,0V30A.534.534,0,0,0,30.4,30V25.2A3.2,3.2,0,0,0,27.2,22Z" transform="translate(-11.194 -10.276)" fill="#313fa0"/>
    </g>
  </g>
</svg>
