<svg width="56" height="56" viewBox="0 0 56 56" fill="none" xmlns="http://www.w3.org/2000/svg">
<path d="M53.1031 0H2.89692C2.12861 0 1.39177 0.305211 0.848489 0.848489C0.305211 1.39177 0 2.12861 0 2.89692L0 53.1031C0 53.8714 0.305211 54.6082 0.848489 55.1515C1.39177 55.6948 2.12861 56 2.89692 56H53.1031C53.8714 56 54.6082 55.6948 55.1515 55.1515C55.6948 54.6082 56 53.8714 56 53.1031V2.89692C56 2.12861 55.6948 1.39177 55.1515 0.848489C54.6082 0.305211 53.8714 0 53.1031 0V0ZM54.0723 2.89692V27.0308H45.1123C44.9334 27.0319 44.7583 27.0825 44.6064 27.1771C44.4545 27.2716 44.3317 27.4063 44.2517 27.5663C44.1716 27.7263 44.1374 27.9053 44.1528 28.0836C44.1683 28.2618 44.2327 28.4323 44.3391 28.5762C45.0319 29.529 45.3977 30.6806 45.3815 31.8586C45.3815 34.5208 43.6498 36.6865 41.5197 36.6865C39.3895 36.6865 37.6578 34.5208 37.6578 31.8586C37.6413 30.6807 38.0067 29.5291 38.6992 28.5762C38.8056 28.4323 38.87 28.2618 38.8855 28.0836C38.9009 27.9053 38.8667 27.7263 38.7866 27.5663C38.7066 27.4063 38.5838 27.2716 38.4319 27.1771C38.28 27.0825 38.1049 27.0319 37.926 27.0308H28.9692V19.7185C29.89 20.0888 30.8737 20.2779 31.8662 20.2752C35.5934 20.2752 38.6249 17.6766 38.6249 14.4825C38.6249 11.2883 35.5934 8.68969 31.8662 8.68969C30.8737 8.68706 29.89 8.87611 28.9692 9.24646V1.93092H53.1031C53.3601 1.93092 53.6067 2.03304 53.7884 2.2148C53.9702 2.39657 54.0723 2.6431 54.0723 2.90015V2.89692ZM1.93415 2.89692C1.93415 2.63987 2.03627 2.39334 2.21804 2.21157C2.3998 2.02981 2.64633 1.92769 2.90338 1.92769H27.0308V10.8877C27.0319 11.0666 27.0825 11.2417 27.1771 11.3936C27.2716 11.5455 27.4063 11.6683 27.5663 11.7483C27.7263 11.8284 27.9053 11.8626 28.0836 11.8472C28.2618 11.8317 28.4323 11.7673 28.5762 11.6609C29.5294 10.9688 30.6807 10.6031 31.8586 10.6185C34.5208 10.6185 36.6865 12.3502 36.6865 14.4803C36.6865 16.6105 34.5208 18.3422 31.8586 18.3422C30.6808 18.3579 29.5295 17.9926 28.5762 17.3008C28.4323 17.1944 28.2618 17.13 28.0836 17.1145C27.9053 17.0991 27.7263 17.1333 27.5663 17.2134C27.4063 17.2934 27.2716 17.4162 27.1771 17.5681C27.0825 17.72 27.0319 17.8951 27.0308 18.074V27.0308H19.7185C20.0888 26.11 20.2779 25.1263 20.2752 24.1338C20.2752 20.4077 17.6766 17.3751 14.4825 17.3751C11.2883 17.3751 8.68969 20.4077 8.68969 24.1338C8.68706 25.1263 8.87611 26.11 9.24646 27.0308H1.93092L1.93415 2.89692ZM1.93415 53.1042V28.9692H10.8942C11.0731 28.9681 11.2482 28.9175 11.4001 28.8229C11.552 28.7284 11.6747 28.5937 11.7548 28.4337C11.8348 28.2737 11.8691 28.0947 11.8536 27.9164C11.8382 27.7382 11.7737 27.5677 11.6674 27.4238C10.9745 26.471 10.6088 25.3194 10.6249 24.1414C10.6249 21.4792 12.3566 19.3135 14.4868 19.3135C16.6169 19.3135 18.3486 21.4792 18.3486 24.1414C18.3651 25.3193 17.9998 26.4709 17.3072 27.4238C17.2009 27.5677 17.1364 27.7382 17.121 27.9164C17.1056 28.0947 17.1398 28.2737 17.2198 28.4337C17.2999 28.5937 17.4227 28.7284 17.5746 28.8229C17.7265 28.9175 17.9016 28.9681 18.0805 28.9692H27.0308V36.2815C26.11 35.9112 25.1263 35.7221 24.1338 35.7248C20.4066 35.7248 17.3751 38.3234 17.3751 41.5175C17.3751 44.7117 20.4066 47.3103 24.1338 47.3103C25.1263 47.3129 26.11 47.1239 27.0308 46.7535V54.0691H2.89692C2.63987 54.0691 2.39334 53.967 2.21157 53.7852C2.02981 53.6034 1.92769 53.3569 1.92769 53.0998L1.93415 53.1042ZM54.0723 53.1042C54.0723 53.3612 53.9702 53.6077 53.7884 53.7895C53.6067 53.9713 53.3601 54.0734 53.1031 54.0734H28.9692V45.1134C28.9681 44.9345 28.9175 44.7594 28.8229 44.6075C28.7284 44.4556 28.5937 44.3328 28.4337 44.2528C28.2737 44.1727 28.0947 44.1385 27.9164 44.1539C27.7382 44.1693 27.5677 44.2338 27.4238 44.3402C26.4706 45.0323 25.3193 45.398 24.1414 45.3826C21.4792 45.3826 19.3135 43.6509 19.3135 41.5208C19.3135 39.3906 21.4792 37.6589 24.1414 37.6589C25.3192 37.6432 26.4705 38.0085 27.4238 38.7003C27.5677 38.8067 27.7382 38.8711 27.9164 38.8865C28.0947 38.902 28.2737 38.8678 28.4337 38.7877C28.5937 38.7077 28.7284 38.5849 28.8229 38.433C28.9175 38.2811 28.9681 38.106 28.9692 37.9271V28.9692H36.2815C35.9112 29.89 35.7221 30.8737 35.7248 31.8662C35.7248 35.5923 38.3234 38.6249 41.5175 38.6249C44.7117 38.6249 47.3103 35.5923 47.3103 31.8662C47.3129 30.8737 47.1239 29.89 46.7535 28.9692H54.0691L54.0723 53.1042Z" fill="#0DB14B"/>
</svg>
