<svg id="qr-code" xmlns="http://www.w3.org/2000/svg" width="32" height="32" viewBox="0 0 32 32">
  <path id="Контур_46" data-name="Контур 46" d="M286.625,267.25a.625.625,0,1,0-.625-.625A.625.625,0,0,0,286.625,267.25Zm0,0" transform="translate(-268.125 -249.375)" fill="#e65100"/>
  <path id="Контур_47" data-name="Контур 47" d="M66.625,267.25a.625.625,0,1,0-.625-.625A.625.625,0,0,0,66.625,267.25Zm0,0" transform="translate(-61.875 -249.375)" fill="#e65100"/>
  <path id="Контур_48" data-name="Контур 48" d="M.625,7.875A.625.625,0,0,0,1.25,7.25v-6h6A.625.625,0,0,0,7.25,0H.625A.625.625,0,0,0,0,.625V7.25A.625.625,0,0,0,.625,7.875Zm0,0" fill="#e65100"/>
  <path id="Контур_49" data-name="Контур 49" d="M7.875,393.25a.625.625,0,0,0-.625-.625h-6v-6a.625.625,0,0,0-1.25,0v6.625a.625.625,0,0,0,.625.625H7.25A.625.625,0,0,0,7.875,393.25Zm0,0" transform="translate(0 -361.875)" fill="#e65100"/>
  <path id="Контур_50" data-name="Контур 50" d="M393.25,386a.625.625,0,0,0-.625.625v6h-6a.625.625,0,0,0,0,1.25h6.625a.625.625,0,0,0,.625-.625v-6.625A.625.625,0,0,0,393.25,386Zm0,0" transform="translate(-361.875 -361.875)" fill="#e65100"/>
  <path id="Контур_51" data-name="Контур 51" d="M393.25,0h-6.625a.625.625,0,0,0,0,1.25h6v6a.625.625,0,0,0,1.25,0V.625A.625.625,0,0,0,393.25,0Zm0,0" transform="translate(-361.875)" fill="#e65100"/>
  <path id="Контур_52" data-name="Контур 52" d="M66,332.875a.625.625,0,0,0,.625.625h6.25a.625.625,0,0,0,.625-.625v-6.25a.625.625,0,0,0-.625-.625h-6.25a.625.625,0,0,0-.625.625Zm1.25-5.625h5v5h-5Zm0,0" transform="translate(-61.875 -305.625)" fill="#e65100"/>
  <path id="Контур_53" data-name="Контур 53" d="M72.875,66h-6.25a.625.625,0,0,0-.625.625v6.25a.625.625,0,0,0,.625.625h6.25a.625.625,0,0,0,.625-.625v-6.25A.625.625,0,0,0,72.875,66Zm-.625,6.25h-5v-5h5Zm0,0" transform="translate(-61.875 -61.875)" fill="#e65100"/>
  <path id="Контур_54" data-name="Контур 54" d="M333.5,66.625a.625.625,0,0,0-.625-.625h-6.25a.625.625,0,0,0-.625.625v6.25a.625.625,0,0,0,.625.625h6.25a.625.625,0,0,0,.625-.625Zm-1.25,5.625h-5v-5h5Zm0,0" transform="translate(-305.625 -61.875)" fill="#e65100"/>
  <path id="Контур_55" data-name="Контур 55" d="M333.5,332.875v-6.25a.625.625,0,0,0-.625-.625h-6.25a.625.625,0,0,0-.625.625v6.25a.625.625,0,0,0,.625.625h6.25A.625.625,0,0,0,333.5,332.875Zm-1.25-.625h-5v-5h5Zm0,0" transform="translate(-305.625 -305.625)" fill="#e65100"/>
  <path id="Контур_56" data-name="Контур 56" d="M107.875,366h-1.25a.625.625,0,0,0-.625.625v1.25a.625.625,0,0,0,.625.625h1.25a.625.625,0,0,0,.625-.625v-1.25A.625.625,0,0,0,107.875,366Zm0,0" transform="translate(-99.375 -343.125)" fill="#e65100"/>
  <path id="Контур_57" data-name="Контур 57" d="M106.625,108.5h1.25a.625.625,0,0,0,.625-.625v-1.25a.625.625,0,0,0-.625-.625h-1.25a.625.625,0,0,0-.625.625v1.25A.625.625,0,0,0,106.625,108.5Zm0,0" transform="translate(-99.375 -99.375)" fill="#e65100"/>
  <path id="Контур_58" data-name="Контур 58" d="M366.625,108.5h1.25a.625.625,0,0,0,.625-.625v-1.25a.625.625,0,0,0-.625-.625h-1.25a.625.625,0,0,0-.625.625v1.25A.625.625,0,0,0,366.625,108.5Zm0,0" transform="translate(-343.125 -99.375)" fill="#e65100"/>
  <path id="Контур_59" data-name="Контур 59" d="M366.625,368.5h1.25a.625.625,0,0,0,.625-.625v-1.25a.625.625,0,0,0-.625-.625h-1.25a.625.625,0,0,0-.625.625v1.25A.625.625,0,0,0,366.625,368.5Zm0,0" transform="translate(-343.125 -343.125)" fill="#e65100"/>
  <path id="Контур_60" data-name="Контур 60" d="M106,266.625a.625.625,0,0,0,.625.625h8.125v3.125a.625.625,0,0,0,1.25,0v-3.75a.625.625,0,0,0-.625-.625h-8.75A.625.625,0,0,0,106,266.625Zm0,0" transform="translate(-99.375 -249.375)" fill="#e65100"/>
  <path id="Контур_61" data-name="Контур 61" d="M72.875,227.25a.625.625,0,0,0,0-1.25h-6.25a.625.625,0,0,0,0,1.25Zm0,0" transform="translate(-61.875 -211.875)" fill="#e65100"/>
  <path id="Контур_62" data-name="Контур 62" d="M206.625,227.25h2.5a.625.625,0,0,0,0-1.25h-2.5a.625.625,0,0,0,0,1.25Zm0,0" transform="translate(-193.125 -211.875)" fill="#e65100"/>
  <path id="Контур_63" data-name="Контур 63" d="M206.625,66a.625.625,0,0,0-.625.625v6.25a.625.625,0,0,0,.625.625H211v3.125a.625.625,0,0,0,.625.625h2.5a.625.625,0,0,0,0-1.25H212.25V72.875a.625.625,0,0,0-.625-.625H207.25V66.625A.625.625,0,0,0,206.625,66Zm0,0" transform="translate(-193.125 -61.875)" fill="#e65100"/>
  <path id="Контур_64" data-name="Контур 64" d="M370.375,226h-3.75a.625.625,0,0,0,0,1.25h3.75a.625.625,0,0,0,0-1.25Zm0,0" transform="translate(-343.125 -211.875)" fill="#e65100"/>
  <path id="Контур_65" data-name="Контур 65" d="M332.875,266h-6.25a.625.625,0,0,0,0,1.25h6.25a.625.625,0,0,0,0-1.25Zm0,0" transform="translate(-305.625 -249.375)" fill="#e65100"/>
  <path id="Контур_66" data-name="Контур 66" d="M209.125,366h-2.5a.625.625,0,0,0-.625.625v3.75a.625.625,0,0,0,1.25,0V367.25h1.875a.625.625,0,0,0,0-1.25Zm0,0" transform="translate(-193.125 -343.125)" fill="#e65100"/>
  <path id="Контур_67" data-name="Контур 67" d="M248.5,313.5h-1.875a.625.625,0,0,0,0,1.25h2.5a.625.625,0,0,0,.625-.625v-7.5a.625.625,0,0,0-1.25,0Zm0,0" transform="translate(-230.625 -286.875)" fill="#e65100"/>
  <path id="Контур_68" data-name="Контур 68" d="M249.125,71a.625.625,0,0,0,.625-.625v-3.75a.625.625,0,0,0-1.25,0V69.75h-1.875a.625.625,0,0,0,0,1.25Zm0,0" transform="translate(-230.625 -61.875)" fill="#e65100"/>
</svg>
