<svg id="qr-code_1_" data-name="qr-code (1)" xmlns="http://www.w3.org/2000/svg" width="52" height="80" viewBox="0 0 52 80">
  <path id="Контур_70" data-name="Контур 70" d="M98.091,80h37.818A7.2,7.2,0,0,0,143,72.813V7.031A7.069,7.069,0,0,0,135.909,0H98.091A7.069,7.069,0,0,0,91,7.031V72.813A7.2,7.2,0,0,0,98.091,80Zm21.273-9.531h-4.727a2.344,2.344,0,1,1,0-4.687h4.727a2.344,2.344,0,1,1,0,4.688Zm2.364-14.063a2.344,2.344,0,1,1,2.364-2.344A2.354,2.354,0,0,1,121.727,56.406Zm9.455,0a2.344,2.344,0,1,1,2.364-2.344A2.354,2.354,0,0,1,131.182,56.406Zm0-9.375h-9.455a2.344,2.344,0,1,1,0-4.687h9.455a2.344,2.344,0,1,1,0,4.688Zm2.364-21.094v9.375a2.352,2.352,0,0,1-2.364,2.344h-9.455a2.344,2.344,0,1,1,0-4.687h7.091V28.281h-7.091a2.344,2.344,0,1,1,0-4.687h9.455A2.352,2.352,0,0,1,133.545,25.938ZM114.636,9.375h4.727a2.344,2.344,0,1,1,0,4.688h-4.727a2.344,2.344,0,1,1,0-4.687ZM100.455,25.938a2.352,2.352,0,0,1,2.364-2.344h9.455a2.352,2.352,0,0,1,2.364,2.344v9.375a2.364,2.364,0,0,1-4.727,0V28.281h-4.727v7.031a2.364,2.364,0,0,1-4.727,0Zm0,18.75a2.352,2.352,0,0,1,2.364-2.344h9.455a2.344,2.344,0,1,1,0,4.688h-7.091v4.688h7.091a2.344,2.344,0,1,1,0,4.687h-9.455a2.352,2.352,0,0,1-2.364-2.344Z" transform="translate(-91)"/>
</svg>
