<svg width="56" height="55" viewBox="0 0 56 55" fill="none" xmlns="http://www.w3.org/2000/svg">
<path d="M0.917293 7.33423C2.62113 7.33423 4.04391 6.16058 4.45366 4.58441H20.829C20.5109 5.13005 19.9262 5.50118 19.2508 5.50118H18.334C17.827 5.50118 17.4172 5.91196 17.4172 6.41796V9.34949L9.88484 11.0235C9.62282 11.0811 9.39891 11.2525 9.27228 11.4898C9.14668 11.7271 9.13278 12.0087 9.23213 12.2579L9.6429 13.2838L2.46568 15.6285C2.10535 15.7458 1.85518 16.0722 1.8351 16.45L0.00205902 50.3667C-0.0118394 50.6179 0.0792722 50.8634 0.25223 51.0467C0.425702 51.231 0.666607 51.3344 0.917808 51.3344H4.58441V54.0843C4.58441 54.5903 4.99415 55.001 5.50118 55.001H31.1679C31.6749 55.001 32.0847 54.5903 32.0847 54.0843V51.3344H35.7513C36.0025 51.3344 36.2434 51.231 36.4168 51.0482C36.5898 50.865 36.6809 50.6194 36.667 50.3682L34.9693 18.9661L36.4683 15.0226L43.1195 17.1784L44.8665 49.5009H39.4554L40.3336 27.5378L38.5021 27.4647L37.5853 50.3811C37.575 50.6308 37.6677 50.8732 37.8401 51.0529C38.0126 51.2325 38.2519 51.3344 38.5011 51.3344H45.8343C46.0855 51.3344 46.3264 51.231 46.4999 51.0482C46.6728 50.865 46.7639 50.6194 46.75 50.3682L45.0184 18.3345H49.5009V36.6675H46.7511V38.5006H50.4177C50.9247 38.5006 51.3344 38.0898 51.3344 37.5838V18.334H54.0843C54.4024 18.334 54.6963 18.1688 54.8641 17.8996C55.0319 17.6293 55.0468 17.2916 54.9043 17.0075L52.1544 11.5073C52.0304 11.2608 51.8023 11.0832 51.5331 11.0224L44.0007 9.34846V7.33371C45.7046 7.33371 47.1273 6.16058 47.5371 4.58389H50.5474C50.9571 6.16058 52.3799 7.33371 54.0837 7.33371C54.5908 7.33371 55.0005 6.92294 55.0005 6.41693V0.916778C55.0005 0.410774 54.5908 0 54.0837 0C52.3799 0 50.9571 1.17313 50.5474 2.74982H47.5371C47.1273 1.17313 45.7046 0 44.0007 0H41.2509V1.83304H44.0007C44.6761 1.83304 45.2614 2.20418 45.579 2.74982H32.8702C32.4604 1.17313 31.0377 0 29.3338 0H26.584V1.83304H29.3338C30.0092 1.83304 30.5944 2.20418 30.9121 2.74982H22.7866C22.3769 1.17313 20.9541 0 19.2503 0H16.5005V1.83304H19.2503C19.9256 1.83304 20.5109 2.20418 20.8285 2.74982H4.45314C4.0434 1.17313 2.62062 0 0.916778 0C0.409745 0 0 0.410774 0 0.916778V6.41693C0 6.92294 0.409745 7.33371 0.916778 7.33371L0.917293 7.33423ZM53.167 2.08064V5.25513C52.6187 4.93701 52.2502 4.34504 52.2502 3.66763C52.2502 2.99021 52.6187 2.39824 53.167 2.08064ZM22.7872 4.58389H30.9126C30.5944 5.12953 30.0097 5.50067 29.3343 5.50067H28.4175C27.9105 5.50067 27.5008 5.91144 27.5008 6.41745V10.084C27.5008 10.5139 27.7988 10.886 28.2183 10.9787L30.7005 11.5305L29.4697 14.0955L27.0184 13.3007L27.4354 12.2573C27.5342 12.0082 27.5208 11.7266 27.3952 11.4893C27.2686 11.251 27.0452 11.0806 26.7827 11.023L19.2503 9.34898V7.33423C20.9541 7.33423 22.3769 6.16058 22.7866 4.58441L22.7872 4.58389ZM18.334 11.0224L25.3326 12.578L22.5246 19.5962L19.9359 17.5253L23.3889 15.4535C23.6308 15.3088 23.792 15.0591 23.827 14.7796C23.862 14.4991 23.7657 14.2196 23.5655 14.0199L21.7324 12.1868L20.4363 13.483L21.4401 14.4857L18.3335 16.3481L15.228 14.4847L16.2318 13.4819L14.9356 12.1858L13.1026 14.0188C12.9028 14.2186 12.8066 14.4981 12.8411 14.7786C12.875 15.0591 13.0372 15.3073 13.2791 15.4524L16.7321 17.5238L14.1434 19.5947L11.3354 12.5765L18.3335 11.0219L18.334 11.0224ZM6.41745 51.3334H8.251C8.50014 51.3334 8.73848 51.2315 8.91195 51.0518C9.08491 50.8722 9.17705 50.6292 9.16675 50.3801L8.24997 27.4632L6.41848 27.5368L7.29665 49.4998H1.88555L3.63262 17.1763L10.326 14.9891L12.8998 21.4231C13.0079 21.6928 13.2364 21.8951 13.5175 21.9687C13.799 22.0449 14.0971 21.9795 14.3241 21.7983L17.4178 19.3234V53.1664H6.41693V51.3329L6.41745 51.3334ZM29.3719 49.5004L30.2501 27.5373L28.4186 27.4642L27.5018 50.3806C27.4915 50.6302 27.5842 50.8727 27.7566 51.0523C27.929 51.232 28.1684 51.3339 28.4175 51.3339H30.2511V53.167H19.2513V19.3249L22.345 21.7999C22.5102 21.9311 22.7115 22.0006 22.9179 22.0006C22.9956 22.0006 23.0744 21.9903 23.1516 21.9702C23.4332 21.8961 23.6612 21.6943 23.7693 21.4246L26.3369 15.0072L33.037 17.1794L34.783 49.4998H29.3719V49.5004ZM34.2641 15.6609C34.242 15.6516 34.224 15.6362 34.1998 15.629L31.2291 14.6654L32.5382 11.9382L35.4342 12.5816L34.2646 15.6609H34.2641ZM44.0007 5.50067H43.0839C42.5769 5.50067 42.1672 5.91144 42.1672 6.41745V9.34898L38.76 10.1062L39.1579 11.8955L43.0839 11.023L50.7085 12.7175L52.6007 16.5005H44.919L44.9165 16.451C44.8964 16.0727 44.6442 15.7453 44.2838 15.629L37.12 13.3069L37.5241 12.2434C37.6193 11.9948 37.6003 11.7174 37.4736 11.4826C37.347 11.2489 37.1251 11.0811 36.8657 11.0235L29.3333 9.34846V7.33371C31.0371 7.33371 32.4599 6.16007 32.8697 4.58389H45.5784C45.2603 5.12953 44.6756 5.50067 44.0002 5.50067H44.0007ZM1.83407 2.08064C2.38228 2.39773 2.75085 2.9897 2.75085 3.66763C2.75085 4.34504 2.38228 4.93701 1.83407 5.25462V2.08115V2.08064ZM32.0836 45.8338H33.9172V47.6668H32.0836V45.8332V45.8338ZM2.75033 45.8338H4.58338V47.6668H2.75033V45.8332V45.8338ZM13.7501 25.6672H15.5832V27.5003H13.7501V25.6672ZM13.7501 34.834H15.5832V36.667H13.7501V34.8335V34.834ZM13.7501 44.0007H15.5832V45.8338H13.7501V44.0007Z" fill="#979797"/>
</svg>
