<svg width="55" height="55" viewBox="0 0 55 55" fill="none" xmlns="http://www.w3.org/2000/svg">
<path d="M44.02 9.20705C43.8697 9.05674 43.6654 8.9718 43.4528 8.9718H42.4829V6.22965C42.4829 5.78644 42.1236 5.42714 41.6804 5.42714H24.7575V0.912137C24.7575 0.468925 24.3982 0.109619 23.955 0.109619H20.4098C19.9666 0.109619 19.6073 0.468925 19.6073 0.912137V5.42765H13.32C12.8768 5.42765 12.5175 5.78696 12.5175 6.23017V8.97232H11.5471C11.1039 8.97232 10.7446 9.33162 10.7446 9.77483V22.1807C10.7446 22.1812 10.7446 22.1822 10.7446 22.1827C10.7446 22.1832 10.7446 22.1843 10.7446 22.1848V52.3144C10.7446 53.7342 11.8998 54.8893 13.3195 54.8893H41.6794C43.0991 54.8893 44.2542 53.7342 44.2542 52.3144V9.77483C44.2542 9.56172 44.1698 9.35788 44.0195 9.20756L44.02 9.20705ZM38.9378 7.03268H40.8774V8.97283H38.9378V7.03268ZM35.3926 7.03268H37.3327V9.67549L36.4005 13.4039H35.3926V7.03268ZM35.3926 15.009H35.9995L35.7359 16.0627H35.3926V15.009ZM31.8474 7.03268H33.7875V13.4039H31.8474V7.03268ZM31.8474 15.009H33.7875V16.0627H31.8474V15.009ZM28.3022 7.03268H30.2424V13.4039H28.3022V7.03268ZM28.3022 15.009H30.2424V16.0627H28.3022V15.009ZM24.757 8.89098C24.757 8.89047 24.757 8.88944 24.757 8.88892C24.757 8.88841 24.757 8.88738 24.757 8.88687V7.03268H26.6972V13.4039H24.757V8.89098ZM26.6972 15.009V16.0627H24.757V15.009H26.6972ZM21.2118 6.23634C21.2118 6.23429 21.2124 6.23223 21.2124 6.23017C21.2124 6.22811 21.2118 6.22605 21.2118 6.22399V1.71517H23.152V8.08641H21.2118V6.23634ZM21.2118 14.2126C21.2118 14.2106 21.2124 14.2085 21.2124 14.2064C21.2124 14.2044 21.2118 14.2023 21.2118 14.2003V9.69093H23.152V16.0622H21.2118V14.2121V14.2126ZM17.6672 7.03268H19.6068V13.4039H18.5989L17.6672 9.676V7.03217V7.03268ZM19.6068 15.009V16.0627H19.2635L18.9999 15.009H19.6068ZM14.122 7.03268H16.0621V8.97232H14.122V7.03268ZM42.6492 52.3144C42.6492 52.8493 42.2142 53.2843 41.6789 53.2843H13.319C12.7841 53.2843 12.3486 52.8493 12.3486 52.3139V38.527L27.4987 26.744L42.6487 38.5275V52.3144H42.6492ZM42.6492 21.3802H20.8695C20.4263 21.3802 20.067 21.7395 20.067 22.1827C20.067 22.6259 20.4263 22.9852 20.8695 22.9852H42.6497V36.4947L27.9923 25.0947C27.7025 24.8693 27.2969 24.8693 27.0071 25.0947L12.3497 36.4947V22.9852H17.6672C18.1104 22.9852 18.4697 22.6259 18.4697 22.1827C18.4697 21.7395 18.1104 21.3802 17.6672 21.3802H12.3497V10.5774H16.2382L17.8587 17.0603C17.9477 17.4175 18.2689 17.6682 18.637 17.6682H36.3619C36.7299 17.6682 37.0511 17.4175 37.1402 17.0603L38.7607 10.5779L41.6727 10.5774C41.6748 10.5774 41.6768 10.5779 41.6794 10.5779C41.6815 10.5779 41.6835 10.5774 41.6861 10.5774H42.6497V21.3802H42.6492ZM27.4992 32.0152C25.1019 32.0152 23.152 33.9657 23.152 36.3624C23.152 38.7597 25.1024 40.7101 27.4992 40.7101C29.8964 40.7101 31.8469 38.7597 31.8469 36.3624C31.8469 33.9652 29.8964 32.0152 27.4992 32.0152ZM27.4992 39.1051C25.9868 39.1051 24.7565 37.8748 24.7565 36.3624C24.7565 34.85 25.9868 33.6198 27.4992 33.6198C29.0116 33.6198 30.2418 34.85 30.2418 36.3624C30.2418 37.8748 29.0116 39.1051 27.4992 39.1051ZM34.7738 42.6503H20.2245C19.7813 42.6503 19.422 43.0096 19.422 43.4528V46.9974C19.422 47.4407 19.7813 47.8 20.2245 47.8H34.7738C35.217 47.8 35.5763 47.4407 35.5763 46.9974V43.4528C35.5763 43.0096 35.217 42.6503 34.7738 42.6503ZM33.9713 46.1949H21.027V44.2548H33.9713V46.1949ZM36.3614 49.7401H18.6365C18.1933 49.7401 17.834 50.0994 17.834 50.5426C17.834 50.9858 18.1933 51.3451 18.6365 51.3451H36.3614C36.8046 51.3451 37.1639 50.9858 37.1639 50.5426C37.1639 50.0994 36.8046 49.7401 36.3614 49.7401Z" fill="#979797"/>
</svg>
