<svg width="55" height="55" viewBox="0 0 55 55" fill="none" xmlns="http://www.w3.org/2000/svg">
<path d="M17.5389 45.1044H13.0322C12.5937 45.1044 12.2381 45.46 12.2381 45.8985C12.2381 46.337 12.5937 46.6926 13.0322 46.6926H17.5389C17.9774 46.6926 18.3331 46.337 18.3331 45.8985C18.3331 45.46 17.9774 45.1044 17.5389 45.1044ZM30.1919 44.3916H24.1732C23.7347 44.3916 23.3791 44.7472 23.3791 45.1857C23.3791 45.6242 23.7347 45.9798 24.1732 45.9798H30.1919C30.6304 45.9798 30.986 45.6242 30.986 45.1857C30.986 44.7472 30.6304 44.3916 30.1919 44.3916ZM30.1919 46.8814H24.1732C23.7347 46.8814 23.3791 47.237 23.3791 47.6755C23.3791 48.114 23.7347 48.4696 24.1732 48.4696H30.1919C30.6304 48.4696 30.986 48.114 30.986 47.6755C30.986 47.237 30.6304 46.8814 30.1919 46.8814ZM43.6523 46.1789H35.3286C34.8901 46.1789 34.5344 46.5345 34.5344 46.973C34.5344 47.4115 34.8901 47.7671 35.3286 47.7671H43.6523C44.0908 47.7671 44.4464 47.4115 44.4464 46.973C44.4464 46.5345 44.0908 46.1789 43.6523 46.1789ZM15.2856 31.5979C13.3525 31.5979 11.7801 33.1703 11.7801 35.1034C11.7801 37.0359 13.3525 38.6088 15.2856 38.6088C17.2186 38.6088 18.791 37.0364 18.791 35.1034C18.791 33.1703 17.2186 31.5979 15.2856 31.5979ZM15.2856 37.0206C14.2285 37.0206 13.3684 36.1605 13.3684 35.1034C13.3684 34.0463 14.2285 33.1861 15.2856 33.1861C16.3427 33.1861 17.2028 34.0463 17.2028 35.1034C17.2028 36.1605 16.3427 37.0206 15.2856 37.0206ZM30.9722 20.8545C28.529 19.824 25.8377 19.823 23.3939 20.8519C22.6019 21.1855 22.0933 21.9873 22.1286 22.8469L22.1915 24.3773C22.2079 24.7841 22.4433 25.152 22.8055 25.3377C23.1678 25.5234 23.6042 25.4999 23.9445 25.2763C26.0326 23.9045 28.3315 23.9055 30.4191 25.2789C30.6069 25.4027 30.8244 25.4651 31.0423 25.4651C31.2188 25.4651 31.3964 25.4237 31.5586 25.3408C31.9209 25.155 32.1562 24.7871 32.1731 24.3804L32.236 22.849C32.2713 21.9899 31.7633 21.1881 30.9717 20.8545H30.9722ZM30.6182 23.5515C29.5089 22.959 28.3448 22.6627 27.1803 22.6627C26.0178 22.6627 24.8547 22.9579 23.747 23.5484L23.7153 22.7814C23.7071 22.5803 23.8253 22.3931 24.01 22.3153C26.0853 21.4414 28.2793 21.4424 30.3546 22.3178C30.5394 22.3956 30.6576 22.5829 30.6494 22.784L30.6176 23.5515H30.6182ZM31.2731 28.3934C31.0249 28.1406 30.6929 28.0009 30.3388 28.0009H24.0269C23.6723 28.0009 23.3407 28.1401 23.0921 28.3929C22.8439 28.6456 22.7109 28.9797 22.7175 29.3343L22.806 34.1609C22.8188 34.8695 23.4062 35.4462 24.1154 35.4462H30.2503C30.9589 35.4462 31.5463 34.8695 31.5596 34.1609L31.6481 29.3343C31.6548 28.9802 31.5218 28.6456 31.2731 28.3929V28.3934ZM29.9765 33.8585H24.3881L24.3098 29.5886H30.0548L29.9765 33.858V33.8585ZM39.4899 37.1362C36.795 37.1362 34.6838 38.6932 34.6838 40.6805C34.6838 42.6683 36.795 44.2253 39.4899 44.2253C42.1849 44.2253 44.296 42.6683 44.296 40.6805C44.296 38.6927 42.1849 37.1362 39.4899 37.1362ZM39.4899 42.6371C37.7457 42.6371 36.2715 41.7412 36.2715 40.6805C36.2715 39.6198 37.7457 38.7239 39.4899 38.7239C41.2342 38.7239 42.7083 39.6198 42.7083 40.6805C42.7083 41.7412 41.2347 42.6371 39.4899 42.6371ZM47.0089 24.976L43.4993 22.1812C43.6748 21.6471 43.8268 20.7982 43.8268 19.4597C43.8268 17.4376 43.4149 15.7168 43.0537 14.5978C43.2768 14.3758 43.4154 14.0683 43.4154 13.7295V9.00583C43.4154 8.32941 42.8649 7.77937 42.189 7.77937H36.7909C36.1145 7.77937 35.5644 8.32941 35.5644 9.00583V13.7295C35.5644 14.0688 35.7026 14.3758 35.9262 14.5978C35.5655 15.7168 35.153 17.4376 35.153 19.4597C35.153 20.7982 35.305 21.6471 35.4805 22.1812L34.8246 22.7036L34.889 18.9884C34.9141 18.3135 34.6588 17.6494 34.188 17.1649L31.1191 14.0053C30.807 13.684 30.635 13.2608 30.635 12.8126V11.491C30.8131 11.2771 30.92 11.0029 30.92 10.7035V1.23363C30.92 0.553623 30.3669 0 29.6869 0H24.6782C23.9982 0 23.4446 0.553111 23.4446 1.23363V10.7035C23.4446 11.0029 23.552 11.2771 23.7296 11.491V12.8126C23.7296 13.2603 23.5577 13.684 23.2456 14.0053L20.1761 17.1649C19.7053 17.6494 19.45 18.3141 19.4751 18.9889L19.5825 25.1827C18.7521 24.8143 18.1719 24.0058 18.1156 23.07C18.4507 22.8556 18.6738 22.4816 18.6738 22.0554V18.0234C18.6738 17.3593 18.1335 16.819 17.4694 16.819H13.0997C12.4356 16.819 11.8953 17.3593 11.8953 18.0234V22.0554C11.8953 22.4816 12.1184 22.8556 12.4535 23.07C12.3824 24.2509 11.4772 25.2302 10.2897 25.3776C10.2892 25.3776 10.2892 25.3776 10.2892 25.3776C8.22509 25.6329 6.6686 27.3936 6.6686 29.4735V31.9551C6.6686 32.3936 7.02421 32.7492 7.46271 32.7492C7.90121 32.7492 8.25681 32.3936 8.25681 31.9551V29.4735C8.25681 28.1969 9.21056 27.1152 10.4764 26.9546C10.5542 26.9484 10.7527 26.9433 11.0423 26.9387C11.0433 26.9387 11.0444 26.9387 11.0449 26.9387C11.1155 26.9377 11.1917 26.9367 11.2726 26.9356C11.2997 26.9351 11.3278 26.9351 11.3565 26.9346C11.3718 26.9346 11.3862 26.9341 11.402 26.9341C11.4245 26.9341 11.4481 26.9336 11.4711 26.9331C11.4941 26.9331 11.5161 26.9326 11.5392 26.9326C13.4037 26.9131 17.1639 26.9131 19.0284 26.9326C19.0596 26.9331 19.0898 26.9331 19.1205 26.9336C19.1353 26.9336 19.1512 26.9341 19.1655 26.9341C19.1891 26.9346 19.2111 26.9346 19.2341 26.9351C19.2541 26.9356 19.275 26.9356 19.295 26.9361C19.4116 26.9377 19.5181 26.9392 19.6127 26.9408L19.6557 29.407H10.7379C9.72171 29.407 8.89435 30.2338 8.89435 31.2505V47.6274C8.89435 48.4814 9.58919 49.1757 10.4427 49.1757H19.9837C19.9714 49.2151 19.9525 49.2484 19.9274 49.2668C19.5288 49.5559 19.2986 50.023 19.3119 50.5163L19.382 53.1089C19.3845 53.2127 19.3978 53.3141 19.4157 53.4128H8.93068C8.5587 53.4128 8.2563 53.1099 8.2563 52.7384V35.6534C8.2563 35.2149 7.90069 34.8593 7.4622 34.8593C7.0237 34.8593 6.66809 35.2149 6.66809 35.6534V52.7379C6.66809 53.9854 7.68324 55.0005 8.93068 55.0005H45.9303C45.9313 55.0005 45.9303 55.0005 45.9313 55.0005C47.2534 55.0005 48.329 53.925 48.329 52.6028V27.7169C48.329 26.644 47.8475 25.6452 47.0078 24.9765L47.0089 24.976ZM13.484 18.4067H17.0866V21.6716H13.484V18.4067ZM14.2525 25.3305C14.2505 25.3305 14.2484 25.3305 14.2469 25.3305C13.9092 25.331 13.5781 25.3326 13.2599 25.3336C13.2578 25.3336 13.2553 25.3336 13.2532 25.3336C13.6912 24.7411 13.9711 24.0278 14.0356 23.2593H16.5361C16.6 24.0278 16.8799 24.7411 17.3184 25.3336C16.3565 25.3295 15.2753 25.3285 14.253 25.3305H14.2525ZM10.4836 31.2495C10.4836 31.1088 10.5982 30.9942 10.7389 30.9942H19.6844L19.8276 39.2448H10.4831V31.25L10.4836 31.2495ZM10.4836 40.8325H19.8558L19.8778 42.0912H10.4836V40.8325ZM10.4836 47.587V43.6794H19.9054L19.9735 47.587H10.4841H10.4836ZM25.0328 1.58821H29.3323V2.81467H25.0328V1.58821ZM25.0328 4.40289H29.3323V10.349H25.0328V4.40289ZM33.3944 53.0654C33.3893 53.2598 33.2328 53.4123 33.0383 53.4123H33.0378H21.3263C21.1319 53.4123 20.9753 53.2598 20.9702 53.0654L20.9016 50.5209C21.3416 50.1811 21.597 49.6367 21.5867 49.0539L21.0638 18.9526C21.0638 18.9506 21.0633 18.9357 21.0633 18.9337C21.0531 18.6886 21.1457 18.4471 21.3161 18.2711L24.3855 15.1115C24.9868 14.4924 25.3183 13.6758 25.3183 12.8126V11.9367H29.0473V12.8126C29.0473 13.6758 29.3784 14.4924 29.9801 15.1115L33.0496 18.2711C33.2205 18.4471 33.3126 18.6886 33.3029 18.9337C33.3029 18.9342 33.3024 18.9521 33.3024 18.9526L32.7789 49.0539C32.7687 49.6367 33.024 50.1811 33.464 50.5209L33.395 53.0654H33.3944ZM37.1521 9.36758H41.8272V10.5894H37.1521V9.36758ZM37.1521 12.061H41.8272V13.3678H37.1521V12.061ZM37.4791 14.956H41.5003C41.7714 15.767 42.0892 16.9771 42.1992 18.4215H36.7807C36.8907 16.9771 37.2084 15.767 37.4791 14.956ZM45.9318 53.4123H34.9479C34.9658 53.3135 34.9791 53.2122 34.9816 53.1084L35.0215 51.6332H46.7418V52.6023C46.7418 53.049 46.3785 53.4123 45.9318 53.4123ZM46.7423 28.5336H46.7418H39.7816C39.3431 28.5336 38.9875 28.8892 38.9875 29.3277C38.9875 29.7662 39.3431 30.1218 39.7816 30.1218H46.7418V50.0455H34.9868C34.8936 49.7365 34.7043 49.4607 34.4362 49.2663C34.3927 49.2346 34.3646 49.1604 34.3656 49.0821L34.5969 35.7777C34.865 36.0412 35.2252 36.1871 35.5946 36.1871C35.788 36.1871 35.984 36.1472 36.1707 36.0638C38.4349 35.0537 40.544 35.0537 42.8081 36.0638C43.4666 36.3574 44.2413 36.1098 44.6102 35.4876L45.2216 34.4561C45.4268 34.1102 45.4759 33.6912 45.3567 33.3069C45.237 32.9216 44.9586 32.6039 44.5923 32.434C41.2961 30.9087 37.9554 30.8688 34.6572 32.3127L34.6956 30.1213H36.0561C36.4946 30.1213 36.8502 29.7657 36.8502 29.3272C36.8502 28.8887 36.4946 28.5331 36.0561 28.5331H34.7232L34.7887 24.7621L36.9613 23.0321C37.1378 22.8914 37.2463 22.6827 37.2596 22.4575C37.2713 22.2575 37.2069 22.0615 37.081 21.908C37.0442 21.8435 36.8042 21.3708 36.7515 20.0097H42.2284C42.1757 21.3708 41.9357 21.8435 41.8988 21.908C41.773 22.0615 41.7085 22.2575 41.7203 22.4575C41.7336 22.6827 41.8421 22.8919 42.0186 23.0321L46.0198 26.2178C46.4788 26.5831 46.7418 27.129 46.7418 27.7159V28.5331L46.7423 28.5336ZM43.3182 34.5533C40.744 33.443 38.2363 33.443 35.6622 34.5533L35.2165 33.8017C38.0537 32.5373 40.9272 32.5373 43.7644 33.8017L43.3187 34.5533H43.3182Z" fill="#979797"/>
</svg>
