<svg width="55" height="55" viewBox="0 0 55 55" fill="none" xmlns="http://www.w3.org/2000/svg">
<path d="M31.8402 17.1396C32.3251 17.1396 32.7179 16.7468 32.7179 16.2619C32.7179 15.777 32.3251 15.3842 31.8402 15.3842H31.7671V11.6167C31.7671 10.3339 30.7232 9.28995 29.4404 9.28995H3.27799C1.9952 9.28995 0.951258 10.3339 0.951258 11.6167V15.3842H0.878161C0.393253 15.3842 0.000488281 15.777 0.000488281 16.2619C0.000488281 16.7468 0.393253 17.1396 0.878161 17.1396H3.03708V19.2362L1.9602 19.8529C0.861174 20.482 0.000488281 22.0474 0.000488281 23.4161V51.2242C0.000488281 53.3059 1.69406 55 3.77628 55H28.9426C31.0248 55 32.7184 53.3064 32.7184 51.2242V23.4161C32.7184 22.0474 31.8577 20.4825 30.7582 19.8529L29.6813 19.2362V17.1396H31.8402ZM30.9625 51.2242C30.9625 52.3382 30.056 53.2447 28.9421 53.2447H3.77577C2.66182 53.2447 1.75532 52.3382 1.75532 51.2242V49.2038H30.9625V51.2242ZM30.9625 47.4484H1.75532V30.4596H30.9625V47.4484ZM29.8856 21.3761C30.4493 21.6989 30.9625 22.6713 30.9625 23.4161V28.7048H1.75532V23.4166C1.75532 22.6718 2.26854 21.6994 2.83221 21.3766L4.35076 20.5072C4.62359 20.3507 4.79243 20.0604 4.79243 19.7453V17.1396H27.9265V19.7453C27.9265 20.0599 28.0948 20.3507 28.3681 20.5072L29.8862 21.3766L29.8856 21.3761ZM2.70609 15.3842V11.6167C2.70609 11.3068 2.96759 11.0453 3.27748 11.0453H6.76295V12.7512C6.76295 13.2361 7.15571 13.6289 7.64062 13.6289C8.12553 13.6289 8.51829 13.2361 8.51829 12.7512V11.0453H12.5752V12.7512C12.5752 13.2361 12.9679 13.6289 13.4528 13.6289C13.9377 13.6289 14.3305 13.2361 14.3305 12.7512V11.0453H18.3874V12.7512C18.3874 13.2361 18.7801 13.6289 19.265 13.6289C19.7499 13.6289 20.1427 13.2361 20.1427 12.7512V11.0453H24.1996V12.7512C24.1996 13.2361 24.5923 13.6289 25.0772 13.6289C25.5621 13.6289 25.9549 13.2361 25.9549 12.7512V11.0453H29.4404C29.7503 11.0453 30.0118 11.3068 30.0118 11.6167V15.3842H2.7066H2.70609ZM11.1081 44.2754H21.6093C24.5434 44.2754 26.9304 41.8884 26.9304 38.9543C26.9304 36.0201 24.5434 33.6332 21.6093 33.6332H11.1081C8.17392 33.6332 5.78695 36.0201 5.78695 38.9543C5.78695 41.8884 8.17392 44.2754 11.1081 44.2754ZM17.2363 35.3885H21.6093C23.5757 35.3885 25.175 36.9879 25.175 38.9543C25.175 40.9202 23.5757 42.5201 21.6093 42.5201H17.2363V35.3885ZM11.1081 35.3885H15.481V42.5201H11.1081C9.14167 42.5201 7.5423 40.9207 7.5423 38.9543C7.5423 36.9879 9.14167 35.3885 11.1081 35.3885ZM25.2924 18.8671H14.4458C13.9609 18.8671 13.5681 19.2599 13.5681 19.7448C13.5681 20.2297 13.9609 20.6225 14.4458 20.6225H25.2924C25.7773 20.6225 26.1701 20.2297 26.1701 19.7448C26.1701 19.2599 25.7773 18.8671 25.2924 18.8671ZM10.9351 18.8671H7.42442C6.93951 18.8671 6.54675 19.2599 6.54675 19.7448C6.54675 20.2297 6.93951 20.6225 7.42442 20.6225H10.9351C11.42 20.6225 11.8128 20.2297 11.8128 19.7448C11.8128 19.2599 11.42 18.8671 10.9351 18.8671ZM35.8152 50.6116C35.8152 51.0965 36.208 51.4893 36.6929 51.4893C37.1778 51.4893 37.5706 51.0965 37.5706 50.6116V43.5902C37.5706 43.1053 37.1778 42.7126 36.6929 42.7126C36.208 42.7126 35.8152 43.1053 35.8152 43.5902V50.6116ZM36.6929 40.9572C37.1778 40.9572 37.5706 40.5645 37.5706 40.0796V4.38837C37.5706 3.90346 37.1778 3.51069 36.6929 3.51069C36.208 3.51069 35.8152 3.90346 35.8152 4.38837V40.0796C35.8152 40.5645 36.208 40.9572 36.6929 40.9572ZM48.3873 0H24.998C21.3524 0 18.3863 2.96607 18.3863 6.61163C18.3863 7.09654 18.7791 7.48931 19.264 7.48931C19.7489 7.48931 20.1417 7.09654 20.1417 6.61163C20.1417 3.93383 22.3202 1.75535 24.998 1.75535H48.3873C51.0651 1.75535 53.2436 3.93383 53.2436 6.61163V48.3884C53.2436 51.0662 51.0651 53.2447 48.3873 53.2447H34.6688C34.1839 53.2447 33.7912 53.6374 33.7912 54.1223C33.7912 54.6072 34.1839 55 34.6688 55H48.3873C52.0329 55 54.9989 52.0339 54.9989 48.3884V6.61163C54.9989 2.96607 52.0329 0 48.3873 0V0ZM45.4068 13.7669C47.7691 13.7669 49.6912 11.8447 49.6912 9.48248C49.6912 7.12022 47.7691 5.19809 45.4068 5.19809C43.0446 5.19809 41.1224 7.12022 41.1224 9.48248C41.1224 11.8447 43.0446 13.7669 45.4068 13.7669ZM45.4068 6.95344C46.8013 6.95344 47.9359 8.08798 47.9359 9.48248C47.9359 10.877 46.8013 12.0115 45.4068 12.0115C44.0123 12.0115 42.8778 10.877 42.8778 9.48248C42.8778 8.08798 44.0123 6.95344 45.4068 6.95344ZM45.4068 25.7784C47.7691 25.7784 49.6912 23.8562 49.6912 21.494C49.6912 19.1317 47.7691 17.2096 45.4068 17.2096C43.0446 17.2096 41.1224 19.1317 41.1224 21.494C41.1224 23.8568 43.0446 25.7784 45.4068 25.7784ZM45.4068 18.965C46.8013 18.965 47.9359 20.0995 47.9359 21.494C47.9359 22.8885 46.8013 24.023 45.4068 24.023C44.0123 24.023 42.8778 22.8885 42.8778 21.494C42.8778 20.0995 44.0123 18.965 45.4068 18.965ZM45.4068 37.7899C47.7691 37.7899 49.6912 35.8678 49.6912 33.5055C49.6912 31.1432 47.7691 29.2211 45.4068 29.2211C43.0446 29.2211 41.1224 31.1432 41.1224 33.5055C41.1224 35.8678 43.0446 37.7899 45.4068 37.7899ZM45.4068 30.9765C46.8013 30.9765 47.9359 32.111 47.9359 33.5055C47.9359 34.9 46.8013 36.0345 45.4068 36.0345C44.0123 36.0345 42.8778 34.9 42.8778 33.5055C42.8778 32.111 44.0123 30.9765 45.4068 30.9765ZM45.4068 49.8014C47.7691 49.8014 49.6912 47.8793 49.6912 45.517C49.6912 43.1548 47.7691 41.2326 45.4068 41.2326C43.0446 41.2326 41.1224 43.1548 41.1224 45.517C41.1224 47.8793 43.0446 49.8014 45.4068 49.8014ZM45.4068 42.988C46.8013 42.988 47.9359 44.1225 47.9359 45.517C47.9359 46.9115 46.8013 48.046 45.4068 48.046C44.0123 48.046 42.8778 46.9115 42.8778 45.517C42.8778 44.1225 44.0123 42.988 45.4068 42.988ZM26.5654 7.38429C26.9829 7.1022 27.4714 6.95344 27.9784 6.95344C28.4958 6.95344 28.9925 7.10838 29.4157 7.40077C29.568 7.50629 29.742 7.55674 29.9145 7.55674C30.193 7.55674 30.4668 7.42496 30.6372 7.17839C30.9131 6.77996 30.8133 6.23328 30.4148 5.95685C29.6972 5.46011 28.8546 5.19758 27.979 5.19758C27.1208 5.19758 26.2926 5.45033 25.5838 5.92906C25.1817 6.20034 25.0762 6.74599 25.3475 7.1475C25.6188 7.54953 26.1644 7.65506 26.5659 7.38378L26.5654 7.38429Z" fill="#979797"/>
</svg>
