<svg width="55" height="56" viewBox="0 0 55 56" fill="none" xmlns="http://www.w3.org/2000/svg">
<path d="M13.6855 47.8803L21.4523 44.8741C21.5228 46.1821 21.9984 47.2585 22.8771 48.0831C23.2359 48.4203 23.7049 48.6056 24.1975 48.6056C24.4353 48.6056 24.668 48.5624 24.8893 48.4779L35.9907 44.2208C36.0813 44.1863 36.1848 44.1951 36.2687 44.2455C37.2437 44.8288 39.9364 46.1847 43.8723 46.1847C46.2783 46.1847 48.7657 45.6797 51.2782 44.6877C51.3045 44.9091 51.3235 45.1315 51.3297 45.3559C51.3426 45.8006 51.7111 46.1512 52.1574 46.1383C52.6022 46.1265 52.9528 45.7559 52.9404 45.3106C52.8992 43.8379 52.5085 42.4238 51.7796 41.1081C51.5392 40.6741 51.0811 40.4044 50.5843 40.4044C50.4247 40.4044 50.2677 40.4322 50.1195 40.4862C49.2187 40.8116 46.8235 41.5677 44.0339 41.5683C41.8277 41.5683 39.8983 41.0962 38.267 40.1624V36.5246C38.267 36.0793 37.9062 35.719 37.4614 35.719C37.0167 35.719 36.6558 36.0793 36.6558 36.5246V39.0047C36.4443 38.8168 36.2384 38.6181 36.0402 38.4097C35.7828 38.1394 35.4219 37.9845 35.0487 37.9845C34.8799 37.9845 34.7141 38.0154 34.5551 38.0766L24.5861 41.9342V31.2122H36.6558V32.6572C36.6558 33.1024 37.0167 33.4628 37.4614 33.4628C37.9067 33.4628 38.267 33.1024 38.267 32.6572V31.2122H38.4879C39.2281 31.2122 39.8309 30.6094 39.8309 29.8692V25.5313C39.8309 24.9532 39.4639 24.4616 38.9506 24.2722C39.0201 24.021 39.0459 23.7543 39.0186 23.481C39.0032 23.3271 38.84 21.9367 37.9155 20.4001C36.6903 18.3632 34.7893 17.101 32.2669 16.649C32.1918 16.6351 32.1141 16.6279 32.0368 16.6279C31.7038 16.6279 31.3882 16.7551 31.1479 16.9857C31.135 16.998 31.1195 17.0119 31.1056 17.0253C30.646 16.8673 30.1605 16.7412 29.6494 16.649C29.5737 16.6351 29.4965 16.6279 29.4198 16.6279C29.0872 16.6279 28.7717 16.7551 28.5308 16.9857C28.259 17.2472 27.6629 17.7455 26.8254 18.0348C26.4681 17.9159 26.1093 17.7522 25.7511 17.538C21.285 14.869 13.9841 4.76929 11.0525 0.550283C10.8131 0.205906 10.4193 0 9.99927 0C9.79645 0 9.59364 0.0489026 9.41244 0.142075C9.19315 0.255323 8.88172 0.431887 8.52601 0.681033C8.49564 0.636764 8.46424 0.592494 8.4349 0.550283C8.19554 0.205906 7.80174 0 7.38221 0C7.17939 0 6.97657 0.0489026 6.79486 0.142075C6.29451 0.399457 5.32161 0.984744 4.4218 2.01273C2.70712 3.97089 2.05131 6.50559 2.4729 9.54528C2.49864 9.72853 2.56453 9.90355 2.66336 10.0585C2.86618 10.67 3.26821 12.0779 3.60178 13.6495C4.06558 15.83 4.61895 19.4025 4.67455 24.1877H3.40308C2.66285 24.1877 2.06006 24.79 2.06006 25.5308V29.8687C2.06006 30.6089 2.66233 31.2117 3.40308 31.2117H3.6234V53.6575C3.6234 54.3982 4.22619 55.0005 4.96642 55.0005H38.5409C38.9326 55.0005 39.3063 54.8785 39.6224 54.6489L40.4188 54.0709C40.4265 54.0698 40.4399 54.0698 40.4476 54.0709L41.2434 54.6494C41.5605 54.879 41.9342 55.0005 42.3249 55.0005H49.8364C50.8983 55.0005 51.7626 54.1388 51.7626 53.0789V51.9634C51.7626 51.5521 51.6314 51.1717 51.4095 50.8587C51.4635 50.7887 51.514 50.7166 51.5603 50.6436C51.6077 50.5684 51.8573 50.1607 52.1302 49.5121C52.3026 49.1023 52.1096 48.6298 51.6998 48.4573C51.2896 48.2849 50.8175 48.4779 50.6451 48.8877C50.4124 49.4411 50.2055 49.7721 50.1988 49.7823C50.1406 49.874 50.066 49.9635 49.98 50.05C49.9326 50.0464 49.8848 50.0428 49.8359 50.0428H12.6621C12.6534 50.0428 12.6462 50.0438 12.638 50.0438C12.6349 50.015 12.6333 49.9857 12.6333 49.9563V49.4076C12.6333 48.8208 13.1347 48.0919 13.686 47.8793L13.6855 47.8803ZM22.9744 42.5581L18.9155 44.1287V31.2127H22.9744V42.5576V42.5581ZM18.4867 29.6015V25.8005H23.4037V29.6015H18.4867ZM34.9859 39.6374C37.2802 41.9878 40.324 43.1795 44.0345 43.1795C46.8904 43.179 49.3633 42.4542 50.469 42.0712C50.644 42.4073 50.7897 42.7507 50.9122 43.1002C48.5114 44.0767 46.1465 44.5729 43.8728 44.5729C40.3395 44.5729 37.9566 43.3766 37.0965 42.8624C36.5935 42.5612 35.9604 42.5072 35.4142 42.7172L24.3128 46.9738C24.2006 47.016 24.0683 46.9908 23.9808 46.9089C23.3028 46.2732 23.0012 45.4012 23.0604 44.2528L34.9859 39.6379V39.6374ZM38.2192 25.8005V29.6015H25.0149V25.8005H38.2192ZM36.5343 21.2315C37.2885 22.4859 37.4141 23.6333 37.4151 23.6436C37.4254 23.7471 37.4141 23.8964 37.3013 24.0215C37.1871 24.1471 37.0368 24.1733 36.9307 24.1733H36.3573C36.4082 23.9515 36.4252 23.7198 36.401 23.482C36.3856 23.3281 36.2224 21.9377 35.2984 20.4011C34.9931 19.8931 34.6452 19.4334 34.2565 19.0221C35.2006 19.5451 35.964 20.2822 36.5349 21.2315H36.5343ZM9.89838 1.71417C12.5479 5.51261 18.2648 13.3792 22.7716 17.31C18.7498 14.6461 12.7172 6.59979 9.4531 2.00089C9.61577 1.88661 9.76711 1.79087 9.89838 1.71417ZM4.05374 9.21274C3.72995 6.70789 4.26171 4.64317 5.63355 3.0752C6.22656 2.39777 6.85457 1.96177 7.2808 1.71417C10.3761 6.15143 17.6584 16.144 22.3063 18.9222C23.3589 19.5508 24.4394 19.8699 25.5179 19.8699C27.4827 19.8694 28.9009 18.8265 29.5212 18.2654C31.4891 18.6556 32.9675 19.6527 33.9168 21.2309C34.6709 22.4849 34.7965 23.6328 34.7975 23.6431C34.8078 23.7466 34.797 23.8959 34.6838 24.021C34.5695 24.1466 34.4187 24.1728 34.3126 24.1728H20.6101C20.0331 24.1728 19.1312 23.8084 18.7183 23.4084L4.05323 9.21274H4.05374ZM17.2085 24.1893H11.4787V18.6427L17.2085 24.1893ZM9.96735 17.1792C9.90919 17.7331 9.88087 18.1676 9.86903 18.3905C9.868 18.4054 9.86749 18.4193 9.86749 18.4342V24.1728H8.90334C8.89664 23.5865 8.88172 23.0182 8.86164 22.4669V18.4564C8.89973 17.7666 8.9754 17.0351 9.08299 16.3227L9.96735 17.1787V17.1792ZM7.68232 14.9678C7.37603 16.4766 7.27668 17.9148 7.25146 18.3905C7.25043 18.4054 7.24991 18.4193 7.24991 18.4342V24.1728H6.28524C6.22811 19.2542 5.6562 15.568 5.17747 13.3154C5.10695 12.9834 5.03179 12.6514 4.95458 12.3271L7.68232 14.9673V14.9678ZM12.6627 51.6545H49.8364C50.0104 51.6545 50.1514 51.7935 50.1514 51.9644V53.0799C50.1514 53.2513 50.0098 53.3898 49.8364 53.3898H42.3249C42.2765 53.3898 42.2297 53.3744 42.1906 53.3461L41.3742 52.7525C41.1132 52.5626 40.7786 52.4586 40.4332 52.4586C40.0872 52.4586 39.7532 52.5626 39.4917 52.7525L38.6752 53.3461C38.6361 53.3749 38.5898 53.3898 38.5409 53.3898H12.6632C12.4892 53.3898 12.3476 53.2503 12.3476 53.0799V51.9644C12.3481 51.793 12.4897 51.6545 12.6632 51.6545H12.6627ZM11.0226 49.4081V49.9558C11.0226 50.2395 11.0726 50.5102 11.1606 50.7635C10.896 51.0929 10.7364 51.5094 10.7364 51.9634V53.0789C10.7364 53.1844 10.7472 53.2879 10.7637 53.3888H5.23461V31.2117H8.74067C9.18543 31.2117 9.54628 30.8509 9.54628 30.4061C9.54628 29.9608 9.18543 29.6005 8.74067 29.6005H3.67179V25.7995H16.876V29.6005H12.5005C12.0558 29.6005 11.6949 29.9608 11.6949 30.4061C11.6949 30.8509 12.0558 31.2117 12.5005 31.2117H17.3053V44.751L13.1054 46.3767C11.9374 46.8281 11.0226 48.1593 11.0226 49.4076V49.4081ZM24.7133 21.1326C24.7133 21.5779 24.3524 21.9382 23.9077 21.9382C23.4624 21.9382 23.1021 21.5779 23.1021 21.1326C23.1021 20.6879 23.4629 20.327 23.9077 20.327C24.3524 20.327 24.7133 20.6879 24.7133 21.1326ZM27.9584 21.1326C27.9584 21.5779 27.598 21.9382 27.1528 21.9382C26.708 21.9382 26.3472 21.5779 26.3472 21.1326C26.3472 20.6879 26.708 20.327 27.1528 20.327C27.598 20.327 27.9584 20.6879 27.9584 21.1326ZM30.8297 20.0135C30.8297 20.4583 30.4694 20.8191 30.0241 20.8191C29.5794 20.8191 29.2185 20.4583 29.2185 20.0135C29.2185 19.5683 29.5794 19.2079 30.0241 19.2079C30.4694 19.2079 30.8297 19.5683 30.8297 20.0135ZM25.591 44.9739C25.591 45.4187 25.2306 45.7795 24.7854 45.7795C24.3406 45.7795 23.9798 45.4187 23.9798 44.9739C23.9798 44.5292 24.3406 44.1683 24.7854 44.1683C25.2306 44.1683 25.591 44.5292 25.591 44.9739ZM28.7526 43.8492C28.7526 44.2939 28.3923 44.6548 27.947 44.6548C27.5023 44.6548 27.1414 44.2939 27.1414 43.8492C27.1414 43.4039 27.5023 43.0436 27.947 43.0436C28.3923 43.0436 28.7526 43.4039 28.7526 43.8492ZM31.9138 42.7254C31.9138 43.1702 31.5535 43.5311 31.1082 43.5311C30.6635 43.5311 30.3026 43.1702 30.3026 42.7254C30.3026 42.2802 30.6635 41.9198 31.1082 41.9198C31.5535 41.9198 31.9138 42.2802 31.9138 42.7254ZM35.0745 41.6012C35.0745 42.046 34.7136 42.4068 34.2689 42.4068C33.8236 42.4068 33.4633 42.046 33.4633 41.6012C33.4633 41.1559 33.8236 40.7956 34.2689 40.7956C34.7136 40.7956 35.0745 41.1559 35.0745 41.6012Z" fill="#979797"/>
</svg>
