<svg width="55" height="41" viewBox="0 0 55 41" fill="none" xmlns="http://www.w3.org/2000/svg">
<path fill-rule="evenodd" clip-rule="evenodd" d="M2.50744 9.08112C0.659432 10.7793 0.15033 13.3712 0.15033 15.7792V25.1809C0.15033 25.6174 0.503973 25.9711 0.940493 25.9711C1.37701 25.9711 1.73066 25.6174 1.73066 25.1809V15.7792C1.73066 13.854 2.08276 11.6107 3.57763 10.2445C4.13615 9.73435 4.81718 9.37711 5.55072 9.19591L5.85135 9.12179L5.72368 9.40336C3.87414 13.4839 5.25988 20.0894 6.65541 24.1591L6.67394 24.2136L3.97503 30.5108C3.91532 30.6497 3.89679 30.8026 3.92201 30.9519L4.86197 36.5927C4.86866 36.6334 4.87844 36.6735 4.89182 36.7126L5.83178 39.533C5.93937 39.8558 6.24154 40.073 6.58128 40.073H11.2821C11.7186 40.073 12.0723 39.7194 12.0723 39.2829C12.0723 39.1603 12.0434 39.0394 11.9889 38.9292L10.1918 35.3356V30.2081L10.475 29.9255L10.5666 29.962C11.7022 30.4145 12.899 30.7017 14.1164 30.815L14.2523 30.8279V31.7616C14.2523 32.1982 14.6059 32.5518 15.0425 32.5518C15.479 32.5518 15.8326 32.1982 15.8326 31.7616V30.8196L15.9675 30.8062C16.054 30.7975 16.1399 30.7882 16.2264 30.7779C17.3115 30.642 18.3648 30.309 19.3304 29.7963L19.4283 29.7443L20.1242 30.4402C20.4326 30.7491 20.9329 30.7486 21.2418 30.4402C21.5501 30.1319 21.5506 29.6315 21.2418 29.3227L20.7733 28.8542L20.9005 28.7492C21.6587 28.1233 22.3387 27.4052 22.923 26.614L23.0074 26.4997L23.1258 26.5774C25.2641 27.9786 27.752 28.5984 30.2862 28.6885C32.1203 28.7534 34.0213 28.5449 35.8065 28.1171L35.9738 28.077L36.8196 36.5412C36.8252 36.5994 36.8376 36.657 36.8561 36.7126L37.7961 39.533C37.9037 39.8553 38.2058 40.073 38.5456 40.073H43.2464C43.6829 40.073 44.0366 39.7194 44.0366 39.2829C44.0366 39.1603 44.0077 39.0394 43.9532 38.9292L42.1561 35.3356V26.8966L42.2673 26.8667C42.5345 26.7952 42.7893 26.683 43.023 26.5352C44.9894 25.2946 45.6473 21.7428 45.9103 19.6374C46.1245 17.9258 46.6722 15.2326 48.1892 14.1402C48.5804 13.8581 49.1209 13.6543 49.6104 13.7217L49.6243 13.7238L51.0358 14.1943C52.1729 14.5731 53.4372 14.1387 54.1018 13.1416L54.4024 12.6906C55.0597 11.7049 54.9825 10.3871 54.2176 9.48315C53.0491 8.10255 51.8661 6.73225 50.6626 5.38202C49.6578 4.25469 48.6334 3.12529 47.5658 2.05767C46.8009 1.29273 45.8099 0.750171 44.7037 0.977182C43.6114 1.20162 42.7687 2.10812 42.1937 3.01205L42.0872 3.17986L41.9549 3.03109C41.8411 2.90292 41.6892 2.81489 41.5209 2.78143L36.8201 1.84147C36.3928 1.75602 35.9754 2.03348 35.8899 2.46073C35.8601 2.61053 35.874 2.76753 35.9311 2.90961L36.8659 5.24612C36.8731 5.26362 36.8808 5.28113 36.888 5.29863L36.9514 5.44843L36.5359 5.5869H24.4426C24.3988 5.5869 24.3556 5.5905 24.3129 5.59771L18.7925 6.51811L12.3322 5.59513C12.2952 5.58999 12.2581 5.58638 12.2205 5.58638C10.3334 5.58638 8.49672 6.0507 7.112 7.3932L7.06773 7.43593L7.00648 7.43542C5.36232 7.421 3.72794 7.95687 2.50589 9.08009L2.50744 9.08112ZM7.15061 38.4927L6.42376 36.3122H8.91316L10.0034 38.4927H7.15061ZM11.783 28.497C13.4179 26.7669 15.827 24.8484 18.2762 24.5786C19.4545 24.4489 20.6616 24.7572 21.6227 25.4547L21.7462 25.5443L21.6546 25.6663C20.2411 27.5483 18.3962 28.9068 16.0257 29.2099C14.6193 29.3896 13.1867 29.1785 11.8458 28.7425L11.6203 28.6689L11.783 28.4965V28.497ZM39.1154 38.4927L38.3886 36.3122H40.878L41.9682 38.4927H39.1154ZM53.0135 10.5065C53.3255 10.8751 53.3564 11.412 53.0887 11.814L52.7876 12.266C52.5168 12.6726 52.0005 12.8507 51.5367 12.6958L50.0768 12.2088C50.0588 12.2026 50.0403 12.197 50.0217 12.1929C49.9286 12.1707 49.8338 12.1553 49.7381 12.1465L49.6279 12.1362L49.6053 12.0281C49.2872 10.5178 48.5145 9.09296 47.6646 7.81995C47.0459 6.89285 46.8667 5.0047 46.8055 3.91649L46.7828 3.51188L47.0634 3.80375C49.1219 5.94414 51.0935 8.23896 53.0135 10.506V10.5065ZM40.8327 4.25623L41.9682 6.52789H41.0921C39.8762 6.52789 38.7855 5.78971 38.334 4.66032L37.9412 3.67815L40.8327 4.25623ZM36.9452 15.6166C35.5455 14.1685 35.457 9.19848 35.4724 7.31651L35.4735 7.16774H36.6657C36.7506 7.16774 36.835 7.15384 36.9153 7.12707L37.8939 6.80071L37.9593 6.86248C38.8045 7.665 39.9267 8.1077 41.0916 8.1077H43.2464C43.6829 8.1077 44.0366 7.75406 44.0366 7.31754C44.0366 7.19502 44.0077 7.07405 43.9532 6.96389L42.9504 4.95786L42.9921 4.88733C43.0106 4.85645 43.0271 4.82402 43.041 4.79056C43.3442 4.03334 44.155 2.72017 45.0033 2.53023L45.1845 2.48956L45.186 2.67539C45.2015 4.41632 45.3528 7.20068 46.3504 8.69659C47.068 9.77245 47.7552 11.0146 48.0425 12.286L48.0692 12.405L47.958 12.4554C47.7449 12.5527 47.5406 12.6685 47.3475 12.8008C45.8161 13.8509 45.0635 15.8225 44.6682 17.5613L44.6599 17.5963L44.6368 17.6241C44.0324 18.3494 43.2536 18.7489 42.3059 18.7489C41.5353 18.7489 41.4138 18.5919 41.0926 17.934C40.828 17.392 40.5341 16.9086 40.0358 16.5493C39.3445 16.051 38.4359 15.9295 37.6051 15.9285C37.3493 15.9285 37.1078 15.8117 36.9447 15.6161L36.9452 15.6166ZM15.8326 7.69177L18.6916 8.09998C18.7714 8.1113 18.8533 8.11079 18.9331 8.0974L24.5095 7.16825H28.8721L28.7542 7.38909C28.4104 8.03357 28.1834 8.76196 28.2565 9.49911C28.3486 10.4339 28.8716 11.1566 29.6113 11.711C30.2285 12.1733 30.7392 12.7761 30.7531 13.5817C30.7747 14.8218 29.5851 16.2786 28.6739 17.0244L28.6693 17.028L28.6647 17.0311C27.0298 18.1719 24.3623 19.7141 22.3207 18.7705C22.0232 18.6331 21.7524 18.4488 21.5089 18.2295C21.2557 18.0015 21.0343 17.7384 20.8423 17.4568C20.1968 16.5117 19.6954 14.9813 19.5904 13.8272C19.5703 13.6044 19.4566 13.401 19.2774 13.2667L17.0212 11.5741C16.2738 11.0135 15.8331 10.1323 15.8331 9.19797V7.69177H15.8326ZM32.1373 23.4889C32.3427 24.2322 32.6526 24.9441 33.0577 25.6004C33.2893 25.9757 33.5632 26.3247 33.8731 26.6387L34.08 26.8487L33.7886 26.8925C33.0788 26.9995 32.3633 27.0685 31.6462 27.0963C28.5638 27.2173 25.4865 26.5883 23.0692 24.574C21.6366 23.3802 19.9682 22.8073 18.1027 23.0086C16.0318 23.2325 14.0763 24.3784 12.4892 25.6745C11.523 26.4642 10.5357 27.4294 9.7548 28.4095L9.74966 28.4162L8.84264 29.3232C8.69439 29.4715 8.61151 29.6722 8.61151 29.8817V34.7323H6.15403L5.51829 30.9205L8.24757 24.5524C8.32685 24.367 8.33251 24.157 8.26199 23.9655C7.60463 22.0743 7.09707 20.1311 6.76093 18.1564C6.30743 15.4941 6.00577 11.5484 7.64273 9.20209C8.70777 7.6753 10.355 7.17958 12.1557 7.16774H12.167L14.2523 7.46579V9.19797C14.2523 10.6295 14.9272 11.9798 16.0725 12.8384L18.061 14.3302L18.0703 14.3904C18.4173 16.6168 19.4864 19.1983 21.6495 20.2011C22.2924 20.4991 22.9951 20.6432 23.7029 20.6412C25.7887 20.636 27.9337 19.4711 29.5974 18.3062C29.6113 18.2964 29.6247 18.2866 29.6381 18.2758C30.9837 17.199 32.3602 15.3443 32.3324 13.5596C32.3118 12.2557 31.5757 11.2086 30.5585 10.4458C30.1935 10.1719 29.8749 9.81517 29.828 9.34262C29.756 8.61268 30.3279 7.76023 30.7644 7.2223L30.8092 7.16671H33.8931L33.8916 7.31805C33.8715 9.69678 33.9925 14.8485 35.8189 16.7249C36.2806 17.2211 36.9272 17.5073 37.6056 17.5088C38.1883 17.5099 38.9008 17.549 39.3126 18.0226C39.467 18.2002 39.5705 18.4174 39.6729 18.6274C39.8778 19.0475 40.0796 19.4263 40.4394 19.7388C40.9598 20.1908 41.6331 20.3287 42.3064 20.3297C42.9 20.3308 43.4894 20.2201 44.0386 19.9952L44.2837 19.8948L44.244 20.1563C44.033 21.5436 43.5306 24.0335 42.4058 25.0275L42.1566 25.2478V22.3595C42.1566 21.9229 41.803 21.5693 41.3665 21.5693C40.93 21.5693 40.5763 21.9229 40.5763 22.3595V34.7313H38.2269L37.4517 26.981C37.4059 26.5213 37.1464 26.2398 36.6651 26.2701C36.2194 26.2701 35.8086 26.1358 35.4385 25.8907C34.585 25.3255 33.9225 24.0798 33.6708 23.1074C33.5616 22.6869 33.1282 22.4315 32.7076 22.5407C32.2912 22.6482 32.0359 23.075 32.1368 23.4883L32.1373 23.4889ZM11.0319 21.2296C11.1117 21.2563 11.1956 21.2713 11.2801 21.2702C11.661 21.2651 12.0409 21.2193 12.4125 21.1354C13.1517 20.9681 13.8878 20.6252 14.26 19.9293C14.6075 19.2801 14.5117 18.5868 14.2199 17.934L14.1782 17.8409L14.2497 17.7678C14.7928 17.2123 15.2067 16.5061 15.2067 15.7092C15.2067 14.6174 14.4628 13.8154 13.598 13.2394C12.9227 12.7643 12.0249 12.7442 11.3264 13.1905C10.599 13.6347 10.0374 14.5443 9.71465 15.3118C9.28122 16.3419 9.08458 17.514 9.2107 18.6269C9.34196 19.7826 9.87526 20.844 11.0324 21.2301L11.0319 21.2296ZM12.1449 14.5423C12.2246 14.4867 12.3183 14.4537 12.4156 14.4475L12.4259 14.447L12.4362 14.4475C12.5428 14.4553 12.6442 14.4944 12.7286 14.5592C13.0905 14.8012 13.6227 15.2331 13.6253 15.7056C13.6274 16.1864 13.0967 16.749 12.7209 17.0033C12.3611 17.2468 12.2627 17.7353 12.5042 18.0972C12.6426 18.3047 13.0097 18.9126 12.866 19.1818C12.6869 19.518 11.8169 19.6595 11.4664 19.6822L11.4211 19.6853L11.382 19.6626C10.9733 19.4284 10.8291 18.8848 10.7797 18.4478C10.6541 17.3436 11.1436 15.1579 12.1449 14.5417V14.5423Z" fill="#979797"/>
</svg>
