<svg width="0" height="0" class="hidden">
  <symbol xmlns="http://www.w3.org/2000/svg" viewBox="0 0 78.359 65.38" id="Контур 289">
    <path d="M44.778 42.925l.029 1.087c-.039.386.018 1.467-.293 1.695a3.257 3.257 0 00-.218-.974c-.2-.53-.731-.411-1.308-.877a2.637 2.637 0 01-.433-1.29c-.179-1.06.143-.807.88-1.251.474-.286.878-1.976 2.074-2.5a5.05 5.05 0 011.258-.464 3.819 3.819 0 01-.728 2.517c-.521 1.054-1.259 1.257-1.259 2.053zM10.93 33.983c0-.251.336-.9.928-.467l1.126.731a1.173 1.173 0 01-1.7.507.78.78 0 01-.354-.772zm4.305.464c-.152 0-.077-.022-.265-.066-.035-.423-.4-.8.994-.8a.531.531 0 00.94.147c.069-.093.488-.876.782-.876 1.188 0 1.813 1.59.4 1.59-.934 0-1-.331-1.258-.331-.518 0-.538.331-1.59.331zm-7.087-1.06c.421-.629.588-.331.861-.331a6.1 6.1 0 00.795-.2c.11.163.386.4.422.63s-.273.517-.485.533c-.1.008-.8-.125-.951-.148a.928.928 0 01-.422-.108c-.205-.131-.142-.2-.22-.376zm2.915-2.119c.685 0 1.183.79.292 1.021-.736.19-3.239.612-3.742-.089a.553.553 0 01.337-.933c1.05-.106 1.2.167 2.271.019a6.259 6.259 0 01.843-.018zm-2.584-1.855c0-.218.042-.233.223-.373.111-.086.211-.158.307-.223a2.317 2.317 0 001.126.133 7.469 7.469 0 00.927-.133c.415.278.437.714.883.9s1.1.052 1.531.324l1.046.742c1.352 1.358.221 2.049-.631 1.162a4.5 4.5 0 01-.4-.531c-.183-.251-.171-.356-.506-.421s-.577 0-.8-.194c-.69-.594-.173-1.123-1.805-.678a1.321 1.321 0 01-1.521.031 1.23 1.23 0 01-.383-.743zm20.918-.783a.92.92 0 00.145-.343c.483.04.383.626 1.391.862a1.768 1.768 0 01-.066.6 1.664 1.664 0 01-1.457-.133 6.026 6.026 0 00.332-.6l-.344-.385zm-17.541-1.536c0-.453.947-.68 1.369-.045.261.392-.159.812.336.988.643.229.8-.329 1.889.761a3.7 3.7 0 01.621.7c.284.461.081.781.307 1.018.255.266.7-.019.773.552.116.914.05.989-.393.989-.424 0-.744-.513-.916-.806-.325-.551-.474-1.5-1.532-1.912-.668-.259-.815.058-1.393-.329a2.5 2.5 0 01.139-.664c.1-.385.161-.42-.26-.473-.289-.036-.487-.01-.661-.2a1.874 1.874 0 01-.278-.583zm8.346-.464l.138-1.19c.242-1 1.6.088 1.825 1.345.069.385-.046.849.119 1.139.224.392.9.019.9 3.074 0 .709-.012 1.126-.6 1.126-.468 0-.8-.607-.937-.984a5.428 5.428 0 01-.391-1.6c-.079-1.274-.106-1.472-.777-2.2a.932.932 0 01-.281-.713zm-.927-1.259c0 2.139.994 3.023 1.217 3.75.307 1 .44 2.485-.308 3.32-.515.577-1.085.212-1.173-.515a14.154 14.154 0 01-.069-2.91 7.182 7.182 0 00-.781-2.268c-.3-.5-.354-.781-.94-.781-.356 0-.3.764-.284.946a2.85 2.85 0 00.062.6c.233.8.777.366.989 1a3.344 3.344 0 01.028 1.893.955.955 0 01-1.259-.727c-.086-.889.106-.732-.446-1.276a11.339 11.339 0 00-.887-.835 2.985 2.985 0 01-.852-.87c.659-1.246 1.391-.63 2.385-.861.2-.866.076-.741.92-1 .534-.165.937-.3 1.109-.879.137-.464.233-1.115.648-1.275 1.282-.495.937 1.823.585 2.111-.234.191-.942.218-.942.581zm-3.511-2.848c-2.12 0-.92-2.119.729-2.119 1.071 0 .089 2.119-.728 2.119zm32.524 19.21c0 .553.985.732.721 1.512-.211.624-.592.359-.721.741a13.122 13.122 0 01-.927 2.385c-.036.07-.4.736-.427.765a1.605 1.605 0 01-.9.293c-.219 0-.545-.473-.728-.6.429-.893-.16-1.114 1.251-2.194.522-.4.341-.575.549-1.77a8.227 8.227 0 01.153-1.04c.3-.955.367.223.367-2.017.335-.224.519-.243.728-.464-.029-.344-.222-.444-.235-.663-.036-.624 1.828-4.48 2.1-5.618.159-.659.236-.376.811-1.11s.275-.085.5-1.419c.051-.3.1-.516.161-.832a4.842 4.842 0 011.181-2.727l1.8-2.042c.169-.218.284-.3.464-.528a12.712 12.712 0 001.848-3.053 7.722 7.722 0 01.652-1.269c.167-.263.188-.363.5-.49a1.127 1.127 0 01.743-.118l-.606 1.447a7.622 7.622 0 00-.337 1.716 6.411 6.411 0 01-.855 2.722 5.573 5.573 0 01-1.249 1.335c-.206.157-.323.305-.53.464a2.874 2.874 0 00-.282.248c-.137.127-.161.123-.295.235-.1.086-.136.139-.238.225-.623.526-.4.205-.652.938-.349 1.008-1.672 3.174-1.884 4.276-.3 1.552-1.3 2.716-1.578 3.522-.106.306-.153.523-.236.824a6.3 6.3 0 01-.768 1.284c-.143.235-.253.385-.381.613a10.53 10.53 0 00-.707 2.406zM22.124 24.18c0 .152-.022.077-.066.265-.378 0-.545.032-.749-.178-.593-.609-.112-1.139-.112-1.544a3.52 3.52 0 00-.375-1.877 1.348 1.348 0 00-1.281-.839c-.924 0 .77 1.871-1.035 2.741a4.3 4.3 0 00-.784.342c-.506.375-.032.415-1.744 1.568-1.736 1.168-1.851.484-2.2.251-.414.11-.295.565-.855.193a.713.713 0 01-.272-.325l.91-.216a2.507 2.507 0 00.772-.42c1-.677.922-.15 1.886-.5.436-.157 1.251-.505 1.327-.991.086-.548-.112-.594.223-.97.653-.735.576-.565.38-1.409l.932-.856c.375-.464.327-2.385 1.624-.705 1.134 1.469 1.755.246 1.949.1-.293 1.258.082 1.987-.436 2.81-.878 1.4-.094 1.477-.094 2.555zm.53-5.5l.019.019s-.026-.011-.019-.017zm-6.557-1.06c0-.745.162-.619.265-.663l.076-.02c.113.005-.005-.03.12.019.417.16.134.351 1.143.518.218.036.1-.022.261.071l.19.208c-.116.219-.053.182-.26.336-.4.3-.486.187-1.214.012-.238-.057-.579-.239-.579-.481zm17.222 14.7l.438-1.814a1.7 1.7 0 00.158-.968c-.026-4.172-.12-3.128 1.749-6a12.918 12.918 0 012.046-2.981c.119-.141.15-.167.272-.323a11.154 11.154 0 00.954-1.232 7.589 7.589 0 011.27-2.108 16.549 16.549 0 001.564-2.344c.271-.707-.11-.146.584-1.072a19 19 0 001.365-2.014c.387-.759.083-.508 1.058-1.195l1.392-.86c.4.832-.144 1.642-.57 2.278a5.936 5.936 0 01-.968 1.284 4.037 4.037 0 00-.583.543 12.049 12.049 0 00-1.238 2.144c-.264.526-.461 1-.727 1.524-.382.753-1.468 2.182-1.708 2.8a2.782 2.782 0 01-.395.731c-.786 1.173-1.629 2.056-2.462 3.168a9.7 9.7 0 00-.881 1.37c-.155.4-.1.426-.388.738a6.248 6.248 0 00-.482.644 2.872 2.872 0 00-.731 1.521v3.381c0 .457.091.724-.182.944a1.018 1.018 0 01-1.541-.15zm-.861-1.259a1.4 1.4 0 01-.4.066 7.829 7.829 0 00-.284-.908 7.2 7.2 0 01-.037-2.857c.059-.562.008-1.377.093-1.96.255-1.743.289-3.185 1.341-4.753.74-1.1 1.92-1.862 2.824-3.337.917-1.5 2.171-3.526 3.2-4.948.136-.187.261-.4.388-.606a36.415 36.415 0 012.876-4.278 1.8 1.8 0 01.4 1.592 4.579 4.579 0 01-.7 1.484 19.493 19.493 0 01-1.532 1.647 15.082 15.082 0 00-1.232 3.073c-.346.721-1.971 2.325-2.385 3.046a5.084 5.084 0 01-1.038 1.081 15.294 15.294 0 00-1.616 1.637c-1.393 2.29-1.026 1.1-1.511 3.854-.073.418-.133 3-.293 4.079l-.094 2.091zm-1.59-9.936l.072 1.517a3.733 3.733 0 01-.045 2.087 5.2 5.2 0 00-.226.9c0 .9.3 1.125-.4 1.59a.59.59 0 01-.464-.663c0-.491.464-.472.464-.663 0-.589-.408-.063-.4-1.39l-.092-3.551c-.2-.908-.484-1.021.641-2.525 1.011-1.352.624-.705 1.327-1.389.277-.27.172-.281.32-.607.206-.453.74-.422 1.224-.63.52-.224.458-.619.705-1.083.285-.534.838-.393.974-.881.292-1.042-.107-1.19 1.04-2.6 1.749-2.155.954-2.668 1.678-3.82.865-1.377 2.052-.717 2.052.132 0 .225-.515.554-.681.71-.866.812.524.407-.815 2.431-1.177 1.779-.559 2.113-1.193 2.383-.3.129-.447.332-.614.777-.068.181-.123.348-.18.549s-.078.43-.14.589a9.7 9.7 0 01-1.958 2.281c-.14.133-.222.232-.362.366-.462.445-1.516 1.155-1.764 1.814-.1.262-.039.228-.265.4-.156.115-.3.187-.441.287a1.038 1.038 0 00-.462 1zm1.788-13.174c0 .846.143 1.445-.1 1.817-.591.887.441.841-.238 1.814-.383.549-.452.515-.452 1.138 0 .35.441.258.784-.276a6.415 6.415 0 001.024-2.486c.754-1.556 1.771.024 1.187.524-.192.164-.545.268-.545.649a2.751 2.751 0 01-.292 2.291 2.85 2.85 0 01-1.054 1c-.667.33-1.124.39-1.484.57a2.668 2.668 0 00-.926 1.128 17.945 17.945 0 00-1.35 2.691c-.16.616.084 1.42-.734 1.077-.717-.3-.721-.123-.721-1.338.609-.163.441-.646.545-1.309.123-.788 1.212-2.28 1.536-4.094a3.721 3.721 0 01.16-.768 5.764 5.764 0 00.758-2.091 10.025 10.025 0 01.437-1.418c.289-.806.356-.577 1-.919a1.752 1.752 0 01.729-1.723c.409.216.4.339.4.862 0 .9-.663.465-.663.861zm-17.289-.993a2.057 2.057 0 012.12-1.918 7.366 7.366 0 012.054.33 2.12 2.12 0 01.661.332c.969.656.751.133 1.258.133.386 0 1.132.967 1.446 1.2.588.444 1.093.177 1.815.9 1.2 1.2 1.788.58 2.454-.231a1.263 1.263 0 01.909-.483c.181.269.565 1.23.19 1.581-.315.294-.322.084-.322.606 0 .657.025 1.393.795 1.457a1.37 1.37 0 00-.137-1.986 1.694 1.694 0 01.352-.973c.1-.17.467-.749.642-.749 1.082 0 .2 1.327.2 1.855 0 .594.2 1.1.2 1.656 0 1.251-1.057 1.239-1.425 2.086-.379.87.281 1.9-.893 2.683-.336-.247-.143-.518-.663-.53-.073.312-.2.31-.2.53 0 .509.53.632.53 1.192 0 .649-.235 1.591-.729 1.723-.667-.447.373-1.542-.3-2.022-1.068-.764-.92 1.547-.685 2.409.356 1.307 1.269.29 1.687 1.426a1.446 1.446 0 01-.012 1.263c-.816 1.277-1.155 1.276-1.155 2.489 0 1.021.636.954.666 1.652a2.05 2.05 0 00.129 1c.267.47 1.259.778 1.259-.066 0-.51-.861-.667-.861-1.06 0-.488.2-.659.2-1.06a17.55 17.55 0 01-.155-2.273c.093-.337.406-.413.681-.579.427-.258.363-.3.865-.261.317 1.362-.133 1.884-.133 3.445 0 1.337.693 2.135-.38 2.734-.356.2-.349.462-.349.976 0 .4.14.673-.072.988-.2.291-.43.231-.724.074a3.053 3.053 0 01-.95-.841c-.581-.707.064-1.565-.762-2.219a1.545 1.545 0 01-.8-1.58c0-1.714.316-1.382.718-2.064a7.174 7.174 0 00.474-2.705c0-.51-1.391-1.073-1.391.2 0 .913.207 1.608-.251 2.332a2.881 2.881 0 00-.544 1.642c0 .216.316.366.464.464a6.285 6.285 0 00.154 1.7c.407 1.189 1.965 3.2 1.965 3.8v.265c0 .563-.747.977-1.26.964a.755.755 0 01-.643-.451c-.419-.893-.056-2.172-.432-2.946-.249-.511-.762-.348-1.069-1.249a8 8 0 01.023-3.873 5.042 5.042 0 01.491-1.761 5.45 5.45 0 00.572-1.746.932.932 0 00-.994-.994c-.16 0-.194.107-.331.2.122-1.467.049-.639-.265-1.987-.619.014 0 .4-1.656.4a1.148 1.148 0 01-1.1-.552 2.882 2.882 0 01-.287-1.568c0-.355.734-.546 1.035-.309a1.431 1.431 0 001.276.431 3.011 3.011 0 012.056.461c.336.258.789.552 1.078.085a1.519 1.519 0 00.107-.224c.424-.919.96-1.228.018-1.925a1.666 1.666 0 00-.872-.386 1.08 1.08 0 00-.712.48c-.193.395-.065.845-.546.845-.5 0-.53-.517-.53-.927.25-.059.27-.129.535-.194a1.726 1.726 0 00.55-.179c1-.554.67-3.226-2.252-2.252-.309.1-.263.123-.343.387-.141.47-.15.249-.411.249-.452 0-.4 1.055-1.232-.027a6.237 6.237 0 00-1.144-1.24c-.142-.113-.187-.151-.325-.271s-.191-.137-.33-.266c-.586-.542-2-1.787-2-2.7zm20 1.258a1.374 1.374 0 01.53-2.186c1.005.673-.245 2.11-.53 2.186zM22.322 3.248c-.817 1.22-.046 2.469-2.4 1.543a13.954 13.954 0 00-2.338-.576 6.447 6.447 0 00-2.213-.238c-1.139 0-.927.447-.927 2.186a4.739 4.739 0 001.983 3.577c.633.484 1.8 1.621 2.225 1.948a3.116 3.116 0 01.623.768 3.018 3.018 0 00-.49.636 4.677 4.677 0 01-1.1 1.153 7.843 7.843 0 00-2.232 2.4c-.143.311-.231.517-.375.817-.269.559-.366 1.168-.582 1.737-.2.519-.539 1.032-.786 1.532-.127.258-.261.465-.41.716a5.011 5.011 0 01-.508.684 4.152 4.152 0 01-.59.535l-.628.565c-.107.095-.16.167-.265.265-.143.133-.19.14-.331.265-.6.537-1.152 1.158-1.783 1.662a14.719 14.719 0 00-1.132 1.186L6.975 27.84c-.173.212-.337.434-.484.643a3.343 3.343 0 00-.72 1.6c-.287.954-.857.855-1.517 1.4-.565.464-.268 2.687-.083 3.431a3.468 3.468 0 00.881 1.371l1.876 1.635a4.085 4.085 0 001.622.7c1.068.236 3.816.916 4.788.095.36-.3.626-1.842 1.221-2.289s1.961-.271 2.728-.717c.918-.535.513-.542 1.639-.679l2.063-.255c.915-.13 1.342-.961 2.022-1.489.725-.563 2.294-.1 2.945-.5a3.662 3.662 0 00.623-.569c1.25-1.25.991-.943 3.3-.943a3.421 3.421 0 011.636.748 2.817 2.817 0 01.6.589c.369.464.341.937.887 1.5.42.43.434.087.964.228a3.446 3.446 0 011.592 1.986c.569 2.8.36 1.774 1.753 4.208.432.755-.069.312.963 1.422l.562.63c.406.4.717.867 1.093 1.291l2.88 3.082c1.327 1.435 2.789 2.786 4.174 4.172.205.205.366.518.712.546a31.879 31.879 0 00.914-3.391 17.2 17.2 0 011.839-4.718l1.591-2.781c.7-1.168 3.05-5.95 3.693-7.236l2.892-5.851a2.011 2.011 0 00-1.014.441c-.88.532-.643.253-1.116 1.07a12.41 12.41 0 00-1.119 1.862 2.52 2.52 0 00-.089.64c-.049.346-.193.79-.287 1.17a16.292 16.292 0 01-.774 2.206c-.663 1.649-1.98 3.025-2.2 3.691-.075.221-.082.378-.16.568a8.04 8.04 0 01-.835 1.351l-.911 1.274a3.092 3.092 0 01-.705.089c-.515 0 .177-1 .292-1.165.913-1.308.366-.845.988-2.191.508-1.1 1.3-2.1 1.9-3.138l.446-.812a15.042 15.042 0 00.4-1.457l.569-1.352c.646-1.628.154-1.464 1.617-3.417a8.25 8.25 0 011.823-1.953c1.487-1.3 1.605-1.052 1.936-3.1.062-.39.062-.74.127-1.131.112-.666.933-1.145.957-1.547a6.778 6.778 0 00-.8-2.306c-.327-.392-.468-.773-1.031-.889-.291-.059-.266 0-.346-.25l-.4-1.59h-.464a4.628 4.628 0 01-.385.741l-.808 1.444c-.142.274-.262.48-.419.773l-1.591 2.98c-.245.528-.052.313-.575.552-.583.266-.465.562-.668 1.585-.241 1.218-.169.67-1.16 1.158a7.47 7.47 0 00-1.086 1.233 1.528 1.528 0 00-.359.833c-.3 1.416-.961 1.382-1.95 2.62a1.946 1.946 0 00-.229.3l-.688 1.04a22.8 22.8 0 00-1.332 2.113 4.789 4.789 0 00-1.13 2.314c-.264.889-.132.967-.892 1.426-.511.309-.508.587-.626 1.1a1.624 1.624 0 00-.079.517l-.626.235c-.309.117-.26.165-.343.518-.12.516-.312.891-.423 1.365-.806.1-.815.205-1.084-.7-.522-1.76.05-1.878.967-3.453.053-.091.42-1.383.647-1.87.075-.16.128-.212.221-.376l.584-1.271a4.929 4.929 0 01.775-1.742c.189-.239.359-.46.561-.7.679-.8.932-1.464 1.873-1.836.572-.225.372-.316 1-1.451l.78-1.075c.586-.626 1.368-1.07 1.973-1.67.781-.774.652-.505 1.152-2.027a9.224 9.224 0 01.6-1.851c1.831-3.269 1.477-1.419 2.649-3.577a1.682 1.682 0 00.287-.972 2.852 2.852 0 001.126-1.259 8.51 8.51 0 00-2.252-1.325 5.142 5.142 0 01-.508 1.015c-.11.222-.18.331-.284.511a13.985 13.985 0 00-1.036 2.078 2.911 2.911 0 01-.836 1.482c-.255.29-.461.587-.705.885a11.75 11.75 0 00-1.04 1.278c-.176.293-.043.222-.308.487a19.476 19.476 0 00-1.937 1.905 11.757 11.757 0 01-1.045 1.339c-.278.278-.444.515-.728.8a1.715 1.715 0 01-1.016.574c-.473.089-.793.171-1.283.241a13.656 13.656 0 01-1.461.129c-.046.549-.626 1.662-.8 2.383-.308 1.305-.393.9-1.08 2.1l-.724 2.456c-.082.411-.141.9-.259 1.33-.294 1.064-.469 1.215-.015 2.293a9.658 9.658 0 01.474 2.176c.274 1.556.385 1.373-.777 1.373-.433 0-.653-1.34-.7-1.683-.16-1.136-.084-3.15-.22-4.549-.169-1.746-.424-2.1.249-3.779l.8-2.311a2.764 2.764 0 01.345-.715l.863-1.257a4.407 4.407 0 00.64-1.413c.258-.777.643-1.48.948-2.232.4-.994.156-.812.966-1.683.127-.137.123-.161.235-.295a5.582 5.582 0 001.41-2.763c.268-.8 1.292-.739 1.762-1.351.8-1.048.748-2.275 1.213-2.96.156-.229.829-.472 1.282-.838 1.268-1.024-.11-.879 1.467-1.713a9.383 9.383 0 00-2.96-1.882c-.258-.1-.518-.16-.755-.238-1.072-.352-.8-1.081-2.018-1.89s-2.782-.4-3.195-.78a4.79 4.79 0 00-.522-.472 3.009 3.009 0 00-.616-.378c-.563 0-1.03.173-1.446-.078-.853-.514-1.021-.8-2.018-.406-.343.134-.53.251-.8-.023a4.479 4.479 0 01-.47-.661 3.479 3.479 0 00-.453-.673c-.668-.585-2.993-.708-3.83-.648-.332.024-.312.365-.662.428l-3.241.137c-1.549 0-2.921.066-4.5.066zM0 60.94h2.185V.002H0zm64.317-4.106h2.186V.002h-2.186zm4.372 8.545h1.921c0-1.293.066-2.354.066-3.643v-3.71a.09.09 0 01.022.045.126.126 0 00.021.046l.091.306.117.478 1.669 6.478h1.855l1.921-7.22.066 7.22h1.921v-9.8h-2.981c-.247 0-.2.234-.317.677-.079.309-.147.514-.226.834-.132.532-.285 1.068-.424 1.629l-.954 3.286a4.779 4.779 0 00-.191-.8l-1.531-5.622h-3.047v9.8zm-59.946 0h11.79v-9.8h-1.987v8.147h-2.981v-8.15H13.51v8.147h-2.78v-8.147H8.743v9.8zm17.884-31.662v20.137h2.983V32.326c-2.215 0-1.217-.173-2.168.747-.473.455-.815.362-.815.644zM4.305 30.14c.382-.1.393-.579.522-.937a6.281 6.281 0 011.052-1.863c.126-.152.612-.681.612-.845V.002H4.305V30.14zm55.705-.132v26.827h2.186V27.69c-.2.146-.56.949-.91 1.342a3.734 3.734 0 01-1.276.976zM21.726 35.44v18.282h2.984V33.983c-.321.154-.656-.007-.977.083-.227.063-1.338 1.219-2 1.374zm18.347 29.939h2.054c.187 0 .329-.336.527-.666l3.381-5.362v6.027h2.054v-9.8h-2.252c-.069.294-2.849 4.727-3.218 5.327l-.491.767v-6.098h-2.054v9.8zM4.305 60.94h2.186V39.016c0-.189-.761-.654-1.118-.936l-.781-.74c-.178-.214 0-.167-.287-.242V60.94zm51.136-24.441v17.355h2.385V32.26a6.016 6.016 0 00-.619 1.038c-.194.383-.391.678-.612 1.045l-.9 1.548a1.269 1.269 0 00-.252.609zM8.743 24.312l1.746-1.5c.151-.127.241-.1.241-.289V.001H8.743v24.31zm43.585 35.967l-3.378 5.1h2.45a36.455 36.455 0 012.186-3.312l2.12 3.312h2.451c-.227-.429-.552-.861-.835-1.285l-1.271-1.908c-.2-.3-1.257-1.768-1.272-1.907s1.352-2.059 1.524-2.318a25.7 25.7 0 001.524-2.385h-2.452a27.878 27.878 0 01-1.855 2.915c-.37-.7-1.439-2.128-1.855-2.915h-2.384c.129.193.216.359.357.57l2.689 4.133zm7.682-43.187c0 .19.507.661.767 1.087a4.838 4.838 0 01.6 1.325 7.838 7.838 0 01.289 1.565 2.064 2.064 0 00.532 1.389V.002H60.01v17.09zM33.318 60.014h-.464v-2.716c.954 0 2.424-.162 2.967.345a1.267 1.267 0 01-.475 2.214 9.9 9.9 0 01-2.029.157zM30.8 65.379h2.054V61.74c1.335 0 2.928.147 4.108-.463 2.143-1.107 2.163-5.7-1.591-5.7H30.8v9.8zm.066-11.526h2.054V35.174c-.973-.227-1.652-1.974-2.054-2.12zM18.547 36.102v17.752h1.987V35.84c-.271.006-.726.091-1 .128a6.048 6.048 0 01-.987.134zM45.373 18.88c0 1.386-.449.484-.741 1.313-.475 1.35.012.984-.756 1.364-.235.116-.1.049-.278.251a3.435 3.435 0 00-1.206 2.632c0 1.6 1.354-.119 1.494-.228l1.1-1.015c.39-.392 1.343-.758 1.531-1.251.218-.574-.026-.688.657-1.4l.621-.77.56-1.559c.089-.374.3-.3.672-.719l1.42-2.024a4.014 4.014 0 01.831-1.289c.372-.307.626-.057.9-.488.108-.167.127-.238.255-.408a1.224 1.224 0 00.285-.444c-.653-.174-2.105-1.81-2.649-1.855-.441.919-.184 1.387-.945 2.168a3.78 3.78 0 00-.871 1.514l-.414 1.109c-.114.231-.191.2-.332.462a4.221 4.221 0 00-.5 1.095c-.123.468-.255.3-.768.822-.331.335-.579.688-.877.713zm10.068-5.829a5.657 5.657 0 011.258.729l1.126.861V.002h-2.384v13.049zm-20.2 40.67h2.649V43.255l-1.38-1.933c-.552-.814-.65-1.046-1.074-1.774l-.2-.267zM13.51 39.74v14.113h2.053V37.294c-.246.066-.424.349-.553.572-.2.337-.559 1.359-.711 1.541-.083.1.069 0-.146.12l-.643.213zm8.214 17.487h2.916v8.147h2.053v-8.143h2.917v-1.656h-7.884v1.656zM8.743 53.853h1.987V39.877c-.7 0-1.334-.265-1.987-.265v14.241zM49.281 8.678c0 .2.776.716 1.111 1.008l.86.73a2.788 2.788 0 00.347.249V.001h-2.318v8.677zm0 40.8v4.372h2.318v-9.933a.758.758 0 00-.091.108 18.7 18.7 0 00-2.227 5.456zm-3.379-42.72a1.719 1.719 0 00.708 1.014 4.884 4.884 0 001.479.31V.001h-2.187v6.757zm-5.829 47.1h2.054v-6.1c0-.224-.823-.923-1.011-1.109a8.769 8.769 0 00-1.043-1.076zM13.51 18.349a14.339 14.339 0 00.913-2c.19-.323.331-.611.53-.927.238-.378.61-.693.61-.848V10.4c0-.2-.41-.51-.546-.646a15.081 15.081 0 01-1.507-2.07v10.665zm46.369 42.525h6.491v-2.252h-6.491zm-19.806-56.7c.907.212 1.242.866 1.657.866h.4V.001h-2.057v4.173zm19.01 22.786c0 .971.729.937.729 1.126a2.565 2.565 0 01-.421 1.037 7.587 7.587 0 00-.441 1.083 6.27 6.27 0 00.967-1.021 6.28 6.28 0 001.129-1.917c.292-.632 1.216-1.6 1.216-1.964 0-.669-1.224-1.963-1.412-2.3-.123-.221-.056-.214-.245-.352a23.139 23.139 0 00-.4 2.516c.006.68.087.813-.337 1.12-.2.147-.788.416-.788.669zM35.238 2.452c0 .228.2.218.483.511.106.109.379.549.444.549a2.848 2.848 0 011.722 0V0h-2.649v2.451zm-16.692.861a7.874 7.874 0 011.987.6V.001h-1.987v3.312zm3.18-.994a6.749 6.749 0 011.458-.066c.545 0 .92-.067 1.523-.067V0h-2.981v2.318zM13.51 3.64c.38-.278-.13-.433.764-.561a8.1 8.1 0 011.289-.1V0H13.51v3.64zm13.117-1.454a4.787 4.787 0 00.747-.049c.261-.035.509 0 .767-.028.21-.023.453-.038.729-.066.241-.024.459-.117.738-.123V0h-2.982v2.186zm4.239-.663h.795c.52 0 .754.066 1.259.066V0h-2.054zm15.036 52.328h2.186v-.994c-.184.134-.22.32-.331.53-.6-.4-1.568-1.713-1.855-1.788v2.252z" fill-rule="evenodd"></path>
  </symbol>
  <symbol xmlns="http://www.w3.org/2000/svg" viewBox="0 0 100.576 48.002" id="Слой_x0020_1">
    <g fill-rule="evenodd">
      <path d="M25.739 14.561V36.2a2.912 2.912 0 01-2.866 2.918 2.957 2.957 0 01-2.811-2.368 12.13 12.13 0 01-7.192 2.368 12.455 12.455 0 01-9.192-4.02A14.232 14.232 0 010 25.405a14.032 14.032 0 013.677-9.69 12.357 12.357 0 019.192-4.129 12.187 12.187 0 017.193 2.419 2.857 2.857 0 015.678.551zm-7.84 16.52a8.379 8.379 0 002.111-5.676 8.186 8.186 0 00-2.108-5.672 6.631 6.631 0 00-5.029-2.258 6.467 6.467 0 00-5.033 2.262 8.145 8.145 0 00-2.054 5.668A8.346 8.346 0 007.84 31.08a6.754 6.754 0 005.029 2.148 6.927 6.927 0 005.03-2.148zm53.579 4.239a2.975 2.975 0 01-.379-4.075 2.779 2.779 0 014.055-.44 9.829 9.829 0 005.948 2.422 7.124 7.124 0 003.677-1.046 2.265 2.265 0 00.973-1.652.831.831 0 00-.161-.551c-.055-.165-.271-.386-.7-.661a12.37 12.37 0 00-4.326-1.541h-.055a20.466 20.466 0 01-4.7-1.432 9.077 9.077 0 01-3.731-3.193 6.767 6.767 0 01-.919-3.469 7.771 7.771 0 013.19-6.056 11.485 11.485 0 016.652-2.038 13.754 13.754 0 018.11 3.028 3.078 3.078 0 01.866 4.075 2.83 2.83 0 01-4 .77c-1.731-1.156-3.245-2.037-4.974-2.037a5.441 5.441 0 00-3.245.992 1.68 1.68 0 00-.865 1.266.6.6 0 00.108.441 1.469 1.469 0 00.6.551 10.881 10.881 0 003.947 1.321l.053.055h.053a19.144 19.144 0 015.029 1.6 8.436 8.436 0 013.826 3.246 7.232 7.232 0 011.027 3.634 7.981 7.981 0 01-3.407 6.387 12.155 12.155 0 01-7.029 2.2 15.551 15.551 0 01-9.624-3.8zm26.179-23.678a2.882 2.882 0 012.919 3.028v21.475a2.9 2.9 0 01-2.919 2.973 2.934 2.934 0 01-2.919-2.973V14.67a2.915 2.915 0 012.919-3.028zm2.919-8.094v1.157a2.947 2.947 0 01-2.919 3.028 2.982 2.982 0 01-2.92-3.028V3.548a2.935 2.935 0 012.92-2.973 2.9 2.9 0 012.919 2.973zM41.434 39.263a27.825 27.825 0 01-6.565-4.49 21.853 21.853 0 01-5.407-14.407 21.428 21.428 0 015.407-14.24A18.159 18.159 0 0148.387 0a17.674 17.674 0 0113.41 6.126 20.733 20.733 0 015.515 14.24 21.153 21.153 0 01-5.515 14.407 20.852 20.852 0 01-6 4.36l-1.244.5c-2.012-.12-6.01-.047-13.119-.37zm-5.592-18.895a14.6 14.6 0 003.73 9.932 11.661 11.661 0 008.813 3.974 12.248 12.248 0 008.927-3.974 14.587 14.587 0 003.731-9.935 14.113 14.113 0 00-3.731-9.826 12.1 12.1 0 00-8.923-4.029 11.522 11.522 0 00-8.813 4.029 14.106 14.106 0 00-3.731 9.826z"></path>
      <path d="M67.834 38.877a3.147 3.147 0 013.143 3.15c0 1.759-2.024 3.474-3.443 4.3a13.027 13.027 0 01-3.44 1.3 14.784 14.784 0 01-4.028.368 13.236 13.236 0 01-3.93-.784 17.238 17.238 0 01-1.971-.894c-.68-.3-1.349-.619-2.012-.92a17.828 17.828 0 00-3.19-1.199 4.973 4.973 0 00-3.064.2 45.265 45.265 0 00-4.064 2.151 3.142 3.142 0 01-4.483-2.85c0-1.759 2.024-3.474 3.443-4.3a13.025 13.025 0 013.44-1.3 14.784 14.784 0 014.028-.368 13.235 13.235 0 013.93.784 17.242 17.242 0 011.971.894c.68.3 1.349.619 2.012.92a17.828 17.828 0 003.189 1.185 4.974 4.974 0 003.064-.2 45.236 45.236 0 004.064-2.151 3.125 3.125 0 011.341-.286z"></path>
    </g>
  </symbol>
  <symbol xmlns="http://www.w3.org/2000/svg" viewBox="0 0 17 17" id="bars">
    <path d="M6.375 14.571H17V17H6.375zM0 4.857h17v2.429H0zm17 7.286H0V9.714h17zM17 0v2.429H0V0z"></path>
  </symbol>
  <symbol xmlns="http://www.w3.org/2000/svg" viewBox="0 0 19 19" id="basket">
    <path d="M5.655 15.2a1.9 1.9 0 101.885 1.9 1.89 1.89 0 00-1.885-1.9zm9.425 0a1.9 1.9 0 101.885 1.9 1.89 1.89 0 00-1.886-1.9zm-9.265-3.087L5.843 12l.848-1.549h7.021a1.874 1.874 0 001.649-.978L19 2.812l-.913-.912H6.748v1.9h9.566l-2.6 4.75H7.1l-.123-.257L4.863 3.8l-.9-1.9L3.082 0H0v1.9h1.885l3.393 7.211-1.273 2.327a1.848 1.848 0 00-.236.912 1.9 1.9 0 001.885 1.9h11.31v-1.9H6.051a.24.24 0 01-.236-.237z"></path>
  </symbol>
  <symbol xmlns="http://www.w3.org/2000/svg" viewBox="0 0 56 56" id="burger">
    <path d="M2.806 39.606v-2.212c0-.133.009-.265.022-.4a4.03 4.03 0 01-.565-.435 3.569 3.569 0 01-1.162-2.689 3.88 3.88 0 01.847-2.427 3.04 3.04 0 01-.648-1.926 2.956 2.956 0 011.859-2.728 3.959 3.959 0 01-.343-1.621v-.644A3.163 3.163 0 010 21.29 21.04 21.04 0 014.284 9.585a21.988 21.988 0 018.47-6.676A36.519 36.519 0 0128-.001c7.459 0 13.619 1.547 18.308 4.589a.916.916 0 01.282 1.211.791.791 0 01-1.128.3C41.028 3.22 35.154 1.762 28 1.759a34.995 34.995 0 00-14.6 2.766 20.348 20.348 0 00-7.841 6.174 19.034 19.034 0 00-3.916 10.6 1.438 1.438 0 001.385 1.483h49.943a1.438 1.438 0 001.385-1.483 16.819 16.819 0 00-.966-5.013 19.3 19.3 0 00-4.968-7.845.923.923 0 01-.065-1.242.785.785 0 011.16-.07A21.1 21.1 0 0156 21.299a3.163 3.163 0 01-2.816 3.233v.644a3.962 3.962 0 01-.349 1.634 2.84 2.84 0 011.076.734 3.01 3.01 0 01.788 2.1 3.06 3.06 0 01-.625 1.816 3.881 3.881 0 01.846 2.426 3.569 3.569 0 01-1.162 2.689 4.07 4.07 0 01-.6.458c.012.123.019.248.019.372v2.21a3.162 3.162 0 012.826 3.234c-.003 7.25-5.519 13.15-12.297 13.15H12.29C5.516 55.999 0 50.099 0 42.838a3.164 3.164 0 012.807-3.232zm.532-4.373a4.453 4.453 0 003.614.759 5.646 5.646 0 002.175-.8c.134-.076.269-.152.41-.227l-1.866-2.037a1.215 1.215 0 00-.89-.4H4.108a2.6 2.6 0 01-.751-.111 2.021 2.021 0 00-.612 1.459 1.783 1.783 0 00.593 1.357zm48.2-10.7H4.459v.635a2.047 2.047 0 00.809 1.649l.042.03c.035.025.071.048.107.07l.038.023q.07.04.143.074h.008a1.747 1.747 0 00.167.065l.019.006q.071.023.145.04l.046.01c.042.008.085.016.128.021l.048.006a1.71 1.71 0 00.175.01h43.333a1.946 1.946 0 001.873-2.003v-.636zm1.2 4.235a1.158 1.158 0 00-.846-.383h-.4a3.329 3.329 0 01-1.826.548H6.334c-.073 0-.145 0-.217-.008l-.068-.005c-.05 0-.1-.01-.151-.017l-.074-.01a3.756 3.756 0 01-.19-.035l-.079-.019-.129-.034-.1-.029-.1-.035-.1-.035c-.056-.022-.111-.046-.166-.07l-.1-.048-.091-.047-.1-.053-.107-.064-.065-.039h-.44a1.158 1.158 0 00-1.113 1.169 1.213 1.213 0 00.652 1.086 1.1 1.1 0 00.511.129h2.674a2.815 2.815 0 012.062.926l3.33 3.629a2.226 2.226 0 002.971.317l.059-.044c.051-.039.1-.081.151-.125l4.313-3.957a2.783 2.783 0 011.88-.744h30.395a1.041 1.041 0 00.488-.123 1.211 1.211 0 00.306-1.878zm.538 5.108a2.02 2.02 0 00-.606-1.452 2.559 2.559 0 01-.727.1H21.55a1.2 1.2 0 00-.812.321l-3.411 3.134h.214a3.471 3.471 0 002.2-.714 5.274 5.274 0 016.079 0 3.731 3.731 0 004.39 0 5.274 5.274 0 016.079 0 3.731 3.731 0 004.39 0 4.987 4.987 0 013.04-.964 5.588 5.588 0 013.18.883 5.64 5.64 0 002.174.8 4.454 4.454 0 003.614-.759 1.782 1.782 0 00.593-1.358zM12.29 54.241h31.416c5.873 0 10.651-5.115 10.651-11.4a1.438 1.438 0 00-1.385-1.483h-36.83a.882.882 0 010-1.759h35.389V37.67a6.8 6.8 0 01-1.481.159 7.926 7.926 0 01-1.219-.1 7.147 7.147 0 01-2.7-.99 4.112 4.112 0 00-2.411-.679 3.471 3.471 0 00-2.2.714 5.274 5.274 0 01-6.079 0 3.731 3.731 0 00-4.39 0 5.274 5.274 0 01-6.079 0 3.731 3.731 0 00-4.39 0 4.986 4.986 0 01-3.039.964 4.893 4.893 0 01-1.935-.358 3.767 3.767 0 01-1.767.442 3.844 3.844 0 01-2.839-1.269l-.23-.25a6.215 6.215 0 00-.876.436 7.149 7.149 0 01-2.7.99 7.876 7.876 0 01-1.219.1 6.789 6.789 0 01-1.521-.168v1.938h7.869a.882.882 0 010 1.759H3.029a1.438 1.438 0 00-1.386 1.483c0 6.287 4.778 11.4 10.651 11.4zm0 0z"></path>
  </symbol>
  <symbol xmlns="http://www.w3.org/2000/svg" viewBox="0 0 20 19" id="favorite">
    <path d="M14.5 0A5.907 5.907 0 0010 2.164 5.907 5.907 0 005.5 0 5.546 5.546 0 000 5.695c0 3.914 3.4 7.1 8.55 11.949L10 19l1.45-1.367C16.6 12.8 20 9.609 20 5.695A5.546 5.546 0 0014.5 0zm-4.4 16.1l-.1.1-.1-.1C5.14 11.638 2 8.687 2 5.695a3.48 3.48 0 013.5-3.624 3.91 3.91 0 013.57 2.444h1.87a3.885 3.885 0 013.56-2.444A3.48 3.48 0 0118 5.695c0 2.992-3.14 5.943-7.9 10.405z"></path>
  </symbol>
  <symbol xmlns="http://www.w3.org/2000/svg" viewBox="0 0 14 19" id="location">
    <path d="M7 0a6.827 6.827 0 00-7 6.65C0 11.637 7 19 7 19s7-7.363 7-12.35A6.827 6.827 0 007 0zm0 9.025A2.441 2.441 0 014.5 6.65 2.441 2.441 0 017 4.275 2.441 2.441 0 019.5 6.65 2.441 2.441 0 017 9.025z"></path>
  </symbol>
  <symbol xmlns="http://www.w3.org/2000/svg" viewBox="0 0 179.919 31.488" id="surface">
    <path d="M12.753 0A15.317 15.317 0 00.045 6.655l5.273 3.958a8.806 8.806 0 017.481-4.139 8.969 8.969 0 018.51 6.1H9.238l1.577 6.343h10.511a9.019 9.019 0 01-8.527 6.094 8.679 8.679 0 01-7.481-4.093L0 24.831a15.367 15.367 0 0012.753 6.657c9.465 0 15.638-7.152 15.638-15.789A15.621 15.621 0 0012.753 0zm36.232 24.786h-8.788v-6.028h8.788a2.961 2.961 0 013.019 3.014 3.014 3.014 0 01-3.019 3.014zM40.197 6.701h8.607a2.991 2.991 0 010 5.983h-8.607zm15.412 8.817a8.658 8.658 0 002.659-6.208c0-5.264-4.461-8.817-9.419-8.817H32.13l1.577 6.343v24.157h15.052c5.318 0 9.6-3.733 9.643-9.086a7.939 7.939 0 00-2.792-6.387zm39.003-8.68h7.119v24.155h6.535V6.838h7.165l1.577-6.343H93.031zm73.997 9.512h-6.805V6.874h6.805a4.612 4.612 0 014.732 4.716c-.181 2.83-1.983 4.76-4.732 4.76zM168.473.495h-14.646l1.442 5.794v24.7h6.535v-8.31h6.67c6.625 0 11.446-4.357 11.446-10.959-.001-6.733-4.912-11.135-11.447-11.225zM79.178 8.119C70.165 8.3 63.36 14.876 63.36 23.84a15.72 15.72 0 001.687 7.152h8.086a9.442 9.442 0 01-3.238-7.107 9.283 9.283 0 0118.566 0 9.29 9.29 0 01-3.323 7.107h8.119A15.766 15.766 0 0079.178 8.118zM140.82.495a9.266 9.266 0 014 7.647 9.373 9.373 0 01-9.329 9.324 9.265 9.265 0 01-9.238-9.324 9.177 9.177 0 013.965-7.647h-8.635a15.91 15.91 0 00-1.865 7.6 15.8 15.8 0 1029.634-7.6zm0 0" fill-rule="evenodd"></path>
  </symbol>
  <symbol xmlns="http://www.w3.org/2000/svg" viewBox="0 0 55.793 55.845" id="Контур 273">
    <path d="M34.674 28.356h-1.148a1.716 1.716 0 00-1.716 1.714v20.007a1.716 1.716 0 001.714 1.714h1.149a1.716 1.716 0 001.714-1.714V30.07a1.716 1.716 0 00-1.713-1.714zm.251 21.721a.252.252 0 01-.251.251h-1.148a.252.252 0 01-.251-.251V30.07a.252.252 0 01.251-.251h1.149a.252.252 0 01.251.251zM28.5 33.294a.731.731 0 00-.731.731v16.052a.252.252 0 01-.251.251h-1.15a.252.252 0 01-.251-.251V33.844a.732.732 0 00-1.463 0v16.233a1.716 1.716 0 001.715 1.714h1.149a1.716 1.716 0 001.715-1.714V34.026a.731.731 0 00-.732-.731zm13.429-4.939h-1.148a1.716 1.716 0 00-1.714 1.714v6.257a.732.732 0 001.463 0V30.07a.252.252 0 01.251-.251h1.149a.252.252 0 01.251.251v20.007a.252.252 0 01-.251.251h-1.149a.252.252 0 01-.251-.251V39.444a.732.732 0 10-1.463 0v10.633a1.716 1.716 0 001.714 1.714h1.149a1.716 1.716 0 001.714-1.714V30.07a1.716 1.716 0 00-1.715-1.714zm9.706-5.813h-4.272v-1.61a3.681 3.681 0 00-1.776-6.905h-1.082v-.417a3.686 3.686 0 00-3.682-3.682H38.61a4.484 4.484 0 00-8.914 0h-2.222a3.686 3.686 0 00-3.681 3.682v.418H22.71a3.68 3.68 0 00-1.873 6.849v30.15a4.823 4.823 0 004.817 4.817h16.892a4.823 4.823 0 004.817-4.817v-4.661h4.271a4.162 4.162 0 004.158-4.156V26.7a4.162 4.162 0 00-4.157-4.157zM22.71 15.489h1.814a.731.731 0 00.731-.731V13.61a2.221 2.221 0 012.219-2.219h2.678a.977.977 0 00.975-.975 3.02 3.02 0 116.041 0 .977.977 0 00.976.975h2.678a2.221 2.221 0 012.22 2.219v1.15a.731.731 0 00.731.731h1.814a2.219 2.219 0 010 4.437H33.719a5.217 5.217 0 00-5.217 5.217v4.108a1.288 1.288 0 01-2.576 0v-7.719a1.609 1.609 0 00-1.607-1.607H22.71a2.219 2.219 0 110-4.437zm0 5.9h1.609a.145.145 0 01.144.145v2.238h-2.164v-2.406a3.688 3.688 0 00.41.023zm19.836 32.992H25.654a3.358 3.358 0 01-3.354-3.354V25.235h2.164v4.016a2.751 2.751 0 105.5 0v-4.016h9.831a.732.732 0 100-1.463h-9.571a3.758 3.758 0 013.5-2.382h11.864c.105 0 .209-.005.313-.014v2.4H42.91a.732.732 0 100 1.463h2.99v25.788a3.358 3.358 0 01-3.354 3.354zM54.329 42.21a2.7 2.7 0 01-2.694 2.694h-4.272v-1.659h4.271a1.037 1.037 0 001.037-1.035v-8.947a.732.732 0 10-1.463 0v8.519h-3.845V27.127h3.847v3.019a.732.732 0 001.463 0V26.7a1.038 1.038 0 00-1.036-1.036h-4.274V24.01h4.271a2.7 2.7 0 012.694 2.694zM19.21 24.68a4.146 4.146 0 01-2.1-3.385l-.93-16.563a1.254 1.254 0 00.617-1.079V2.345A2.348 2.348 0 0014.452 0H7.689a2.348 2.348 0 00-2.345 2.345v1.308a1.254 1.254 0 00.617 1.079l-.594 10.584A.818.818 0 107 15.408l.13-2.31h7.88l.465 8.289a5.776 5.776 0 002.924 4.716 4.17 4.17 0 012.111 3.618v5.34h-1.853a7.753 7.753 0 00-1.016-2.4.818.818 0 10-1.378.883 6.142 6.142 0 01.969 3.32v6.546a6.163 6.163 0 01-12.322 0v-6.544a6.165 6.165 0 019.149-5.392.818.818 0 00.794-1.431 7.8 7.8 0 00-11.368 5.018H1.636v-5.34a4.17 4.17 0 012.105-3.619 5.775 5.775 0 002.924-4.716l.139-2.484a.818.818 0 10-1.633-.092l-.139 2.484a4.146 4.146 0 01-2.1 3.385A5.809 5.809 0 000 29.721v24.214a1.911 1.911 0 001.91 1.909h2.18a.818.818 0 000-1.636H1.91a.273.273 0 01-.273-.273v-8.513h1.9a7.8 7.8 0 0015.068 0h1.9v8.513a.273.273 0 01-.273.273H7.655a.818.818 0 000 1.636h12.577a1.911 1.911 0 001.909-1.909V29.721a5.809 5.809 0 00-2.931-5.041zM6.98 2.345a.71.71 0 01.709-.709h6.763a.71.71 0 01.709.709v.927H6.98v-.927zm.242 9.117L7.59 4.91h6.961l.368 6.553h-7.7zM1.636 43.786v-7.09h1.64v6.714c0 .126 0 .251.01.376h-1.65zm17.224 0c.006-.125.01-.25.01-.376v-6.713h1.64v7.09h-1.65z"></path>
  </symbol>
  <symbol xmlns="http://www.w3.org/2000/svg" viewBox="0 0 56 56" id="Контур 274">
    <path d="M55.2 22.83h-9.372v-2.646a.8.8 0 00-.8-.8H21.145a.8.8 0 000 1.6h23.078v8.779a21.368 21.368 0 01-10.544 18.399l-.071.042H12.22l-.071-.042A21.368 21.368 0 011.6 29.768v-8.779h7.715a.8.8 0 100-1.6H.8a.8.8 0 00-.8.8v9.582a22.876 22.876 0 008.605 17.9l.674.54H.8a.8.8 0 00-.8.8 7 7 0 006.994 6.994h34.494a7 7 0 006.994-6.994.8.8 0 00-.8-.8H36.549l.674-.54a23.059 23.059 0 005.052-5.638l.089-.141h3.287A10.359 10.359 0 0056 31.537v-7.9a.8.8 0 00-.8-.8zm-8.452 27.347a5.4 5.4 0 01-5.261 4.217H6.993a5.4 5.4 0 01-5.261-4.217l-.082-.369h45.18zm-.92-20.409v-.911h4.144v2.68a4.325 4.325 0 01-4.32 4.32h-.642l.1-.379a22.984 22.984 0 00.721-5.711zm8.567 1.769a8.752 8.752 0 01-8.743 8.747h-2.368l.214-.437a22.759 22.759 0 00.932-2.182l.073-.2h1.15a5.932 5.932 0 005.925-5.925v-3.485a.8.8 0 00-.8-.8h-4.95v-2.82h8.567v7.1zM23.732 6.004l-.575-.72a3.185 3.185 0 010-3.981.803.803 0 00-1.257-1 4.78 4.78 0 000 5.981l.575.722a4.07 4.07 0 010 5.087l-.59.743a.803.803 0 001.257 1l.59-.743a5.665 5.665 0 00-.006-7.084zM29.86 8.49l-.575-.722a3.185 3.185 0 010-3.981.803.803 0 10-1.257-1 4.78 4.78 0 00.005 5.978l.575.722a4.07 4.07 0 010 5.087l-.589.743a.803.803 0 001.257 1l.589-.743a5.665 5.665 0 00-.006-7.084zm-12.256 0l-.575-.722a3.185 3.185 0 010-3.981.803.803 0 10-1.257-1 4.78 4.78 0 00.005 5.978l.575.722a4.07 4.07 0 010 5.087l-.59.743a.803.803 0 001.257 1l.59-.743A5.665 5.665 0 0017.6 8.49zM16.1 19.619a.8.8 0 10.235.567.812.812 0 00-.235-.567zm23.622 9.347a.8.8 0 00-.8.8 16.144 16.144 0 01-4.655 11.279.802.802 0 101.14 1.129 17.765 17.765 0 005.12-12.408.8.8 0 00-.8-.8zm-7.798 15.018a.8.8 0 00-1.092-.305l-.025.014a.8.8 0 00.394 1.5.792.792 0 00.392-.1l.025-.014a.8.8 0 00.306-1.095z" fill-rule="evenodd"></path>
  </symbol>
  <symbol xmlns="http://www.w3.org/2000/svg" viewBox="0 0 56 56" id="Контур 275">
    <path d="M9.633 0h36.8a4.368 4.368 0 014.357 4.356v19.855a27.239 27.239 0 012.627 1.2 4.8 4.8 0 012.587 4.262v5.754a2.967 2.967 0 01-2.964 2.964h-2.25v13.253A4.368 4.368 0 0146.43 56H9.633a4.368 4.368 0 01-4.355-4.355V37.497L.922 36.62A1.151 1.151 0 010 35.49v-5.019a1.151 1.151 0 011.15-1.151h.774v-5.589a2.116 2.116 0 011.79-2.088 11.186 11.186 0 011.564-.023V4.355A4.368 4.368 0 019.633 0zm6.107 24.988a.82.82 0 100 1.641h.569a.82.82 0 100-1.641zm12.26 0a.82.82 0 000 1.641h.569a.82.82 0 100-1.641zm17.59 8.347a2.682 2.682 0 102.684 2.685 2.685 2.685 0 00-2.684-2.685zm0 3.724a1.041 1.041 0 111.044-1.039 1.043 1.043 0 01-1.044 1.038zm-32.591-3.724a2.682 2.682 0 102.682 2.685 2.685 2.685 0 00-2.682-2.685zm0 3.724a1.041 1.041 0 111.041-1.039 1.043 1.043 0 01-1.041 1.038zM49.29 23.672V4.356A2.864 2.864 0 0046.43 1.5H9.633a2.864 2.864 0 00-2.856 2.856V21.62h.2a17.354 17.354 0 0114.863-7.142l3.818.2a17.074 17.074 0 0110.519 4.386 349.822 349.822 0 013.767 3.467 21.859 21.859 0 014.721.091.82.82 0 11-.206 1.628 20.139 20.139 0 00-4.714-.05h-.091l-26.4-.892a1.708 1.708 0 01-1.234-2.822 18.094 18.094 0 013.93-3.366c.241-.156.487-.305.737-.449a14.9 14.9 0 00-4.023 1.825 14.892 14.892 0 00-4.558 4.377.821.821 0 01-.692.38H5.43l1.67 2.383a2.008 2.008 0 01.366 1.158v.706a2.02 2.02 0 01-2.018 2.02H3.565v.619a.82.82 0 01-.82.82H1.64v1.961h6.837a5.478 5.478 0 019.043 0h23.551a5.478 5.478 0 019.043 0h4.245v-.769a10.6 10.6 0 01-.694.025c-2.588 0-4.858-1.479-4.858-3.165 0-.6.32-1.376 1.847-1.671a14.629 14.629 0 012.459-.179 3.211 3.211 0 00-.459-.294 25.419 25.419 0 00-4.6-1.858.82.82 0 11.461-1.574q.388.114.773.24zM6.777 37.8l1.119.226a5.483 5.483 0 0010.046.365h3.026a.82.82 0 000-1.641h-2.535a5.425 5.425 0 00-.148-2.193h22.021a5.423 5.423 0 00-.148 2.193H24.796a.82.82 0 000 1.641h15.852a5.481 5.481 0 008.642 1.677v11.577a2.864 2.864 0 01-2.86 2.855H9.633a2.864 2.864 0 01-2.855-2.855V37.8zm6.475-16.162a.068.068 0 01.013-.08 15.827 15.827 0 0110.043-5.362l1.711.092a11.963 11.963 0 010 5.782l-11.707-.4a.052.052 0 01-.055-.036zm24.234.853l-10.796-.364a13.941 13.941 0 00.044-5.7 15.437 15.437 0 018.337 3.855c.782.709 1.59 1.449 2.414 2.21zM5.825 26.799v.706a.378.378 0 01-.377.377H3.565v-4.149a.47.47 0 01.049-.207l2.142 3.056a.375.375 0 01.068.216zM1.64 35.088v-.531h6.073a5.444 5.444 0 00-.192 1.719L1.64 35.088zm11.358 4.772a3.844 3.844 0 113.845-3.84 3.848 3.848 0 01-3.844 3.844zm40.666-9.329c-1.854 0-3.07-.95-3.205-1.439a9.388 9.388 0 013.205-.3c.194 0 .387.007.577.019a3.171 3.171 0 01.117.857v.832a8.786 8.786 0 01-.694.028zm-8.074 9.33a3.844 3.844 0 113.846-3.841 3.848 3.848 0 01-3.846 3.841zm7.443-3.111h-2.007a5.428 5.428 0 00-.148-2.193h3.48v.869a1.325 1.325 0 01-1.323 1.323z" fill-rule="evenodd"></path>
  </symbol>
  <symbol xmlns="http://www.w3.org/2000/svg" viewBox="0 0 55.892 55.845" id="Контур 276">
    <path d="M2.42 14.427V8.748A2.49 2.49 0 014.791 6.27l30.337-1.594h.033l15.326-.8.292-1.3v-.042a2.556 2.556 0 112.556 2.534 2.563 2.563 0 01-1.155-.273l-.351-.176-5.42 24.224v.014l-.892 3.986a2.233 2.233 0 01-2.187 1.745c-.057 0-.113 0-.17-.007l-.634-.048.841 1.218a4.752 4.752 0 01.287 4.928 4.813 4.813 0 01-4.264 2.551h-1.479v1.1l.253.043a5.784 5.784 0 11-6.82 5.694 5.74 5.74 0 011.484-3.857.742.742 0 011.041-.058.728.728 0 01.058 1.032 4.288 4.288 0 00-1.108 2.878 4.355 4.355 0 105.476-4.171l-.384-.1v1.765l.2.074a2.629 2.629 0 11-1.867 0l.2-.074v-4.325H8.446v1.1l.253.043a5.784 5.784 0 11-6.82 5.694 5.74 5.74 0 011.484-3.858.742.742 0 011.041-.057.727.727 0 01.058 1.032 4.289 4.289 0 00-1.109 2.877 4.355 4.355 0 105.476-4.171l-.384-.1v1.765l.2.074a2.629 2.629 0 11-1.867 0l.2-.074v-4.325h-4.59a2.368 2.368 0 110-4.735h22.648a.731.731 0 110 1.462H2.388a.906.906 0 100 1.811h37a3.342 3.342 0 002.96-1.771 3.3 3.3 0 00-.2-3.42l-1.59-2.3-2.412-.285 2.495 3.61a1.472 1.472 0 01.09 1.553 1.5 1.5 0 01-1.344.8H29.206a.731.731 0 110-1.462h10.265l-2.754-3.984a2.366 2.366 0 01-.282-.553l-.063-.178-23.8-2.818-4.487-.53A6.391 6.391 0 012.42 24.11v-3.806a.738.738 0 011.475 0v.783l13.258.869.576-6.709-13.834-.082v.99a.738.738 0 01-1.475 0v-1.719a.079.079 0 000-.008zm50.915-13.11a1.218 1.218 0 101.228 1.218 1.223 1.223 0 00-1.228-1.218zm-23.05 30.272l1.148-7.232L18.5 23.51l-.568 6.617 12.353 1.462zm-26.39-9.036v1.557a4.925 4.925 0 004.362 4.872l8.211.972.561-6.54-13.134-.86zm14.73-.5l13.037.854 1.2-7.57-13.656-.081-.583 6.8zm29.276-6.627l-13.546-.081-1.215 7.659 12.877.843 1.884-8.421zM19.922 6.938l-.589 6.856 13.762.081 1.221-7.693-14.395.756zM3.895 8.747v4.956l13.959.083.581-6.769-13.566.712a1.024 1.024 0 00-.974 1.018zm31.927-2.643l-1.235 7.781 13.641.081 1.928-8.615-14.334.753zm1.292 26.293h.024l3.914.464 2.175.257a.771.771 0 00.846-.594l1.619-7.235-12.782-.836-1.16 7.308 5.363.635zm1.216 17.668a1.155 1.155 0 10-1.156 1.145 1.151 1.151 0 001.155-1.145zM7.71 51.21a1.145 1.145 0 10-1.155-1.145A1.152 1.152 0 007.71 51.21z" fill-rule="evenodd"></path>
  </symbol>
  <symbol xmlns="http://www.w3.org/2000/svg" viewBox="0 0 56 47.147" id="Контур 277">
    <path d="M16.6 39.749l-2.287-12.786a.802.802 0 00-1.58.282l2.287 12.786a.8.8 0 00.789.661.813.813 0 00.143-.013.8.8 0 00.648-.93zm15.846-9.125a.8.8 0 00-.8.8v8.464a.8.8 0 001.6 0v-8.464a.8.8 0 00-.802-.8zm.567-4.087a.8.8 0 10.235.567.811.811 0 00-.237-.567zm-9.456-.235a.8.8 0 00-.8.8v12.786a.8.8 0 101.6 0V27.104a.8.8 0 00-.802-.802zm19.063.013a.8.8 0 00-.931.648L39.4 39.749a.802.802 0 101.58.282l2.286-12.786a.8.8 0 00-.647-.93zM28.353 45.774a.8.8 0 10.235.567.808.808 0 00-.235-.567zm24.633-33.847H50.37a.8.8 0 100 1.6h2.616a1.41 1.41 0 011.414 1.417v3.538a1.41 1.41 0 01-1.409 1.409H3.014A1.41 1.41 0 011.6 18.482v-3.538a1.41 1.41 0 011.409-1.409h2.252a.8.8 0 100-1.6H3.014A3.017 3.017 0 000 14.944v3.538a3.019 3.019 0 002.372 2.944l.2.042 4 20.707a6.144 6.144 0 006.023 4.972H22.8a.8.8 0 000-1.6H12.589a4.537 4.537 0 01-4.448-3.673L4.207 21.497h47.586l-3.934 20.377a4.537 4.537 0 01-4.448 3.671H32.445a.8.8 0 100 1.6h10.966a6.144 6.144 0 006.024-4.971l4-20.707.2-.042A3.019 3.019 0 0056 18.482v-3.538a3.017 3.017 0 00-3.014-3.014zm-6.913.178L34.891.926a3.167 3.167 0 00-4.479 4.479l6.526 6.526H19.063l6.526-6.526A3.167 3.167 0 1021.11.926L9.927 12.109a3.167 3.167 0 004.479 4.479l3.052-3.053h20.785a.825.825 0 00.118-.01l.15-.022 3.084 3.084a3.167 3.167 0 004.479-4.479zm-32.8 3.344a1.562 1.562 0 01-2.21-2.209L22.246 2.057a1.563 1.563 0 112.21 2.21L13.271 15.453zm31.668 0a1.562 1.562 0 01-2.21 0L31.546 4.274a1.563 1.563 0 012.21-2.21l11.182 11.18a1.564 1.564 0 01.001 2.209z" fill-rule="evenodd"></path>
  </symbol>
  <symbol xmlns="http://www.w3.org/2000/svg" viewBox="0 0 56 56" id="Контур 278">
    <path d="M22.911 32.68a.7.7 0 00-1 0 3.379 3.379 0 01-4.774 0 .707.707 0 10-1 1 4.789 4.789 0 006.765 0 .7.7 0 000-1zM55.999 9.602v36.8a4.368 4.368 0 01-4.355 4.355h-5.207l1.189 1.189a.707.707 0 01-1 1l-5.8-5.8-3.088 3.084 4.561 4.569a.707.707 0 01-1 1l-4.955-4.969-6.123-2.537a1.724 1.724 0 01-1.029-1.889v-.026a9.933 9.933 0 017.944-7.942 1.714 1.714 0 011.906 1.072l2.388 6.244 3.5 3.5h6.707a2.864 2.864 0 002.862-2.853V9.602a2.864 2.864 0 00-2.855-2.855H38.105a10.9 10.9 0 01.694 2.483l.026.169.139.1a18.891 18.891 0 017.954 15.4v2.109l.365.037a4.4 4.4 0 013.95 4.364l.005 2.811a4.4 4.4 0 01-4.4 4.4h-.825l-.085.293a24.622 24.622 0 01-1.945 4.775.704.704 0 11-1.24-.666 23.344 23.344 0 002.764-11.005v-1.719h-.533a19.409 19.409 0 01-15.4-7.6l-.228-.3-.315.2a54.9 54.9 0 01-17.711 7.49l-.8.18v1.752a23.25 23.25 0 0017.379 22.524l.1.027.1-.027a23.322 23.322 0 005.148-2.02.704.704 0 11.667 1.24 25.094 25.094 0 01-5.731 2.212h-.019a.683.683 0 01-.168.02.7.7 0 01-.17-.021 24.713 24.713 0 01-10.123-5.225H4.355a4.368 4.368 0 01-4.356-4.351V9.602a4.368 4.368 0 014.356-4.356h14.324a10.928 10.928 0 0118.669 0h14.3a4.368 4.368 0 014.351 4.356zM17.922 6.746H4.355a2.864 2.864 0 00-2.856 2.856v36.8a2.864 2.864 0 002.855 2.855h11.754a24.6 24.6 0 01-6.021-10.347l-.088-.293H9.16a4.4 4.4 0 01-4.395-4.4l.005-2.811a4.4 4.4 0 013.975-4.366l.367-.035v-2.111a18.891 18.891 0 017.954-15.4l.139-.1.026-.169a10.9 10.9 0 01.69-2.479zm21.93 25.934a.7.7 0 00-1 0 3.379 3.379 0 01-4.774 0 .707.707 0 00-1 1 4.789 4.789 0 006.765 0 .7.7 0 000-1zM9.16 37.21a2.987 2.987 0 01-2.987-2.993l.005-2.81a2.993 2.993 0 012.457-2.934l.478-.086v3.633a24.865 24.865 0 00.448 4.71l.093.483H9.16zm18.854-35.8a9.492 9.492 0 018.831 5.981l.387.975-.943-.461a18.877 18.877 0 00-16.551 0l-.943.461.387-.975a9.491 9.491 0 018.832-5.983zm17.493 23.484v4h-.533a18 18 0 01-14.207-6.939l-.261-.335.346-.246q1.147-.814 2.247-1.682a.702.702 0 10-.873-1.1 53.427 53.427 0 01-21.21 10.132l-.5.112v-3.942a17.494 17.494 0 1134.987 0zm3.447 11.436a2.97 2.97 0 01-2.1.876h-.5l.095-.486a24.679 24.679 0 00.458-4.712v-3.622l.482.093a2.993 2.993 0 012.425 2.928l.005 2.81a2.97 2.97 0 01-.873 2.116zm-12.779-20.2a.707.707 0 00-.995-.055l-.015.014a.704.704 0 00.94 1.048l.015-.014a.7.7 0 00.055-.993zm.4 33.275L30.528 46.9l.062-.324a8.515 8.515 0 016.714-6.735l.334-.065 2.37 6.2-3.433 3.433zm13.9 5.4a.7.7 0 10.206.5.712.712 0 00-.206-.5z" fill-rule="evenodd"></path>
  </symbol>
  <symbol xmlns="http://www.w3.org/2000/svg" viewBox="0 0 48.016 56" id="Контур 279">
    <path d="M39.539 44.665a.82.82 0 00-.82.82v1.819H9.297v-4.047h4.763a2.237 2.237 0 002.234-2.234V20.445a2.237 2.237 0 00-2.234-2.235H9.294v-7.82a.82.82 0 10-1.641 0v7.82H2.231a2.237 2.237 0 00-2.234 2.234v20.579a2.237 2.237 0 002.234 2.234H7.66v8.641a4.106 4.106 0 004.1 4.1h24.5a4.106 4.106 0 004.1-4.1v-6.413a.82.82 0 00-.82-.82zm-37.9-3.642V20.445a.594.594 0 01.594-.594H14.06a.594.594 0 01.594.594v20.578a.594.594 0 01-.594.594H2.234a.594.594 0 01-.593-.594zM36.26 54.359h-24.5a2.464 2.464 0 01-2.461-2.461v-2.953h29.422v2.953a2.464 2.464 0 01-2.461 2.461zm-7.175-3.609h-10.15a.82.82 0 000 1.641h10.15a.82.82 0 000-1.641zM10.174 39.02a.82.82 0 00-.82-.82H6.948a.82.82 0 100 1.641h2.406a.82.82 0 00.82-.82zm37.023-20.673a.82.82 0 00.82-.82v-4.4a.82.82 0 00-.82-.82h-3.172A6.317 6.317 0 0040.36 7.41V4.101a4.106 4.106 0 00-4.1-4.1h-24.5a4.106 4.106 0 00-4.1 4.1v2.884a.82.82 0 101.641 0V4.101A2.464 2.464 0 0111.76 1.64h3.1v2.461a1.916 1.916 0 001.914 1.914h14.437a1.916 1.916 0 001.914-1.914V1.64h3.135a2.464 2.464 0 012.461 2.461v2.818a6.532 6.532 0 00-1.039-.083 6.372 6.372 0 00-6.344 5.469H28.16a.82.82 0 00-.82.82V35a.82.82 0 00.82.82h10.555v6.09a.82.82 0 001.641 0v-6.09h6.836a.82.82 0 00.82-.82V21.026a.82.82 0 00-1.641 0v8.778H28.985V13.945h17.391v3.581a.82.82 0 00.82.82zM31.484 4.101a.274.274 0 01-.273.273H16.773a.274.274 0 01-.273-.273V1.64h14.984zm14.891 27.344v2.734H28.984v-2.734zM42.36 12.304h-2V9.285a4.651 4.651 0 012 3.019zm-4.68-3.828a4.864 4.864 0 011.039.112v3.716h-5.723a4.736 4.736 0 014.684-3.828zm-.556 10.362a1.328 1.328 0 00-1.336-.019 1.342 1.342 0 00-.679 1.167v3.775a1.341 1.341 0 00.679 1.167 1.327 1.327 0 001.336-.018l3.135-1.887a1.342 1.342 0 000-2.3l-3.135-1.888zm-.374 4.382v-2.691l2.235 1.346-2.235 1.346z"></path>
  </symbol>
  <symbol xmlns="http://www.w3.org/2000/svg" viewBox="0 0 108.859 29.148" id="Контур 286">
    <path d="M9.66 15.763a22.472 22.472 0 011.613-4.433 18.543 18.543 0 012.294-3.719c1.618-2.057 4.473-4.369 7.126-4.869v13.021H9.66zm27.87-9.781l.027 22.926a59.725 59.725 0 005.986-.028l.029-24.477 4.76-.608c1.695-.165 3.392-.234 5.08-.4a9.3 9.3 0 00-.143-2.8c-.168-.149.092-.033-.262-.117a3.369 3.369 0 00-.367-.045 18.861 18.861 0 01-.772-.061c-.556-.043-1.061-.081-1.616-.118C43.875-.17 34.577.072 28.885 2.202v8.637l1.834-1.455a24.07 24.07 0 016.814-3.4zm22.155 10.044a12.6 12.6 0 01-1.223-3.054 8.982 8.982 0 01.07-3.845 8.746 8.746 0 013.469-5.119 8.95 8.95 0 016.893-1.376c3.291.725 4.064 2.406 5.132 3.33a10.2 10.2 0 001.606-1.508 14.435 14.435 0 00-3.882-2.866 14.637 14.637 0 00-15.619 1.51 14.786 14.786 0 00-5.306 14.459 14.168 14.168 0 00.783 2.649l1.1 2.255c.571-.348 2.765-2.534 3.544-3.2.341-.292.535-.545.869-.846l2.564-2.389zm11.492 5.924a8.672 8.672 0 01-14.761 1.185c-.272.148-.183.173-.5.3-.257.537-.8.745-1.1 1.182a7.919 7.919 0 001.803 1.655 14.345 14.345 0 007.3 2.814 14.6 14.6 0 0010.427-3.09 5.95 5.95 0 00.914-.8 16.526 16.526 0 001.64-1.8 14.708 14.708 0 002.652-5.75 15.2 15.2 0 00.034-6.215 16.116 16.116 0 00-1.772-4.534c-.113-.158-.054-.089-.163-.184-1.18.959-2.285 2.159-3.466 3.172l-3.43 3.277a12.756 12.756 0 01.909 1.884 8.758 8.758 0 01-.489 6.9zM88.159 2.73c3.414.822 6.566 3.725 8.224 6.407 2.765 4.471 3.847 9.887 4.216 15.2.1 1.406.01 3.245.17 4.559h8.016c.375-3.256-.68-8.99-1.665-11.867l-.943-2.494c-.34-.8-.7-1.48-1.1-2.244C101.369 5.088 93.338.333 83.193.246a2.832 2.832 0 00-1 .06l.012 28.59h5.957V2.73zM8.096 28.872c.137-1.73.076-3.551.217-5.306.046-.573.345-4.667.778-4.8h11.6l.012 10.119h5.957V.246c-8.919-.014-16.345 2.7-21.475 9.767-3.468 4.77-5.577 13.08-5.124 18.881l8.035-.022z" fill-rule="evenodd"></path>
  </symbol>
  <symbol xmlns="http://www.w3.org/2000/svg" viewBox="0 0 187.123 52.882" id="Контур 288">
    <path d="M36.28 23.583h3.842V37.06l8.258-13.477h4.1v20.244h-3.846v-13.26l-8.254 13.26h-4.1zm20.4 20.244V23.583h4.13v7.973h8.026v-7.973h4.126v20.244h-4.127v-8.85H60.81v8.85zm20.612-20.244h4.127v8.624a2.765 2.765 0 001.861-.707 14.215 14.215 0 001.5-3.152q1.274-3.287 2.566-4.09a8.064 8.064 0 014.122-.8q.142 0 .6-.014v3.025l-.583-.014a4.132 4.132 0 00-1.85.311 2.367 2.367 0 00-.944.947 19.593 19.593 0 00-1.067 2.615 9.189 9.189 0 01-.816 1.757 4.129 4.129 0 01-1.546 1.329 4.22 4.22 0 012.267 1.56 21.137 21.137 0 011.964 3.313l2.775 5.542h-4.844l-2.444-5.213c-.038-.076-.119-.217-.237-.429a22.883 22.883 0 01-.512-.952 6.116 6.116 0 00-1.281-1.871 2.624 2.624 0 00-1.532-.386v8.85h-4.126V23.584zm16.46 10.245a12.852 12.852 0 01.935-5.2 9.468 9.468 0 011.9-2.78 8.013 8.013 0 012.633-1.828 11.3 11.3 0 014.4-.8 9.617 9.617 0 017.207 2.78q2.7 2.785 2.7 7.738a10.591 10.591 0 01-2.685 7.686 9.518 9.518 0 01-7.177 2.776 9.619 9.619 0 01-7.233-2.761 10.445 10.445 0 01-2.685-7.606zm4.24-.137a7.572 7.572 0 001.6 5.221 5.537 5.537 0 008.116.014 7.722 7.722 0 001.579-5.292 7.56 7.56 0 00-1.541-5.2 5.731 5.731 0 00-8.2.019 7.635 7.635 0 00-1.561 5.235zm23.332 10.136V27h-6.033v-3.417h16.165V27h-6v16.827zm12.8 0V23.583h15.086V27h-10.957v4.5h10.189v3.421h-10.189v5.485h11.356v3.421h-15.483zm19.039-20.244h4.127v8.624a2.765 2.765 0 001.859-.707 14.215 14.215 0 001.5-3.152q1.274-3.287 2.566-4.09a8.064 8.064 0 014.122-.8q.142 0 .6-.014v3.025l-.583-.014a4.132 4.132 0 00-1.85.311 2.367 2.367 0 00-.944.947 19.6 19.6 0 00-1.067 2.615 9.189 9.189 0 01-.816 1.757 4.129 4.129 0 01-1.546 1.329 4.22 4.22 0 012.267 1.56 21.136 21.136 0 011.964 3.313l2.775 5.542h-4.838l-2.443-5.212c-.038-.076-.119-.217-.237-.429a22.883 22.883 0 01-.512-.952 6.117 6.117 0 00-1.281-1.871 2.624 2.624 0 00-1.532-.386v8.85h-4.127V23.584zm29.972 12.78l3.985 1.216a8.983 8.983 0 01-3.055 4.967 8.7 8.7 0 01-5.412 1.621 8.806 8.806 0 01-6.673-2.757 10.516 10.516 0 01-2.614-7.54q0-5.054 2.628-7.855a9.035 9.035 0 016.911-2.8 8.5 8.5 0 016.076 2.2 7.971 7.971 0 012.087 3.737l-4.07.961a4.3 4.3 0 00-1.509-2.483 4.356 4.356 0 00-2.789-.91 4.647 4.647 0 00-3.681 1.617q-1.416 1.611-1.413 5.23 0 3.831 1.39 5.462a4.532 4.532 0 003.619 1.63 4.136 4.136 0 002.827-1.037 6.005 6.005 0 001.7-3.261zM23.013 13.311h12.6L12.595 52.882h-1.58V13.53h1.58v17.694L23.013 13.31zM10.428 52.882H8.261V13.53h1.58v22.43l.587-1.009zm-2.753 0H5.508V13.53h1.58v27.165l.587-1.009v13.2zm-2.754 0H2.754V13.53h1.58v31.9l.587-1.009zm-2.753 0H0V13.53h1.58v36.635l.587-1.009zM6.298 0A6.257 6.257 0 110 6.256 6.277 6.277 0 016.298 0z"></path>
  </symbol>
</svg>