<svg xmlns="http://www.w3.org/2000/svg" width="40" height="32" viewBox="0 0 40 32">
  <g id="study" transform="translate(0 -50.669)">
    <path id="Контур_25" data-name="Контур 25" d="M295.631,103.875a25.177,25.177,0,0,1-5.24-1.049,9.51,9.51,0,0,0-6.651.318.585.585,0,1,0,.463,1.074,8.366,8.366,0,0,1,5.85-.273,26.333,26.333,0,0,0,5.488,1.1l.045,0a.584.584,0,0,0,.044-1.167Z" transform="translate(-261.246 -47.677)" fill="#007aff"/>
    <path id="Контур_26" data-name="Контур 26" d="M295.631,135.75a25.171,25.171,0,0,1-5.239-1.049,9.51,9.51,0,0,0-6.651.318.585.585,0,1,0,.463,1.074,8.366,8.366,0,0,1,5.85-.273,26.331,26.331,0,0,0,5.488,1.1l.045,0a.584.584,0,0,0,.044-1.167Z" transform="translate(-261.246 -77.069)" fill="#007aff"/>
    <path id="Контур_27" data-name="Контур 27" d="M295.631,295.126a25.171,25.171,0,0,1-5.24-1.049,9.511,9.511,0,0,0-6.651.318.585.585,0,1,0,.463,1.074,8.368,8.368,0,0,1,5.85-.273,26.334,26.334,0,0,0,5.488,1.1l.045,0a.584.584,0,0,0,.044-1.167Z" transform="translate(-261.246 -224.026)" fill="#007aff"/>
    <path id="Контур_28" data-name="Контур 28" d="M295.631,327a25.176,25.176,0,0,1-5.24-1.049,9.511,9.511,0,0,0-6.651.318.585.585,0,1,0,.463,1.074,8.366,8.366,0,0,1,5.85-.273,26.335,26.335,0,0,0,5.488,1.1l.045,0a.584.584,0,0,0,.044-1.167Z" transform="translate(-261.246 -253.418)" fill="#007aff"/>
    <path id="Контур_29" data-name="Контур 29" d="M295.631,167.625a25.17,25.17,0,0,1-5.24-1.049,9.511,9.511,0,0,0-6.651.318.585.585,0,1,0,.463,1.074,8.367,8.367,0,0,1,5.85-.273,26.332,26.332,0,0,0,5.488,1.1l.045,0a.584.584,0,0,0,.044-1.167Z" transform="translate(-261.246 -106.46)" fill="#007aff"/>
    <path id="Контур_30" data-name="Контур 30" d="M295.631,231.376a25.164,25.164,0,0,1-5.239-1.049,9.51,9.51,0,0,0-6.651.318.585.585,0,1,0,.463,1.074,8.367,8.367,0,0,1,5.85-.273,26.337,26.337,0,0,0,5.488,1.1l.045,0a.584.584,0,0,0,.044-1.167Z" transform="translate(-261.246 -165.243)" fill="#007aff"/>
    <path id="Контур_31" data-name="Контур 31" d="M295.631,199.5a25.176,25.176,0,0,1-5.24-1.049,9.511,9.511,0,0,0-6.651.318.585.585,0,1,0,.463,1.074,8.367,8.367,0,0,1,5.85-.273,26.335,26.335,0,0,0,5.488,1.1l.045,0a.584.584,0,0,0,.044-1.167Z" transform="translate(-261.246 -135.852)" fill="#007aff"/>
    <path id="Контур_32" data-name="Контур 32" d="M295.631,263.251a25.162,25.162,0,0,1-5.239-1.049,9.51,9.51,0,0,0-6.651.318.585.585,0,1,0,.463,1.074,8.367,8.367,0,0,1,5.85-.273,26.327,26.327,0,0,0,5.488,1.1l.045,0a.584.584,0,0,0,.044-1.167Z" transform="translate(-261.246 -194.635)" fill="#007aff"/>
    <path id="Контур_33" data-name="Контур 33" d="M65.534,105.042l.045,0a26.328,26.328,0,0,0,5.488-1.1,8.366,8.366,0,0,1,5.85.273.585.585,0,1,0,.463-1.074,9.51,9.51,0,0,0-6.651-.318,25.178,25.178,0,0,1-5.239,1.049.584.584,0,0,0,.044,1.167Z" transform="translate(-59.874 -47.677)" fill="#007aff"/>
    <path id="Контур_34" data-name="Контур 34" d="M65.534,136.917l.045,0a26.324,26.324,0,0,0,5.488-1.1,8.366,8.366,0,0,1,5.85.273.585.585,0,1,0,.463-1.074,9.511,9.511,0,0,0-6.651-.318,25.172,25.172,0,0,1-5.239,1.049.584.584,0,0,0,.044,1.167Z" transform="translate(-59.874 -77.069)" fill="#007aff"/>
    <path id="Контур_35" data-name="Контур 35" d="M65.534,296.294l.045,0a26.329,26.329,0,0,0,5.488-1.1,8.366,8.366,0,0,1,5.85.273.585.585,0,1,0,.463-1.074,9.511,9.511,0,0,0-6.651-.318,25.171,25.171,0,0,1-5.239,1.049.584.584,0,0,0,.044,1.167Z" transform="translate(-59.874 -224.026)" fill="#007aff"/>
    <path id="Контур_36" data-name="Контур 36" d="M65.534,328.169l.045,0a26.329,26.329,0,0,0,5.488-1.1,8.366,8.366,0,0,1,5.85.273.585.585,0,1,0,.463-1.074,9.51,9.51,0,0,0-6.651-.318A25.176,25.176,0,0,1,65.49,327a.584.584,0,0,0,.044,1.167Z" transform="translate(-59.874 -253.418)" fill="#007aff"/>
    <path id="Контур_37" data-name="Контур 37" d="M65.534,168.793l.045,0a26.328,26.328,0,0,0,5.488-1.1,8.366,8.366,0,0,1,5.85.273.585.585,0,1,0,.463-1.074,9.511,9.511,0,0,0-6.651-.318,25.172,25.172,0,0,1-5.239,1.049.584.584,0,0,0,.044,1.167Z" transform="translate(-59.874 -106.461)" fill="#007aff"/>
    <path id="Контур_38" data-name="Контур 38" d="M65.534,232.543l.045,0a26.329,26.329,0,0,0,5.488-1.1,8.366,8.366,0,0,1,5.85.273.585.585,0,1,0,.463-1.074,9.511,9.511,0,0,0-6.651-.318,25.165,25.165,0,0,1-5.239,1.049.584.584,0,0,0,.044,1.167Z" transform="translate(-59.874 -165.243)" fill="#007aff"/>
    <path id="Контур_39" data-name="Контур 39" d="M65.534,200.667l.045,0a26.33,26.33,0,0,0,5.488-1.1,8.366,8.366,0,0,1,5.85.273.585.585,0,1,0,.463-1.074,9.51,9.51,0,0,0-6.651-.318A25.177,25.177,0,0,1,65.49,199.5a.584.584,0,0,0,.044,1.167Z" transform="translate(-59.874 -135.851)" fill="#007aff"/>
    <path id="Контур_40" data-name="Контур 40" d="M65.534,264.418l.045,0a26.323,26.323,0,0,0,5.488-1.1,8.366,8.366,0,0,1,5.85.273.585.585,0,1,0,.463-1.074,9.51,9.51,0,0,0-6.651-.318,25.162,25.162,0,0,1-5.239,1.049.584.584,0,0,0,.044,1.167Z" transform="translate(-59.874 -194.635)" fill="#007aff"/>
    <path id="Контур_41" data-name="Контур 41" d="M38.569,53.992h-.917v-.533a1.285,1.285,0,0,0-1.388-1.279A18.09,18.09,0,0,1,30.54,51.5a.584.584,0,1,0-.288,1.133,19.119,19.119,0,0,0,6.105.709.113.113,0,0,1,.122.114V77.043A20.812,20.812,0,0,1,29.145,76a9.728,9.728,0,0,0-8.559,1.39V54.031a8.4,8.4,0,0,1,6.983-2.081.584.584,0,1,0,.186-1.154A9.5,9.5,0,0,0,20,52.983a9.581,9.581,0,0,0-9.144-1.866A19.955,19.955,0,0,1,3.736,52.18a1.285,1.285,0,0,0-1.388,1.279v.533H1.431A1.431,1.431,0,0,0,0,55.419v23.7a1.431,1.431,0,0,0,1.431,1.427H16.613a.578.578,0,0,1,.526.319,3.172,3.172,0,0,0,5.723,0,.578.578,0,0,1,.526-.319H38.569A1.431,1.431,0,0,0,40,79.119V68.036a.586.586,0,0,0-1.172,0V79.119a.259.259,0,0,1-.259.258H23.387a1.755,1.755,0,0,0-1.585.989,2,2,0,0,1-3.6,0,1.755,1.755,0,0,0-1.585-.989H1.431a.259.259,0,0,1-.259-.258v-23.7a.259.259,0,0,1,.259-.258h.917V77.541a.585.585,0,0,0,.436.565c.111.029,2.8.7,8.408-.986a8.426,8.426,0,0,1,7.417,1.147,2.425,2.425,0,0,0,2.781,0,8.422,8.422,0,0,1,7.417-1.147c5.613,1.687,8.3,1.015,8.408.986a.585.585,0,0,0,.436-.565V55.161h.917a.259.259,0,0,1,.259.258v9.889a.586.586,0,0,0,1.172,0V55.419A1.431,1.431,0,0,0,38.569,53.992ZM3.52,53.459a.113.113,0,0,1,.122-.114,21.094,21.094,0,0,0,7.551-1.109,8.37,8.37,0,0,1,8.221,1.8v23.36A9.685,9.685,0,0,0,10.855,76c-.316.095-.663.194-.985.279l-.012,0a19.21,19.21,0,0,1-6.338.759c0-1.624,0-23.149,0-23.584Z" fill="#007aff"/>
  </g>
</svg>
