<svg xmlns="http://www.w3.org/2000/svg" width="179.919" height="31.488" viewBox="0 0 179.919 31.488">
  <g id="surface1" transform="translate(93.363 0.055)">
    <path id="Контур_280" data-name="Контур 280" d="M-80.61-.055A15.317,15.317,0,0,0-93.318,6.6l5.273,3.958a8.806,8.806,0,0,1,7.481-4.139,8.969,8.969,0,0,1,8.51,6.1H-84.125l1.577,6.343h10.511a9.019,9.019,0,0,1-8.527,6.094,8.679,8.679,0,0,1-7.481-4.093l-5.318,3.913A15.367,15.367,0,0,0-80.61,31.433c9.465,0,15.638-7.152,15.638-15.789A15.621,15.621,0,0,0-80.61-.055Zm0,0" fill="#ed6c01" fill-rule="evenodd"/>
    <path id="Контур_281" data-name="Контур 281" d="M63.144,26.385H54.356V20.357h8.788a2.961,2.961,0,0,1,3.019,3.014A3.014,3.014,0,0,1,63.144,26.385ZM54.356,8.3h8.607a2.991,2.991,0,0,1,0,5.983H54.356Zm15.412,8.817a8.658,8.658,0,0,0,2.659-6.208c0-5.264-4.461-8.817-9.419-8.817H46.289l1.577,6.343V32.592H62.918c5.318,0,9.6-3.733,9.643-9.086A7.939,7.939,0,0,0,69.769,17.119Zm0,0" transform="translate(-107.522 -1.654)" fill="#ed6c01" fill-rule="evenodd"/>
    <path id="Контур_282" data-name="Контур 282" d="M312.581,8.437H319.7V32.592h6.535V8.437H333.4l1.577-6.343H311Zm0,0" transform="translate(-311.332 -1.654)" fill="#ed6c01" fill-rule="evenodd"/>
    <path id="Контур_283" data-name="Контур 283" d="M590.012,17.949h-6.805V8.473h6.805a4.612,4.612,0,0,1,4.732,4.716C594.563,16.019,592.761,17.949,590.012,17.949Zm-.136-15.855H575.23l1.442,5.794v24.7h6.535v-8.31h6.67c6.625,0,11.446-4.357,11.446-10.959C601.322,6.586,596.411,2.184,589.876,2.094Zm0,0" transform="translate(-514.766 -1.654)" fill="#ed6c01" fill-rule="evenodd"/>
    <path id="Контур_284" data-name="Контур 284" d="M197.845,35.234c-9.013.181-15.818,6.757-15.818,15.721a15.72,15.72,0,0,0,1.687,7.152H191.8A9.442,9.442,0,0,1,188.562,51a9.283,9.283,0,0,1,18.566,0,9.29,9.29,0,0,1-3.323,7.107h8.119a15.766,15.766,0,0,0-14.079-22.874Zm0,0" transform="translate(-212.03 -27.17)" fill="#ed6c01" fill-rule="evenodd"/>
    <path id="Контур_285" data-name="Контур 285" d="M448.064,2.094a9.266,9.266,0,0,1,4,7.647,9.373,9.373,0,0,1-9.329,9.324,9.265,9.265,0,0,1-9.238-9.324,9.177,9.177,0,0,1,3.965-7.647h-8.635a15.91,15.91,0,0,0-1.865,7.6,15.8,15.8,0,1,0,29.634-7.6Zm0,0" transform="translate(-400.607 -1.654)" fill="#ed6c01" fill-rule="evenodd"/>
  </g>
</svg>
