<svg xmlns="http://www.w3.org/2000/svg" width="80" height="80" viewBox="0 0 80 80">
  <g id="teamwork" transform="translate(0 0.119)">
    <g id="Сгруппировать_81" data-name="Сгруппировать 81" transform="translate(30.043 -0.119)">
      <g id="Сгруппировать_80" data-name="Сгруппировать 80" transform="translate(0)">
        <ellipse id="Эллипс_1" data-name="Эллипс 1" cx="9.909" cy="9.897" rx="9.909" ry="9.897"/>
      </g>
    </g>
    <g id="Сгруппировать_83" data-name="Сгруппировать 83" transform="translate(25 24.949)">
      <g id="Сгруппировать_82" data-name="Сгруппировать 82">
        <path id="Контур_71" data-name="Контур 71" d="M189.98,182.158,187.71,164.5a4.978,4.978,0,0,0-4.97-4.494H180a2.519,2.519,0,0,0-1.77.729L175,163.96l-3.23-3.226a2.519,2.519,0,0,0-1.77-.729h-2.735a4.967,4.967,0,0,0-4.97,4.43l-2.275,17.728a2.5,2.5,0,0,0,2.48,2.812h2.7l2.09,25.469a4.98,4.98,0,0,0,4.975,4.494h5.475a5,5,0,0,0,4.98-4.539l2.085-25.424H187.5a2.5,2.5,0,0,0,1.875-.849A2.457,2.457,0,0,0,189.98,182.158Z" transform="translate(-160 -160.005)"/>
      </g>
    </g>
    <g id="Сгруппировать_85" data-name="Сгруппировать 85" transform="translate(54.815 -0.119)">
      <g id="Сгруппировать_84" data-name="Сгруппировать 84" transform="translate(0)">
        <ellipse id="Эллипс_2" data-name="Эллипс 2" cx="9.909" cy="9.897" rx="9.909" ry="9.897"/>
      </g>
    </g>
    <g id="Сгруппировать_87" data-name="Сгруппировать 87" transform="translate(5 -0.021)">
      <g id="Сгруппировать_86" data-name="Сгруппировать 86">
        <path id="Контур_72" data-name="Контур 72" d="M42,.005A9.988,9.988,0,1,0,52,9.993,10,10,0,0,0,42,.005Z" transform="translate(-31.999 -0.005)"/>
      </g>
    </g>
    <g id="Сгруппировать_89" data-name="Сгруппировать 89" transform="translate(55.634 24.949)">
      <g id="Сгруппировать_88" data-name="Сгруппировать 88">
        <path id="Контур_73" data-name="Контур 73" d="M380.408,182.158l-2.27-17.653a4.975,4.975,0,0,0-4.97-4.5h-2.74a2.519,2.519,0,0,0-1.77.729l-3.23,3.226-3.23-3.226a2.517,2.517,0,0,0-1.765-.729h-2.74a4.77,4.77,0,0,0-.885.165,9.711,9.711,0,0,1,1.3,3.755l2.265,17.6a7.466,7.466,0,0,1-1.83,5.923,7.248,7.248,0,0,1-2.48,1.758l1.66,16.245a4.98,4.98,0,0,0,4.975,4.494h5.475a5,5,0,0,0,4.98-4.539l2.08-20.43h2.695a2.5,2.5,0,0,0,1.875-.849A2.458,2.458,0,0,0,380.408,182.158Z" transform="translate(-356.063 -160.005)"/>
      </g>
    </g>
    <g id="Сгруппировать_91" data-name="Сгруппировать 91" transform="translate(0 24.949)">
      <g id="Сгруппировать_90" data-name="Сгруппировать 90">
        <path id="Контур_74" data-name="Контур 74" d="M21.869,187.421a7.474,7.474,0,0,1-1.81-5.888L22.334,163.8a9.225,9.225,0,0,1,1.245-3.636,4.708,4.708,0,0,0-.84-.16H20a2.519,2.519,0,0,0-1.77.729L15,163.96l-3.23-3.226A2.517,2.517,0,0,0,10,160.005H7.264a4.967,4.967,0,0,0-4.97,4.43L.019,182.163a2.5,2.5,0,0,0,2.48,2.812H5.2l2.09,20.475a4.98,4.98,0,0,0,4.975,4.494h5.475a5,5,0,0,0,4.98-4.539l1.66-16.205A7.5,7.5,0,0,1,21.869,187.421Z" transform="translate(0.001 -160.005)"/>
      </g>
    </g>
  </g>
</svg>
