<svg width="60" height="60" viewBox="0 0 60 60" fill="none" xmlns="http://www.w3.org/2000/svg">
<path d="M48.2024 25.9624L47.2202 24.9802L49.462 22.7384C49.6296 22.5708 49.7237 22.3435 49.7237 22.1065C49.7237 21.8695 49.6296 21.6422 49.462 21.4747C49.2944 21.3071 49.0671 21.2129 48.8301 21.2129C48.5931 21.2129 48.3658 21.3071 48.1982 21.4747L45.9565 23.7164L35.5251 13.3066L44.6629 4.1871L55.0942 14.5969L50.7291 18.9538C50.5615 19.1214 50.4673 19.3487 50.4673 19.5857C50.4673 19.8227 50.5615 20.0499 50.7291 20.2175C50.8967 20.3851 51.1239 20.4793 51.3609 20.4793C51.5979 20.4793 51.8252 20.3851 51.9928 20.2175L56.9923 15.2279C57.0753 15.1452 57.1412 15.0468 57.1861 14.9385C57.2311 14.8302 57.2542 14.7141 57.2542 14.5969C57.2542 14.4797 57.2311 14.3636 57.1861 14.2553C57.1412 14.147 57.0753 14.0486 56.9923 13.9659L45.2931 2.29478C45.1252 2.12726 44.8976 2.03319 44.6604 2.03319C44.4232 2.03319 44.1957 2.12726 44.0277 2.29478L34.2581 12.0462L33.275 11.0632C33.1071 10.8957 32.8796 10.8016 32.6423 10.8016C32.4051 10.8016 32.1776 10.8957 32.0096 11.0632L24.0454 19.0109C23.8778 19.1785 23.7836 19.4058 23.7836 19.6428C23.7836 19.8798 23.8778 20.1071 24.0454 20.2747C24.2129 20.4423 24.4402 20.5364 24.6772 20.5364C24.9142 20.5364 25.1415 20.4423 25.3091 20.2747L28.066 17.5178L41.7296 31.1532L27.454 45.4073C27.2864 45.5748 27.1923 45.8021 27.1923 46.0391C27.1923 46.2761 27.2864 46.5034 27.454 46.671C27.6216 46.8386 27.8489 46.9327 28.0859 46.9327C28.3229 46.9327 28.5502 46.8386 28.7178 46.671L48.1991 27.2294C48.2831 27.1468 48.3498 27.0483 48.3955 26.9397C48.4411 26.831 48.4648 26.7144 48.4651 26.5966C48.4654 26.4788 48.4424 26.362 48.3973 26.2532C48.3522 26.1443 48.2859 26.0455 48.2024 25.9624ZM32.6423 12.958L46.3059 26.5934L43.0025 29.8969L29.3389 16.2615L32.6423 12.958Z" fill="#0DB14B"/>
<path d="M26.1877 47.934C26.0197 47.7665 25.7922 47.6725 25.555 47.6725C25.3178 47.6725 25.0902 47.7665 24.9223 47.934L23.0093 49.8471C22.1139 50.7442 21.0507 51.4563 19.8802 51.9425C18.7097 52.4288 17.4549 52.6797 16.1874 52.681C14.9199 52.6823 13.6646 52.434 12.4931 51.9501C11.3216 51.4663 10.2569 50.7565 9.35975 49.8611C8.46258 48.9658 7.75055 47.9026 7.2643 46.7321C6.77805 45.5616 6.52711 44.3068 6.5258 43.0393C6.52316 40.4795 7.5375 38.0235 9.34567 36.2116L22.7807 22.7998C22.8685 22.7179 22.9389 22.6192 22.9877 22.5095C23.0365 22.3997 23.0627 22.2813 23.0647 22.1613C23.0667 22.0412 23.0445 21.922 22.9994 21.8107C22.9543 21.6994 22.8873 21.5984 22.8023 21.5136C22.7173 21.4288 22.616 21.362 22.5046 21.3172C22.3932 21.2724 22.2739 21.2505 22.1539 21.2528C22.0338 21.2552 21.9155 21.2817 21.8059 21.3308C21.6963 21.3798 21.5978 21.4505 21.5161 21.5385L8.08026 34.9462C5.93725 37.0936 4.73507 40.0044 4.73817 43.0382C4.74128 46.0719 5.94942 48.9802 8.09683 51.1232C10.2442 53.2663 13.155 54.4684 16.1888 54.4653C19.2225 54.4622 22.1308 53.2541 24.2738 51.1067L26.1869 49.1937C26.3539 49.0267 26.4477 48.8002 26.4479 48.564C26.4481 48.3279 26.3545 48.1013 26.1877 47.934Z" fill="#0DB14B"/>
<path d="M43.043 9.72087C42.8754 9.55328 42.6481 9.45913 42.4111 9.45913C42.1741 9.45913 41.9468 9.55328 41.7793 9.72087C41.6117 9.88845 41.5175 10.1157 41.5175 10.3527C41.5175 10.5897 41.6117 10.817 41.7793 10.9846L43.3196 12.525C43.4872 12.6926 43.7145 12.7867 43.9515 12.7867C44.1885 12.7867 44.4158 12.6926 44.5834 12.525C44.7509 12.3574 44.8451 12.1301 44.8451 11.8931C44.8451 11.6561 44.7509 11.4288 44.5834 11.2612L43.043 9.72087Z" fill="#0DB14B"/>
<path d="M48.0061 14.674C47.8386 14.5064 47.6113 14.4123 47.3743 14.4123C47.1373 14.4123 46.91 14.5064 46.7424 14.674C46.5748 14.8416 46.4807 15.0689 46.4807 15.3059C46.4807 15.5429 46.5748 15.7702 46.7424 15.9377L48.2827 17.4781C48.3657 17.5611 48.4642 17.6269 48.5727 17.6718C48.6811 17.7167 48.7973 17.7398 48.9146 17.7398C49.032 17.7398 49.1482 17.7167 49.2566 17.6718C49.365 17.6269 49.4635 17.5611 49.5465 17.4781C49.6295 17.3951 49.6953 17.2966 49.7402 17.1882C49.7851 17.0798 49.8082 16.9636 49.8082 16.8462C49.8082 16.7289 49.7851 16.6127 49.7402 16.5042C49.6953 16.3958 49.6295 16.2973 49.5465 16.2143L48.0061 14.674Z" fill="#0DB14B"/>
<path d="M20.5962 47.2234C21.4424 46.3756 22.0182 45.2961 22.251 44.1211C22.4839 42.9462 22.3632 41.7287 21.9043 40.6223C21.4454 39.5159 20.6689 38.5704 19.6728 37.9052C18.6767 37.24 17.5059 36.885 16.3081 36.885C15.1103 36.885 13.9395 37.24 12.9434 37.9052C11.9473 38.5704 11.1708 39.5159 10.7119 40.6223C10.253 41.7287 10.1324 42.9462 10.3652 44.1211C10.598 45.2961 11.1738 46.3756 12.02 47.2234C12.5821 47.7882 13.2504 48.2363 13.9863 48.5422C14.7221 48.848 15.5112 49.0054 16.3081 49.0054C17.105 49.0054 17.8941 48.848 18.63 48.5422C19.3658 48.2363 20.0341 47.7882 20.5962 47.2234ZM13.2854 39.9274C13.8823 39.3291 14.6434 38.9214 15.4722 38.7558C16.301 38.5902 17.1603 38.6743 17.9413 38.9973C18.7223 39.3203 19.39 39.8677 19.8597 40.5704C20.3295 41.273 20.5802 42.0991 20.5802 42.9443C20.5802 43.7895 20.3295 44.6157 19.8597 45.3183C19.39 46.0209 18.7223 46.5684 17.9413 46.8914C17.1603 47.2144 16.301 47.2984 15.4722 47.1328C14.6434 46.9673 13.8823 46.5595 13.2854 45.9613C12.4901 45.1586 12.0439 44.0743 12.0439 42.9443C12.0439 41.8143 12.4901 40.7301 13.2854 39.9274Z" fill="#0DB14B"/>
</svg>
