<svg xmlns="http://www.w3.org/2000/svg" width="56" height="56" viewBox="0 0 56 56">
  <path id="Контур_274" data-name="Контур 274" d="M55.2,22.846H45.828V20.2a.8.8,0,0,0-.8-.8H21.145a.8.8,0,0,0,0,1.6H44.223v8.779A21.368,21.368,0,0,1,33.679,48.178l-.071.042H12.22l-.071-.042A21.368,21.368,0,0,1,1.6,29.784V21.005H9.315a.8.8,0,1,0,0-1.6H.8a.8.8,0,0,0-.8.8v9.582a22.876,22.876,0,0,0,8.605,17.9l.674.54H.8a.8.8,0,0,0-.8.8,7,7,0,0,0,6.994,6.994H41.488a7,7,0,0,0,6.994-6.994.8.8,0,0,0-.8-.8H36.549l.674-.54a23.059,23.059,0,0,0,5.052-5.638l.089-.141h3.287A10.359,10.359,0,0,0,56,31.553v-7.9a.8.8,0,0,0-.8-.8ZM46.748,50.193a5.4,5.4,0,0,1-5.261,4.217H6.993a5.4,5.4,0,0,1-5.261-4.217l-.082-.369h45.18Zm-.92-20.409v-.911h4.144v2.68a4.325,4.325,0,0,1-4.32,4.32H45.01l.1-.379a22.984,22.984,0,0,0,.721-5.711Zm8.567,1.769A8.752,8.752,0,0,1,45.652,40.3H43.284l.214-.437a22.759,22.759,0,0,0,.932-2.182l.073-.2h1.15a5.932,5.932,0,0,0,5.925-5.925V28.071a.8.8,0,0,0-.8-.8H45.828V24.451h8.567v7.1ZM23.732,6.02,23.157,5.3a3.185,3.185,0,0,1,0-3.981.8.8,0,0,0-1.257-1A4.78,4.78,0,0,0,21.9,6.3l.575.722a4.07,4.07,0,0,1,0,5.087l-.59.743a.8.8,0,0,0,1.257,1l.59-.743a5.665,5.665,0,0,0-.006-7.084Zm6.128,2.486-.575-.722a3.185,3.185,0,0,1,0-3.981.8.8,0,1,0-1.257-1,4.78,4.78,0,0,0,.005,5.978l.575.722a4.07,4.07,0,0,1,0,5.087l-.589.743a.8.8,0,0,0,1.257,1l.589-.743a5.665,5.665,0,0,0-.006-7.084Zm-12.256,0-.575-.722a3.185,3.185,0,0,1,0-3.981.8.8,0,1,0-1.257-1,4.78,4.78,0,0,0,.005,5.978l.575.722a4.07,4.07,0,0,1,0,5.087l-.59.743a.8.8,0,0,0,1.257,1l.59-.743A5.665,5.665,0,0,0,17.6,8.506ZM16.1,19.635a.8.8,0,1,0,.235.567A.812.812,0,0,0,16.1,19.635Zm23.622,9.347a.8.8,0,0,0-.8.8,16.144,16.144,0,0,1-4.655,11.279.8.8,0,1,0,1.14,1.129,17.765,17.765,0,0,0,5.12-12.408.8.8,0,0,0-.8-.8ZM31.924,44a.8.8,0,0,0-1.092-.305l-.025.014a.8.8,0,0,0,.394,1.5.792.792,0,0,0,.392-.1l.025-.014A.8.8,0,0,0,31.924,44Z" transform="translate(0 -0.016)" fill-rule="evenodd"/>
</svg>
