<svg xmlns="http://www.w3.org/2000/svg" width="56" height="47.147" viewBox="0 0 56 47.147">
  <path id="Контур_277" data-name="Контур 277" d="M16.6,481.775l-2.287-12.786a.8.8,0,0,0-1.58.282l2.287,12.786a.8.8,0,0,0,.789.661.813.813,0,0,0,.143-.013A.8.8,0,0,0,16.6,481.775Zm15.846-9.125a.8.8,0,0,0-.8.8v8.464a.8.8,0,0,0,1.6,0v-8.464A.8.8,0,0,0,32.444,472.65Zm.567-4.087a.8.8,0,1,0,.235.567A.811.811,0,0,0,33.011,468.563Zm-9.456-.235a.8.8,0,0,0-.8.8v12.786a.8.8,0,1,0,1.6,0V469.13A.8.8,0,0,0,23.555,468.328Zm19.063.013a.8.8,0,0,0-.931.648L39.4,481.775a.8.8,0,1,0,1.58.282l2.286-12.786A.8.8,0,0,0,42.619,468.341ZM28.353,487.8a.8.8,0,1,0,.235.567.808.808,0,0,0-.235-.567Zm24.633-33.847H50.37a.8.8,0,1,0,0,1.6h2.616A1.41,1.41,0,0,1,54.4,456.97v3.538a1.41,1.41,0,0,1-1.409,1.409H3.014A1.41,1.41,0,0,1,1.6,460.508V456.97a1.41,1.41,0,0,1,1.409-1.409H5.261a.8.8,0,1,0,0-1.6H3.014A3.017,3.017,0,0,0,0,456.97v3.538a3.019,3.019,0,0,0,2.372,2.944l.2.042,4,20.707a6.144,6.144,0,0,0,6.023,4.972H22.8a.8.8,0,0,0,0-1.6H12.589A4.537,4.537,0,0,1,8.141,483.9L4.207,463.523H51.793L47.859,483.9a4.537,4.537,0,0,1-4.448,3.671H32.445a.8.8,0,1,0,0,1.6H43.411a6.144,6.144,0,0,0,6.024-4.971l4-20.707.2-.042A3.019,3.019,0,0,0,56,460.508V456.97a3.017,3.017,0,0,0-3.014-3.014Zm-6.913.178L34.891,442.952a3.167,3.167,0,0,0-4.479,4.479l6.526,6.526H19.063l6.526-6.526a3.167,3.167,0,1,0-4.479-4.479L9.927,454.135a3.167,3.167,0,0,0,4.479,4.479l3.052-3.053H38.243a.825.825,0,0,0,.118-.01l.15-.022,3.084,3.084a3.167,3.167,0,0,0,4.479-4.479Zm-32.8,3.344a1.562,1.562,0,0,1-2.21-2.209l11.183-11.183a1.562,1.562,0,1,1,2.21,2.21L13.271,457.479Zm31.668,0a1.562,1.562,0,0,1-2.21,0L31.546,446.3a1.562,1.562,0,0,1,2.21-2.21L44.938,455.27A1.564,1.564,0,0,1,44.939,457.479Z" transform="translate(0 -442.026)" fill-rule="evenodd"/>
</svg>
