<svg xmlns="http://www.w3.org/2000/svg" width="108.859" height="29.148" viewBox="0 0 108.859 29.148">
  <path id="Контур_286" data-name="Контур 286" d="M9.675,15.791a22.472,22.472,0,0,1,1.613-4.433,18.543,18.543,0,0,1,2.294-3.719C15.2,5.582,18.055,3.27,20.708,2.77V15.791H9.675ZM37.545,6.01l.027,22.926a59.725,59.725,0,0,0,5.986-.028l.029-24.477,4.76-.608c1.695-.165,3.392-.234,5.08-.4a9.3,9.3,0,0,0-.143-2.8c-.168-.149.092-.033-.262-.117a3.369,3.369,0,0,0-.367-.045C52.382.444,52.148.427,51.883.4,51.327.357,50.822.319,50.267.282,43.89-.142,34.592.1,28.9,2.23v8.637l1.834-1.455a24.07,24.07,0,0,1,6.814-3.4ZM59.7,16.054A12.6,12.6,0,0,1,58.477,13a8.982,8.982,0,0,1,.07-3.845,8.746,8.746,0,0,1,3.469-5.119A8.95,8.95,0,0,1,68.909,2.66c3.291.725,4.064,2.406,5.132,3.33a10.2,10.2,0,0,0,1.606-1.508,14.435,14.435,0,0,0-3.882-2.866A14.637,14.637,0,0,0,56.146,3.126,14.786,14.786,0,0,0,50.84,17.585a14.168,14.168,0,0,0,.783,2.649l1.1,2.255c.571-.348,2.765-2.534,3.544-3.2.341-.292.535-.545.869-.846L59.7,16.054Zm11.492,5.924a8.672,8.672,0,0,1-14.761,1.185c-.272.148-.183.173-.5.3-.257.537-.8.745-1.1,1.182A7.919,7.919,0,0,0,56.634,26.3a14.345,14.345,0,0,0,7.3,2.814,14.6,14.6,0,0,0,10.427-3.09,5.95,5.95,0,0,0,.914-.8,16.526,16.526,0,0,0,1.64-1.8,14.708,14.708,0,0,0,2.652-5.75,15.2,15.2,0,0,0,.034-6.215,16.116,16.116,0,0,0-1.772-4.534c-.113-.158-.054-.089-.163-.184C76.486,7.7,75.381,8.9,74.2,9.913L70.77,13.19a12.756,12.756,0,0,1,.909,1.884,8.758,8.758,0,0,1-.489,6.9ZM88.174,2.758c3.414.822,6.566,3.725,8.224,6.407,2.765,4.471,3.847,9.887,4.216,15.2.1,1.406.01,3.245.17,4.559H108.8c.375-3.256-.68-8.99-1.665-11.867l-.943-2.494c-.34-.8-.7-1.48-1.1-2.244C101.384,5.116,93.353.361,83.208.274a2.832,2.832,0,0,0-1,.06l.012,28.59h5.957V2.758ZM8.111,28.9c.137-1.73.076-3.551.217-5.306.046-.573.345-4.667.778-4.8h11.6l.012,10.119,5.957,0V.274C17.756.26,10.33,2.974,5.2,10.041,1.732,14.811-.377,23.121.076,28.922L8.111,28.9Z" transform="translate(-0.015 -0.028)" fill-rule="evenodd"/>
</svg>
