<svg xmlns="http://www.w3.org/2000/svg" width="56" height="56" viewBox="0 0 56 56">
  <path id="Контур_278" data-name="Контур 278" d="M22.912,32.65a.7.7,0,0,0-1,0,3.379,3.379,0,0,1-4.774,0,.7.7,0,1,0-1,1,4.789,4.789,0,0,0,6.765,0,.7.7,0,0,0,0-1ZM56,9.572v36.8a4.368,4.368,0,0,1-4.355,4.355H46.438l1.189,1.189a.7.7,0,0,1-1,1l-5.8-5.8L37.739,50.2,42.3,54.769a.7.7,0,0,1-1,1L36.345,50.8l-6.123-2.537a1.724,1.724,0,0,1-1.029-1.889l0-.026a9.933,9.933,0,0,1,7.944-7.942,1.714,1.714,0,0,1,1.906,1.072l2.388,6.244,3.5,3.5h6.707A2.864,2.864,0,0,0,54.5,46.369V9.572a2.864,2.864,0,0,0-2.855-2.855H38.106A10.9,10.9,0,0,1,38.8,9.2l.026.169.139.1a18.891,18.891,0,0,1,7.954,15.4v2.109l.365.037a4.4,4.4,0,0,1,3.95,4.364l.005,2.811a4.4,4.4,0,0,1-4.4,4.4h-.825l-.085.293a24.622,24.622,0,0,1-1.945,4.775.7.7,0,1,1-1.24-.666,23.344,23.344,0,0,0,2.764-11.005V30.268h-.533a19.409,19.409,0,0,1-15.4-7.6l-.228-.3-.315.2a54.9,54.9,0,0,1-17.711,7.49l-.8.18V31.99A23.25,23.25,0,0,0,27.9,54.514l.1.027.1-.027a23.322,23.322,0,0,0,5.148-2.02.7.7,0,1,1,.667,1.24,25.094,25.094,0,0,1-5.731,2.212l-.019,0a.683.683,0,0,1-.168.02.7.7,0,0,1-.17-.021,24.713,24.713,0,0,1-10.123-5.225H4.356A4.368,4.368,0,0,1,0,46.369V9.572A4.368,4.368,0,0,1,4.356,5.216H18.68a10.928,10.928,0,0,1,18.669,0h14.3A4.368,4.368,0,0,1,56,9.572ZM17.923,6.716H4.356A2.864,2.864,0,0,0,1.5,9.572v36.8a2.864,2.864,0,0,0,2.855,2.855H16.109A24.6,24.6,0,0,1,10.088,38.88L10,38.587H9.161a4.4,4.4,0,0,1-4.395-4.4l.005-2.811a4.4,4.4,0,0,1,3.975-4.366l.367-.035V24.864a18.891,18.891,0,0,1,7.954-15.4l.139-.1.026-.169a10.9,10.9,0,0,1,.69-2.479ZM39.853,32.65a.7.7,0,0,0-1,0,3.379,3.379,0,0,1-4.774,0,.7.7,0,0,0-1,1,4.789,4.789,0,0,0,6.765,0,.7.7,0,0,0,0-1ZM9.161,37.18a2.987,2.987,0,0,1-2.987-2.993l.005-2.81a2.993,2.993,0,0,1,2.457-2.934l.478-.086V31.99A24.865,24.865,0,0,0,9.562,36.7l.093.483H9.161Zm18.854-35.8a9.492,9.492,0,0,1,8.831,5.981l.387.975-.943-.461a18.877,18.877,0,0,0-16.551,0l-.943.461.387-.975A9.491,9.491,0,0,1,28.015,1.378ZM45.508,24.864v4h-.533a18,18,0,0,1-14.207-6.939l-.261-.335.346-.246Q32,20.53,33.1,19.662a.7.7,0,1,0-.873-1.1A53.427,53.427,0,0,1,11.017,28.694l-.5.112V24.864a17.493,17.493,0,1,1,34.987,0ZM48.955,36.3a2.97,2.97,0,0,1-2.1.876l-.5,0,.095-.486a24.679,24.679,0,0,0,.458-4.712V28.356l.482.093a2.993,2.993,0,0,1,2.425,2.928l.005,2.81a2.97,2.97,0,0,1-.873,2.116ZM36.176,16.1a.707.707,0,0,0-.995-.055l-.015.014a.7.7,0,0,0,.94,1.048l.015-.014a.7.7,0,0,0,.055-.993Zm.4,33.275-6.047-2.505.062-.324a8.515,8.515,0,0,1,6.714-6.735l.334-.065,2.37,6.2-3.433,3.433Zm13.9,5.4a.7.7,0,1,0,.206.5.712.712,0,0,0-.206-.5Z" transform="translate(-0.001 0.03)" fill-rule="evenodd"/>
</svg>
