<svg xmlns="http://www.w3.org/2000/svg" width="48.016" height="56" viewBox="0 0 48.016 56">
  <path id="Контур_279" data-name="Контур 279" d="M438.179,44.655a.82.82,0,0,0-.82.82v1.819H407.937V43.247H412.7a2.237,2.237,0,0,0,2.234-2.234V20.435A2.237,2.237,0,0,0,412.7,18.2h-4.766V10.38a.82.82,0,1,0-1.641,0V18.2h-5.422a2.237,2.237,0,0,0-2.234,2.234V41.013a2.237,2.237,0,0,0,2.234,2.234H406.3v8.641a4.106,4.106,0,0,0,4.1,4.1h24.5a4.106,4.106,0,0,0,4.1-4.1V45.475a.82.82,0,0,0-.82-.82h0Zm-37.9-3.642V20.435a.594.594,0,0,1,.594-.594H412.7a.594.594,0,0,1,.594.594V41.013a.594.594,0,0,1-.594.594H400.874A.594.594,0,0,1,400.281,41.013ZM434.9,54.349H410.4a2.464,2.464,0,0,1-2.461-2.461V48.935h29.422v2.953a2.464,2.464,0,0,1-2.461,2.461h0Zm-7.175-3.609h-10.15a.82.82,0,0,0,0,1.641h10.15a.82.82,0,0,0,0-1.641Zm-18.911-11.73a.82.82,0,0,0-.82-.82h-2.406a.82.82,0,1,0,0,1.641h2.406a.82.82,0,0,0,.82-.82Zm37.023-20.673a.82.82,0,0,0,.82-.82v-4.4a.82.82,0,0,0-.82-.82h-3.172A6.317,6.317,0,0,0,439,7.4V4.091a4.106,4.106,0,0,0-4.1-4.1H410.4a4.106,4.106,0,0,0-4.1,4.1V6.975a.82.82,0,1,0,1.641,0V4.091A2.464,2.464,0,0,1,410.4,1.63h3.1V4.091a1.916,1.916,0,0,0,1.914,1.914h14.437a1.916,1.916,0,0,0,1.914-1.914V1.63H434.9a2.464,2.464,0,0,1,2.461,2.461V6.909a6.532,6.532,0,0,0-1.039-.083,6.372,6.372,0,0,0-6.344,5.469H426.8a.82.82,0,0,0-.82.82V34.99a.82.82,0,0,0,.82.82h10.555V41.9a.82.82,0,0,0,1.641,0V35.81h6.836a.82.82,0,0,0,.82-.82V21.016a.82.82,0,0,0-1.641,0v8.778H427.625V13.935h17.391v3.581a.82.82,0,0,0,.82.82ZM430.124,4.091a.274.274,0,0,1-.273.273H415.413a.274.274,0,0,1-.273-.273V1.63h14.984Zm14.891,27.344v2.734H427.624V31.435ZM441,12.294h-2V9.275A4.651,4.651,0,0,1,441,12.294ZM436.32,8.466a4.864,4.864,0,0,1,1.039.112v3.716h-5.723a4.736,4.736,0,0,1,4.684-3.828Zm-.556,10.362a1.328,1.328,0,0,0-1.336-.019,1.342,1.342,0,0,0-.679,1.167v3.775a1.341,1.341,0,0,0,.679,1.167,1.327,1.327,0,0,0,1.336-.018l3.135-1.887a1.342,1.342,0,0,0,0-2.3l-3.135-1.888Zm-.374,4.382V20.519l2.235,1.346-2.235,1.346Z" transform="translate(-398.64 0.01)"/>
</svg>
